<?xml version="1.0" encoding="UTF-8"?>
<!DOCTYPE svg PUBLIC "-//W3C//DTD SVG 1.1//EN" "http://www.w3.org/Graphics/SVG/1.1/DTD/svg11.dtd">
<svg version="1.1" xmlns="http://www.w3.org/2000/svg" xmlns:xlink="http://www.w3.org/1999/xlink" x="0" y="0" width="1600" height="400" viewBox="0, 0, 1600, 400">
  <defs>
    <linearGradient id="Gradient_1" gradientUnits="userSpaceOnUse" x1="800" y1="-0" x2="800" y2="400">
      <stop offset="0" stop-color="#5F5F5F"/>
      <stop offset="1" stop-color="#343434"/>
    </linearGradient>
  </defs>
  <g id="Layer_3">
    <g>
      <path d="M80,0 L1520,0 C1564.183,0 1600,35.817 1600,80 L1600,320 C1600,364.183 1564.183,400 1520,400 L80,400 C35.817,400 0,364.183 0,320 L0,80 C0,35.817 35.817,0 80,0 z" fill="url(#Gradient_1)"/>
      <path d="M80,0 L1520,0 C1564.183,0 1600,35.817 1600,80 L1600,320 C1600,364.183 1564.183,400 1520,400 L80,400 C35.817,400 0,364.183 0,320 L0,80 C0,35.817 35.817,0 80,0 z" fill-opacity="0" stroke="#3492DB" stroke-width="1" stroke-opacity="0.33"/>
    </g>
  </g>
  <g id="Layer_1" opacity="0.95">
    <text transform="matrix(1, 0, 0, 1, 566.047, -181.461)"/>
    <path d="M139.64,288.048 L140.034,75.73 L467.206,101.901 L407.327,309.461 L269.714,322.458" fill="#E34F26"/>
    <path d="M273.069,304.953 L383.845,294.888 L435.048,117.102 L301.568,106.424" fill="#EF652A"/>
    <path d="M255.208,120.058 L282.568,235.467 L342.065,127.006 L409.124,132.37 L388.052,279.161 L369.844,277.705 C362.759,277.138 357.194,275.139 353.148,271.707 C349.283,268.163 348.566,266.516 347.991,261.227 L362.879,157.514 L301.189,272.258 L254.567,268.528 L226.207,146.581 L209.222,264.901 L167.071,261.529 L185.889,130.441 C186.5,126.185 189.254,122.746 194.153,120.125 C199.051,117.503 204.714,116.306 211.141,116.533 z" fill="#FFFFFF" fill-opacity="0.95"/>
    <path d="M342.065,127.006 L409.124,132.37 L388.052,279.161 L369.844,277.705 C362.759,277.138 357.194,275.139 353.148,271.707 C349.283,268.163 348.566,266.516 347.991,261.227 L362.879,157.514 L301.189,272.258 L278.028,270.405 L283.212,234.294 z" fill="#FFFFFF"/>
  </g>
  <g id="Layer_2">
    <path d="M440.537,261.869 Q428.624,253.233 423.519,238.598 Q418.414,223.964 418.414,208.13 Q418.414,195.175 422.668,182.22 Q426.923,169.265 435.999,160.628 Q450.747,146.234 474.005,143.595 Q497.262,140.956 515.982,146.714 Q537.537,153.911 547.748,171.664 Q557.391,187.498 557.391,208.61 Q557.391,223.964 553.42,235 Q549.45,246.036 543.21,253.713 Q529.596,269.547 508.607,273.385 Q489.888,277.703 470.885,274.105 Q451.882,270.506 440.537,261.869 z M467.765,177.422 Q455.853,188.458 456.987,210.289 Q458.122,232.121 466.63,240.758 Q470.034,244.596 478.543,247.235 Q487.052,249.874 495.844,247.715 Q504.637,245.556 511.444,236.919 Q518.251,228.282 518.818,209.09 Q518.818,191.816 512.294,183.18 Q505.771,174.543 497.262,172.144 Q488.753,169.745 480.245,171.904 Q471.736,174.063 467.765,177.422 z" fill="#FFFFFF"/>
    <path d="M700.075,273.385 L680.221,273.385 Q671.712,273.385 666.323,268.827 Q660.934,264.269 660.934,257.071 L660.934,191.816 Q660.934,180.301 652.709,175.023 Q644.484,169.745 634.273,169.745 Q624.063,169.745 616.121,175.023 Q608.179,180.301 608.179,191.816 L608.179,273.385 L568.472,273.385 L568.472,198.534 Q568.472,165.906 588.609,154.87 Q608.747,143.835 633.139,142.875 Q658.098,142.875 679.086,153.911 Q700.075,164.947 700.075,198.534 z" fill="#FFFFFF"/>
    <path d="M819.97,234.04 L848.333,234.04 Q842.093,254.192 824.508,264.748 Q806.923,275.784 780.262,275.784 Q747.928,275.784 729.776,258.031 Q711.624,240.758 711.624,208.61 Q711.624,177.902 729.209,160.628 Q747.361,142.875 779.695,142.875 Q813.73,142.875 832.449,160.148 Q850.602,177.902 850.602,209.57 Q850.602,211.489 850.602,212.928 Q850.602,214.368 850.602,214.847 Q850.602,217.247 850.034,218.206 L751.899,218.206 Q752.466,233.081 760.408,240.278 Q767.782,247.955 782.531,247.955 Q792.174,247.955 798.981,244.596 Q800.683,244.116 802.101,242.917 Q803.519,241.717 805.221,240.278 Q805.788,238.838 809.476,236.439 Q813.163,234.04 819.97,234.04 z M751.899,196.614 L809.759,196.614 Q808.625,183.659 801.818,177.422 Q794.443,170.704 780.829,170.704 Q768.35,170.704 760.408,177.422 Q752.466,184.139 751.899,196.614 z" fill="#FFFFFF"/>
    <path d="M926.682,273.385 Q907.963,274.345 886.123,272.905 Q864.284,271.466 864.284,249.394 L864.284,108.328 L884.705,108.328 Q892.079,108.328 897.752,113.126 Q903.424,117.925 903.424,124.642 L903.424,146.234 L926.682,146.234 L926.682,152.951 Q926.682,160.148 921.009,164.707 Q915.337,169.265 907.395,169.265 L903.424,169.265 L903.424,240.278 Q903.424,248.435 914.77,248.435 L926.682,248.435 z" fill="#FFFFFF"/>
    <path d="M943.17,145.754 L963.591,145.754 Q971.533,145.754 977.205,150.552 Q982.878,155.35 982.878,162.068 L982.878,273.385 L943.17,273.385 z M943.17,108.328 L963.591,108.328 Q971.533,108.328 977.205,113.126 Q982.878,117.925 982.878,124.642 L982.878,134.718 L943.17,134.718 z" fill="#FFFFFF"/>
    <path d="M997.165,273.385 L997.165,247.955 L1078.283,172.144 L1020.99,172.144 Q1013.048,172.144 1007.376,167.586 Q1001.703,163.027 1001.703,156.31 L1001.703,145.754 L1125.365,145.754 L1125.365,173.103 L1045.382,245.556 L1128.201,245.556 L1128.201,273.385 z" fill="#FFFFFF"/>
    <path d="M1245.192,234.04 L1273.555,234.04 Q1267.315,254.192 1249.73,264.748 Q1232.145,275.784 1205.484,275.784 Q1173.151,275.784 1154.998,258.031 Q1136.846,240.758 1136.846,208.61 Q1136.846,177.902 1154.431,160.628 Q1172.583,142.875 1204.917,142.875 Q1238.952,142.875 1257.672,160.148 Q1275.824,177.902 1275.824,209.569 Q1275.824,211.489 1275.824,212.928 Q1275.824,214.368 1275.824,214.847 Q1275.824,217.247 1275.256,218.206 L1177.121,218.206 Q1177.689,233.08 1185.63,240.278 Q1193.005,247.955 1207.753,247.955 Q1217.396,247.955 1224.203,244.596 Q1225.905,244.116 1227.323,242.917 Q1228.742,241.717 1230.443,240.278 Q1231.011,238.838 1234.698,236.439 Q1238.385,234.04 1245.192,234.04 z M1177.121,196.614 L1234.981,196.614 Q1233.847,183.659 1227.04,177.422 Q1219.665,170.704 1206.051,170.704 Q1193.572,170.704 1185.63,177.422 Q1177.689,184.139 1177.121,196.614 z" fill="#FFFFFF"/>
    <g>
      <path d="M1364.929,271.719 L1389.389,271.719 Q1390.787,280.054 1397.426,283.388 Q1404.415,287.278 1416.645,287.278 Q1427.478,287.278 1433.068,284.222 Q1438.659,281.166 1438.659,275.331 Q1438.659,266.439 1407.21,260.882 L1406.511,260.604 Q1406.511,260.604 1403.716,260.049 Q1385.895,256.992 1379.954,253.658 Q1372.966,250.602 1370.17,244.767 Q1366.676,239.765 1366.676,231.985 Q1366.676,218.371 1378.557,210.591 Q1390.438,203.089 1413.151,203.089 Q1434.466,203.089 1445.998,210.868 Q1457.878,219.482 1458.577,233.375 L1444.6,233.375 Q1436.563,233.375 1433.068,227.54 Q1431.321,224.761 1428.176,222.816 Q1421.887,219.204 1411.054,219.204 Q1400.571,219.204 1396.028,222.261 Q1390.787,225.317 1390.787,230.874 Q1390.787,238.376 1411.054,241.988 Q1416.995,243.377 1419.79,243.655 Q1426.08,245.322 1430.797,246.295 Q1435.515,247.267 1438.31,247.823 Q1443.202,249.49 1448.094,251.157 Q1455.083,254.492 1458.927,259.771 Q1462.771,265.606 1462.771,272.552 Q1462.771,287.556 1450.191,295.892 Q1437.611,303.672 1414.548,303.672 Q1390.787,303.672 1378.906,295.614 Q1365.977,287.556 1364.929,271.719 z" fill="#FFFFFF"/>
      <path d="M1364.929,271.719 L1389.389,271.719 Q1390.787,280.054 1397.426,283.388 Q1404.415,287.278 1416.645,287.278 Q1427.478,287.278 1433.068,284.222 Q1438.659,281.166 1438.659,275.331 Q1438.659,266.439 1407.21,260.882 L1406.511,260.604 Q1406.511,260.604 1403.716,260.049 Q1385.895,256.992 1379.954,253.658 Q1372.966,250.602 1370.17,244.767 Q1366.676,239.765 1366.676,231.985 Q1366.676,218.371 1378.557,210.591 Q1390.438,203.089 1413.151,203.089 Q1434.466,203.089 1445.998,210.868 Q1457.878,219.482 1458.577,233.375 L1444.6,233.375 Q1436.563,233.375 1433.068,227.54 Q1431.321,224.761 1428.176,222.816 Q1421.887,219.204 1411.054,219.204 Q1400.571,219.204 1396.028,222.261 Q1390.787,225.317 1390.787,230.874 Q1390.787,238.376 1411.054,241.988 Q1416.995,243.377 1419.79,243.655 Q1426.08,245.322 1430.797,246.295 Q1435.515,247.267 1438.31,247.823 Q1443.202,249.49 1448.094,251.157 Q1455.083,254.492 1458.927,259.771 Q1462.771,265.606 1462.771,272.552 Q1462.771,287.556 1450.191,295.892 Q1437.611,303.672 1414.548,303.672 Q1390.787,303.672 1378.906,295.614 Q1365.977,287.556 1364.929,271.719 z" fill-opacity="0" stroke="#FFFFFF" stroke-width="5"/>
    </g>
    <g>
      <path d="M1352.699,205.867 L1352.699,273.386 C1352.699,279.499 1352.35,283.944 1351.651,286.723 C1350.486,289.872 1348.972,292.372 1347.108,294.225 C1343.847,297.374 1339.537,299.782 1334.179,301.449 C1328.122,302.931 1321.6,303.672 1314.611,303.672 C1307.156,303.672 1301.099,302.931 1296.44,301.449 C1291.548,300.523 1287.239,298.485 1283.511,295.336 C1280.483,292.743 1278.503,290.15 1277.571,287.556 C1276.406,284.222 1275.824,279.406 1275.824,273.108 L1275.824,271.913 L1299.935,271.913 L1299.935,277.276 C1299.935,280.61 1301.099,283.203 1303.429,285.056 C1305.759,286.723 1309.369,287.556 1314.261,287.556 C1319.154,287.556 1322.764,286.537 1325.094,284.5 C1326.958,282.648 1327.889,278.665 1327.889,272.552 L1327.889,215.87 C1327.889,213.091 1329.171,210.73 1331.733,208.785 C1334.296,206.84 1337.324,205.867 1340.819,205.867 z" fill="#FFFFFF"/>
      <path d="M1352.699,205.867 L1352.699,273.386 C1352.699,279.499 1352.35,283.944 1351.651,286.723 C1350.486,289.872 1348.972,292.372 1347.108,294.225 C1343.847,297.374 1339.537,299.782 1334.179,301.449 C1328.122,302.931 1321.6,303.672 1314.611,303.672 C1307.156,303.672 1301.099,302.931 1296.44,301.449 C1291.548,300.523 1287.239,298.485 1283.511,295.336 C1280.483,292.743 1278.503,290.15 1277.571,287.556 C1276.406,284.222 1275.824,279.406 1275.824,273.108 L1275.824,271.913 L1299.935,271.913 L1299.935,277.276 C1299.935,280.61 1301.099,283.203 1303.429,285.056 C1305.759,286.723 1309.369,287.556 1314.261,287.556 C1319.154,287.556 1322.764,286.537 1325.094,284.5 C1326.958,282.648 1327.889,278.665 1327.889,272.552 L1327.889,215.87 C1327.889,213.091 1329.171,210.73 1331.733,208.785 C1334.296,206.84 1337.324,205.867 1340.819,205.867 z" fill-opacity="0" stroke="#FFFFFF" stroke-width="5"/>
    </g>
  </g>
</svg>
