<?xml version="1.0" encoding="UTF-8"?>
<!DOCTYPE svg PUBLIC "-//W3C//DTD SVG 1.1//EN" "http://www.w3.org/Graphics/SVG/1.1/DTD/svg11.dtd">
<svg version="1.1" xmlns="http://www.w3.org/2000/svg" xmlns:xlink="http://www.w3.org/1999/xlink" x="0" y="0" width="1680" height="420" viewBox="0, 0, 1680, 420">
  <defs>
    <linearGradient id="Gradient_1" gradientUnits="userSpaceOnUse" x1="897.423" y1="-0" x2="897.423" y2="420">
      <stop offset="0" stop-color="#5F5F5F"/>
      <stop offset="1" stop-color="#343434"/>
    </linearGradient>
  </defs>
  <g id="Layer_3">
    <path d="M193.104,-0 L1601.742,-0 C1644.963,-0 1680,37.608 1680,84 L1680,336 C1680,382.392 1644.963,420 1601.742,420 L193.104,420 C149.884,420 114.846,382.392 114.846,336 L114.846,84 C114.846,37.608 149.884,-0 193.104,-0 z" fill="url(#Gradient_1)"/>
  </g>
  <g id="Layer_1" opacity="0.95">
    <text transform="matrix(1, 0, 0, 1, 514.064, -238.176)"/>
    <path d="M6.993,318.601 L7.46,66.367 L396.141,97.459 L325.004,344.039 L161.52,359.48" fill="#E34F26"/>
    <path d="M165.506,338.684 L297.108,326.727 L357.937,115.517 L199.362,102.832" fill="#EF652A"/>
    <path d="M144.287,119.029 L176.791,256.135 L247.473,127.283 L327.139,133.655 L302.106,308.044 L280.474,306.313 C272.058,305.64 265.446,303.265 260.64,299.187 C256.048,294.977 255.197,293.021 254.514,286.738 L272.201,163.527 L198.912,299.842 L143.525,295.411 L109.834,150.538 L89.656,291.102 L39.58,287.097 L61.936,131.364 C62.662,126.308 65.934,122.222 71.753,119.108 C77.572,115.993 84.3,114.571 91.935,114.841 z" fill="#FFFFFF" fill-opacity="0.95"/>
    <path d="M247.473,127.283 L327.139,133.655 L302.106,308.044 L280.474,306.313 C272.058,305.64 265.446,303.265 260.64,299.187 C256.048,294.977 255.197,293.021 254.514,286.738 L272.2,163.527 L198.912,299.842 L171.397,297.641 L177.556,254.741 z" fill="#FFFFFF"/>
  </g>
  <g id="Layer_2">
    <path d="M369.458,287.501 Q355.306,277.241 349.241,259.855 Q343.176,242.469 343.176,223.659 Q343.176,208.268 348.23,192.877 Q353.284,177.487 364.066,167.226 Q381.588,150.126 409.218,146.991 Q436.848,143.855 459.086,150.696 Q484.694,159.246 496.825,180.337 Q508.281,199.148 508.281,224.229 Q508.281,242.469 503.564,255.58 Q498.846,268.69 491.433,277.811 Q475.26,296.621 450.325,301.181 Q428.087,306.312 405.511,302.037 Q382.936,297.761 369.458,287.501 z M401.805,187.177 Q387.653,200.288 389.001,226.224 Q390.348,252.16 400.457,262.42 Q404.5,266.98 414.609,270.115 Q424.717,273.25 435.163,270.685 Q445.608,268.12 453.695,257.86 Q461.782,247.599 462.456,224.799 Q462.456,204.278 454.706,194.017 Q446.956,183.757 436.848,180.907 Q426.739,178.057 416.631,180.622 Q406.522,183.187 401.805,187.177 z" fill="#FFFFFF"/>
    <path d="M677.789,301.181 L654.202,301.181 Q644.094,301.181 637.692,295.766 Q631.29,290.351 631.29,281.801 L631.29,204.278 Q631.29,190.597 621.518,184.327 Q611.747,178.057 599.617,178.057 Q587.486,178.057 578.052,184.327 Q568.617,190.597 568.617,204.278 L568.617,301.181 L521.444,301.181 L521.444,212.258 Q521.444,173.497 545.368,160.386 Q569.291,147.276 598.269,146.136 Q627.92,146.136 652.855,159.246 Q677.789,172.357 677.789,212.258 z" fill="#FFFFFF"/>
    <path d="M820.224,254.44 L853.919,254.44 Q846.506,278.381 825.615,290.921 Q804.725,304.032 773.051,304.032 Q734.639,304.032 713.074,282.941 Q691.509,262.42 691.509,224.229 Q691.509,187.747 712.4,167.226 Q733.965,146.136 772.377,146.136 Q812.811,146.136 835.05,166.656 Q856.615,187.747 856.615,225.369 Q856.615,227.649 856.615,229.359 Q856.615,231.069 856.615,231.639 Q856.615,234.489 855.941,235.629 L739.356,235.629 Q740.03,253.3 749.465,261.85 Q758.225,270.97 775.747,270.97 Q787.203,270.97 795.29,266.98 Q797.312,266.41 798.996,264.985 Q800.681,263.56 802.703,261.85 Q803.377,260.14 807.757,257.29 Q812.137,254.44 820.224,254.44 z M739.356,209.978 L808.094,209.978 Q806.746,194.587 798.659,187.177 Q789.899,179.197 773.725,179.197 Q758.899,179.197 749.465,187.177 Q740.03,195.157 739.356,209.978 z" fill="#FFFFFF"/>
    <path d="M946.998,301.181 Q924.759,302.322 898.814,300.611 Q872.869,298.901 872.869,272.68 L872.869,105.094 L897.13,105.094 Q905.89,105.094 912.629,110.794 Q919.368,116.494 919.368,124.475 L919.368,150.126 L946.998,150.126 L946.998,158.106 Q946.998,166.656 940.259,172.072 Q933.52,177.487 924.086,177.487 L919.368,177.487 L919.368,261.85 Q919.368,271.54 932.846,271.54 L946.998,271.54 z" fill="#FFFFFF"/>
    <path d="M966.586,149.556 L990.846,149.556 Q1000.281,149.556 1007.02,155.256 Q1013.759,160.956 1013.759,168.936 L1013.759,301.181 L966.586,301.181 z M966.586,105.094 L990.846,105.094 Q1000.281,105.094 1007.02,110.794 Q1013.759,116.494 1013.759,124.475 L1013.759,136.445 L966.586,136.445 z" fill="#FFFFFF"/>
    <path d="M1030.732,301.181 L1030.732,270.97 L1127.1,180.907 L1059.036,180.907 Q1049.601,180.907 1042.862,175.492 Q1036.123,170.076 1036.123,162.096 L1036.123,149.556 L1183.033,149.556 L1183.033,182.047 L1088.014,268.12 L1186.403,268.12 L1186.403,301.181 z" fill="#FFFFFF"/>
    <path d="M1325.388,254.44 L1359.083,254.44 Q1351.67,278.381 1330.779,290.921 Q1309.888,304.032 1278.215,304.032 Q1239.803,304.032 1218.238,282.941 Q1196.673,262.42 1196.673,224.229 Q1196.673,187.747 1217.564,167.226 Q1239.129,146.135 1277.541,146.135 Q1317.975,146.135 1340.214,166.656 Q1361.779,187.747 1361.779,225.369 Q1361.779,227.649 1361.779,229.359 Q1361.779,231.069 1361.779,231.639 Q1361.779,234.489 1361.105,235.629 L1244.52,235.629 Q1245.194,253.3 1254.629,261.85 Q1263.389,270.97 1280.911,270.97 Q1292.367,270.97 1300.454,266.98 Q1302.475,266.41 1304.16,264.985 Q1305.845,263.56 1307.867,261.85 Q1308.541,260.14 1312.921,257.29 Q1317.301,254.44 1325.388,254.44 z M1244.52,209.978 L1313.258,209.978 Q1311.91,194.587 1303.823,187.177 Q1295.063,179.197 1278.889,179.197 Q1264.063,179.197 1254.629,187.177 Q1245.194,195.157 1244.52,209.978 z" fill="#FFFFFF"/>
    <g>
      <path d="M1467.635,299.202 L1496.694,299.202 Q1498.355,309.104 1506.242,313.065 Q1514.545,317.687 1529.074,317.687 Q1541.943,317.687 1548.585,314.056 Q1555.228,310.425 1555.228,303.493 Q1555.228,292.93 1517.866,286.328 L1517.036,285.998 Q1517.036,285.998 1513.715,285.338 Q1492.543,281.707 1485.486,277.746 Q1477.183,274.115 1473.862,267.183 Q1469.711,261.241 1469.711,251.999 Q1469.711,235.824 1483.825,226.582 Q1497.94,217.669 1524.923,217.669 Q1550.246,217.669 1563.945,226.912 Q1578.06,237.145 1578.89,253.649 L1562.285,253.649 Q1552.737,253.649 1548.585,246.717 Q1546.51,243.416 1542.774,241.106 Q1535.301,236.815 1522.432,236.815 Q1509.979,236.815 1504.582,240.446 Q1498.355,244.077 1498.355,250.678 Q1498.355,259.591 1522.432,263.882 Q1529.49,265.532 1532.811,265.863 Q1540.283,267.843 1545.887,268.998 Q1551.491,270.154 1554.812,270.814 Q1560.624,272.794 1566.436,274.775 Q1574.739,278.736 1579.305,285.008 Q1583.871,291.94 1583.871,300.192 Q1583.871,318.017 1568.927,327.92 Q1553.982,337.162 1526.584,337.162 Q1498.355,337.162 1484.241,327.589 Q1468.881,318.017 1467.635,299.202 z" fill="#FFFFFF"/>
      <path d="M1467.635,299.202 L1496.694,299.202 Q1498.355,309.104 1506.242,313.065 Q1514.545,317.687 1529.074,317.687 Q1541.943,317.687 1548.585,314.056 Q1555.228,310.425 1555.228,303.493 Q1555.228,292.93 1517.866,286.328 L1517.036,285.998 Q1517.036,285.998 1513.715,285.338 Q1492.543,281.707 1485.486,277.746 Q1477.183,274.115 1473.862,267.183 Q1469.711,261.241 1469.711,251.999 Q1469.711,235.824 1483.825,226.582 Q1497.94,217.669 1524.923,217.669 Q1550.246,217.669 1563.945,226.912 Q1578.06,237.145 1578.89,253.649 L1562.285,253.649 Q1552.737,253.649 1548.585,246.717 Q1546.51,243.416 1542.774,241.106 Q1535.301,236.815 1522.432,236.815 Q1509.979,236.815 1504.582,240.446 Q1498.355,244.077 1498.355,250.678 Q1498.355,259.591 1522.432,263.882 Q1529.49,265.532 1532.811,265.863 Q1540.283,267.843 1545.887,268.998 Q1551.491,270.154 1554.812,270.814 Q1560.624,272.794 1566.436,274.775 Q1574.739,278.736 1579.305,285.008 Q1583.871,291.94 1583.871,300.192 Q1583.871,318.017 1568.927,327.92 Q1553.982,337.162 1526.584,337.162 Q1498.355,337.162 1484.241,327.589 Q1468.881,318.017 1467.635,299.202 z" fill-opacity="0" stroke="#FFFFFF" stroke-width="5.94"/>
    </g>
    <g>
      <path d="M1453.107,220.97 L1453.107,301.182 C1453.107,308.444 1452.692,313.726 1451.861,317.027 C1450.478,320.768 1448.679,323.738 1446.465,325.939 C1442.59,329.68 1437.47,332.541 1431.105,334.521 C1423.91,336.282 1416.16,337.162 1407.858,337.162 C1399.002,337.162 1391.806,336.282 1386.271,334.521 C1380.459,333.421 1375.339,331 1370.911,327.259 C1367.314,324.179 1364.961,321.098 1363.854,318.017 C1362.47,314.056 1361.779,308.334 1361.779,300.852 L1361.779,299.432 L1390.422,299.432 L1390.422,305.803 C1390.422,309.765 1391.806,312.845 1394.574,315.046 C1397.341,317.027 1401.631,318.017 1407.443,318.017 C1413.255,318.017 1417.544,316.807 1420.312,314.386 C1422.526,312.185 1423.633,307.454 1423.633,300.192 L1423.633,232.853 C1423.633,229.553 1425.155,226.747 1428.199,224.436 C1431.243,222.126 1434.841,220.97 1438.993,220.97 z" fill="#FFFFFF"/>
      <path d="M1453.107,220.97 L1453.107,301.182 C1453.107,308.444 1452.692,313.726 1451.861,317.027 C1450.478,320.768 1448.679,323.738 1446.465,325.939 C1442.59,329.68 1437.47,332.541 1431.105,334.521 C1423.91,336.282 1416.16,337.162 1407.858,337.162 C1399.002,337.162 1391.806,336.282 1386.271,334.521 C1380.459,333.421 1375.339,331 1370.911,327.259 C1367.314,324.179 1364.961,321.098 1363.854,318.017 C1362.47,314.056 1361.779,308.334 1361.779,300.852 L1361.779,299.432 L1390.422,299.432 L1390.422,305.803 C1390.422,309.765 1391.806,312.845 1394.574,315.046 C1397.341,317.027 1401.631,318.017 1407.443,318.017 C1413.255,318.017 1417.544,316.807 1420.312,314.386 C1422.526,312.185 1423.633,307.454 1423.633,300.192 L1423.633,232.853 C1423.633,229.553 1425.155,226.747 1428.199,224.436 C1431.243,222.126 1434.841,220.97 1438.993,220.97 z" fill-opacity="0" stroke="#FFFFFF" stroke-width="5.94"/>
    </g>
  </g>
</svg>
