<?xml version="1.0" encoding="UTF-8" standalone="no"?><!DOCTYPE svg PUBLIC "-//W3C//DTD SVG 1.1//EN" "http://www.w3.org/Graphics/SVG/1.1/DTD/svg11.dtd"><svg width="100%" height="100%" viewBox="0 0 700 160" version="1.1" xmlns="http://www.w3.org/2000/svg" xmlns:xlink="http://www.w3.org/1999/xlink" xml:space="preserve" xmlns:serif="http://www.serif.com/" style="fill-rule:evenodd;clip-rule:evenodd;stroke-linejoin:round;stroke-miterlimit:1.41421;"><path d="M233.444,31.014c9.544,0.072 19.211,3.103 26.179,9.639l0.824,0.791l-4.497,8.729c-1.434,2.542 -4.746,3.911 -8.055,1.788c-0.197,-0.126 -0.396,-0.251 -0.594,-0.376c-0.36,-0.223 -0.722,-0.444 -1.085,-0.663c-2.27,-1.355 -4.642,-2.601 -7.162,-3.337c-6.407,-1.871 -14.477,-0.689 -17.43,4.652c-1.851,3.347 -1.845,7.774 0.846,10.621c4.956,5.244 13.349,6.327 19.471,8.617c1.39,0.52 2.764,1.083 4.119,1.688c6.371,2.845 12.258,7.539 14.56,14.467c1.663,5.005 1.588,10.54 0.463,15.785c-2.222,10.36 -10.206,19.113 -20.877,22.112c-13.975,3.927 -30.16,-0.343 -40.391,-10.683l-0.85,-0.881l5.302,-8.865c1.331,-1.881 3.766,-2.981 6.011,-2.314c2.713,0.806 4.776,3.016 7.448,4.595c1.122,0.663 2.292,1.244 3.487,1.764c7.86,3.42 18.228,2.598 21.707,-4.43c1.969,-3.979 2.012,-9.088 -0.938,-12.285c-4.783,-5.185 -13.018,-5.986 -19.486,-8.326c-1.216,-0.44 -2.42,-0.917 -3.608,-1.429c-6.581,-2.834 -12.444,-7.651 -14.761,-14.981c-3.351,-10.6 -0.168,-22.711 8.309,-29.758c5.775,-4.8 13.448,-6.939 21.008,-6.92Zm447.715,28.275l17.003,0l0,13.124l-17.003,0c0,11.511 -0.084,23.023 0.002,34.533c0.082,3.616 3.345,6.78 7.932,4.456c1.813,-0.918 3.488,-2.014 5.095,-0.39c0.287,0.29 0.536,0.613 0.774,0.944l5.038,8.366c-5.051,4.284 -11.539,6.605 -18.217,6.545c-5.228,-0.048 -10.701,-1.83 -14.042,-6.101c-2.809,-3.591 -3.831,-8.331 -3.85,-12.912l0,-35.441c-1.971,0 -3.721,0.104 -5.837,-0.009c-2.088,-0.157 -3.639,-2.107 -3.657,-4.261l0,-7.053l10.376,-1.738l3.111,-17.153c0.497,-1.967 2.298,-3.417 4.358,-3.434l8.917,0l0,20.524Zm-392.054,13.124c0,11.511 -0.085,23.023 0.001,34.533c0.004,0.17 0.004,0.17 0.01,0.341c0.19,3.447 3.336,6.438 7.923,4.115c1.812,-0.918 3.488,-2.013 5.094,-0.39c0.287,0.29 0.536,0.613 0.774,0.944l5.038,8.366c-5.051,4.284 -11.538,6.605 -18.217,6.545c-5.227,-0.048 -10.7,-1.83 -14.041,-6.101c-2.807,-3.587 -3.832,-8.317 -3.85,-12.912l0,-35.441c-1.972,0 -3.722,0.104 -5.837,-0.009c-2.088,-0.157 -3.64,-2.108 -3.658,-4.261l0,-7.053l10.376,-1.738l3.111,-17.153c0.498,-1.966 2.298,-3.417 4.358,-3.434l7.947,0c0.324,0.324 0.647,0.647 0.971,0.971l0,19.553l17.002,0l-0.006,13.124l-16.996,0Zm50.962,-14.902c8.143,0.064 16.218,3.705 20.543,10.842c2.764,4.559 3.866,9.98 3.89,15.351l0,42.147c-2.83,0 -5.669,0.089 -8.487,-0.011c-1.881,-0.087 -3.81,-0.752 -4.776,-2.294c-0.34,-0.543 -0.588,-1.135 -0.795,-1.74l-0.941,-3.241c-0.221,0.194 -0.444,0.386 -0.667,0.577c-6.326,5.351 -14.569,8.562 -23.158,7.536c-4.643,-0.555 -9.257,-2.521 -12.24,-6.103c-4.894,-5.877 -5.405,-15.318 -1.23,-21.362c5.424,-7.853 16.11,-10.72 26.268,-11.961c2.895,-0.353 5.805,-0.55 8.718,-0.661l0.412,-0.014c0,-4.738 0.268,-10.148 -3.745,-13.079c-4.338,-3.168 -11,-1.752 -15.774,1.031c-1.204,0.714 -2.399,1.44 -3.61,2.135c-0.693,0.383 -0.903,0.449 -1.378,0.6c-2.834,0.903 -6.045,-0.158 -7.756,-2.987l-3.101,-5.7c7.33,-6.831 16.959,-10.931 27.155,-11.064c0.224,-0.002 0.448,-0.003 0.672,-0.002Zm61.616,0.19c8.37,0.065 16.509,3.224 22.482,9.238l0.703,0.716l-4.513,6.399c-1.52,1.957 -4.194,2.975 -6.586,1.564c-3.396,-2.003 -6.796,-3.998 -11.193,-4.03c-3.891,-0.029 -7.851,1.234 -10.535,4.152c-4.553,4.949 -5.07,12.294 -4.768,18.596c0.082,1.703 0.265,3.403 0.594,5.077c0.923,4.698 3.136,9.353 7.171,11.73c4.085,2.406 9.55,2.313 13.456,0.529c2.069,-0.945 3.638,-2.291 5.617,-3.727c2.017,-1.405 4.99,-1.235 6.456,0.861c0,0 4.908,6.38 4.908,6.38c-6.326,7.523 -15.789,11.812 -26.822,11.613c-8.812,-0.158 -17.398,-4.586 -22.522,-11.82c-7.201,-10.166 -8.35,-24.243 -4.611,-36.043c2.906,-9.17 10.024,-16.894 19.365,-19.763c3.483,-1.07 7.178,-1.481 10.798,-1.472Zm219.392,-28.213l0,96.363c-3.483,0 -6.966,0.025 -10.449,-0.001c-2.146,-0.048 -4.07,-1.493 -4.681,-3.594l-0.922,-4.452c-0.161,0.168 -0.324,0.335 -0.488,0.502c-5.522,5.544 -13.152,9.043 -21.268,8.43c-6.661,-0.503 -12.852,-4.286 -16.669,-9.984c-5.45,-8.135 -6.649,-18.559 -5.887,-28.346c0.909,-11.688 6.366,-23.569 17.272,-28.619c3.653,-1.692 7.728,-2.37 11.758,-2.266c5.08,0.13 10.108,1.914 14.066,5.14l0,-33.173c5.756,0 11.512,0 17.268,0Zm-173.961,96.363l-17.271,0l0,-96.363l17.271,0l-0.002,54.074c1.967,0 3.962,0.146 5.279,-1.56l0.116,-0.156c5.276,-6.673 10.552,-13.345 15.827,-20.019c0.877,-1.109 1.912,-2.109 3.174,-2.614c0.929,-0.371 1.934,-0.49 2.928,-0.496l16.055,0l-21.058,25.777c-0.263,0.353 -0.263,0.353 -0.541,0.703c-0.936,1.157 -1.982,2.222 -3.163,3.127c0,0 1.912,2.03 3.327,4.205l0.113,0.176l22.235,33.142c0,0 -11.131,0.028 -15.784,0.004c-2.409,-0.039 -4.756,-1.13 -5.942,-3.189c0,0 -16.29,-24.777 -16.29,-24.777c-0.068,-0.113 -0.137,-0.224 -0.208,-0.334c-0.77,-1.157 -2.181,-1.559 -3.565,-1.564l-2.503,0l0.002,29.864Zm202.018,0l-17.331,0l0,-67.134l17.331,0l0,67.134Zm-92.471,-78.282l-39.839,0l0,23.539l31.399,0l0,15.094l-31.399,0l0,24.047l39.839,0l0,15.602l-58.534,0l0,-93.821l58.534,0l0,15.539Zm-209.257,50.514c-6.136,0.361 -12.592,0.606 -17.881,3.772c-2.348,1.406 -3.78,3.928 -3.419,6.901c0.22,1.813 1.261,3.55 2.899,4.39c1.593,0.817 3.42,1.015 5.241,0.973c3.172,-0.075 6.346,-0.953 8.986,-2.706c1.607,-1.066 3.05,-2.358 4.374,-3.754l0,-9.587c-0.066,0.004 -0.133,0.007 -0.2,0.011Zm244.882,-26.685c-5.055,0.092 -9.805,3.261 -11.884,8.27c-2.458,5.922 -2.531,12.636 -1.738,19.156c0.656,5.394 2.563,11.137 7.51,12.908c3.899,1.396 8.515,0.821 11.969,-1.337c2.184,-1.365 4.041,-3.185 5.664,-5.172l0,-28.541c-2.768,-3.318 -7.01,-5.311 -11.521,-5.284Zm48.196,-41.718c5.174,0.094 9.941,4.292 10.655,9.465c1.008,7.3 -7.122,15.103 -15.066,11.429c-5.202,-2.406 -7.925,-9.161 -5.308,-14.692c1.692,-3.578 5.399,-6.126 9.443,-6.202c0.138,-0.001 0.138,-0.001 0.276,0Z" style="fill:#606060;fill-rule:nonzero;"/><path d="M159.997,40.003c0,-22.076 -17.923,-39.999 -39.999,-39.999l-79.999,0c-22.076,0 -39.999,17.923 -39.999,39.999l0,79.998c0,22.076 17.923,39.999 39.999,39.999l79.999,0c22.076,0 39.999,-17.923 39.999,-39.999l0,-79.998Z" style="fill:none;"/><clipPath id="_clip1"><path d="M159.997,40.003c0,-22.076 -17.923,-39.999 -39.999,-39.999l-79.999,0c-22.076,0 -39.999,17.923 -39.999,39.999l0,79.998c0,22.076 17.923,39.999 39.999,39.999l79.999,0c22.076,0 39.999,-17.923 39.999,-39.999l0,-79.998Z"/></clipPath><g clip-path="url(#_clip1)"><path d="M159.997,0.004l-160.014,0l80.007,80.007l80.007,-80.007Z" style="fill:#ffd700;"/><path d="M-0.017,0.004l0,160.014l80.007,-80.008l-80.007,-80.006Z" style="fill:#a5c700;"/><path d="M-0.017,160.018l160.014,0l-80.007,-80.007l-80.007,80.007Z" style="fill:#ff8a00;"/><path d="M159.997,160.018l0,-160.014l-80.007,80.007l80.007,80.007Z" style="fill:#66aefd;"/><path d="M149.996,-9.997l-70.006,69.988l20.002,20.02l70.006,-70.007l-20.002,-20.001Z" style="fill:url(#_Linear2);"/><path d="M170.006,150.017l-69.988,-70.006l-20.02,20.002l70.007,70.006l20.001,-20.002Z" style="fill:url(#_Linear3);"/><path d="M9.983,170.01l70.007,-69.989l-20.002,-20.019l-70.006,70.006l20.001,20.002Z" style="fill:url(#_Linear4);"/><path d="M-10.018,10.004l69.988,70.007l20.02,-20.002l-70.006,-70.006l-20.002,20.001Z" style="fill:url(#_Linear5);"/></g><path d="M145.013,39.006c0,-14.636 -11.883,-26.519 -26.519,-26.519l-76.974,0c-14.636,0 -26.519,11.883 -26.519,26.519l0,76.974c0,14.636 11.883,26.518 26.519,26.518l76.974,0c14.636,0 26.519,-11.882 26.519,-26.518l0,-76.974Z" style="fill:#fff;"/><path d="M30.89,40.077l9.135,0l0,-12.192l9.323,0l0,12.192l11.312,0l0,-12.192l9.323,0l0,12.192l9.136,0l0,11.272l-9.136,0l0,12.681l9.136,0l0,11.272l-9.136,0l0,12.192l-9.323,0l0,-12.192l-11.312,0l0,12.192l-9.323,0l0,-12.192l-9.135,0l0,-11.272l9.135,0l0,-12.681l-9.135,0l0,-11.272Zm18.458,11.272l0,12.681l11.312,0l0,-12.681l-11.312,0Z" style="fill:#737373;"/><defs><linearGradient id="_Linear2" x1="0" y1="0" x2="1" y2="0" gradientUnits="userSpaceOnUse" gradientTransform="matrix(-20.0015,-20.0018,20.0018,-20.0015,159.997,20.0053)"><stop offset="0" style="stop-color:#66aefd;stop-opacity:1"/><stop offset="1" style="stop-color:#ffd700;stop-opacity:1"/></linearGradient><linearGradient id="_Linear3" x1="0" y1="0" x2="1" y2="0" gradientUnits="userSpaceOnUse" gradientTransform="matrix(20.0018,-20.0015,20.0015,20.0018,140.004,160.018)"><stop offset="0" style="stop-color:#ff8a00;stop-opacity:1"/><stop offset="1" style="stop-color:#66aefd;stop-opacity:1"/></linearGradient><linearGradient id="_Linear4" x1="0" y1="0" x2="1" y2="0" gradientUnits="userSpaceOnUse" gradientTransform="matrix(20.0015,20.0018,-20.0018,20.0015,-0.0173131,140.007)"><stop offset="0" style="stop-color:#a5c700;stop-opacity:1"/><stop offset="1" style="stop-color:#ff8a00;stop-opacity:1"/></linearGradient><linearGradient id="_Linear5" x1="0" y1="0" x2="1" y2="0" gradientUnits="userSpaceOnUse" gradientTransform="matrix(-20.0018,20.0015,-20.0015,-20.0018,19.9845,0.00353669)"><stop offset="0" style="stop-color:#ffd700;stop-opacity:1"/><stop offset="1" style="stop-color:#a5c700;stop-opacity:1"/></linearGradient></defs></svg>