
<svg
  xmlns="http://www.w3.org/2000/svg" viewBox="0 0 180 180">
  <g>
    <path d="M20.512,178.499c-3.359,-0.884 -6.258,-2.184 -8.931,-4.006c-2.257,-1.538 -5.556,-4.717 -6.811,-6.563c-1.532,-2.255 -3.293,-6.117 -4.011,-8.795c-0.732,-2.732 -0.743,-3.82 -0.757,-69.395c-0.013,-65.245 0.002,-66.679 0.72,-69.483c2.537,-9.916 10.395,-17.46 20.529,-19.711c2.914,-0.647 133.08,-0.76 136.223,-0.118c8.509,1.738 15.198,6.846 19.068,14.564c3.078,6.135 2.803,-0.617 2.943,72.231c0.09,46.349 0.007,65.808 -0.288,68.232c-1.386,11.345 -9.211,20.143 -20.471,23.019c-2.88,0.735 -3.882,0.746 -69.275,0.726c-63.227,-0.019 -66.474,-0.052 -68.939,-0.701l0,0Z" style="fill:#f57d00;fill-rule:nonzero;"/>
    <path d="M115.162,144.835c8.064,-1.1 14.384,-4.333 20.313,-10.39c4.289,-4.382 6.974,-9.125 8.728,-15.419c0.729,-2.615 0.79,-3.888 0.924,-19.242c0.101,-11.588 0.017,-17.015 -0.285,-18.385c-0.437,-1.986 -1.677,-3.83 -3.092,-4.599c-0.435,-0.237 -3.224,-0.538 -6.198,-0.67c-4.982,-0.221 -5.54,-0.318 -7.113,-1.24c-2.494,-1.462 -3.181,-3.041 -3.188,-7.327c-0.013,-8.189 -3.421,-15.792 -10.155,-22.654c-4.797,-4.889 -10.149,-8.198 -16.257,-10.052c-1.462,-0.444 -4.736,-0.595 -15.702,-0.725c-17.207,-0.203 -21.026,0.15 -26.884,2.483c-10.8,4.302 -18.56,13.368 -21.39,24.99c-0.532,2.183 -0.635,5.682 -0.761,25.779c-0.157,25.177 0.016,28.874 1.59,33.864c1.299,4.122 2.611,6.648 5.313,10.234c5.146,6.83 12.86,11.763 20.572,13.156c3.67,0.663 48.948,0.829 53.585,0.197Z" style="fill:#fff;fill-rule:nonzero;"/>
    <path d="M67.575,75.717c-4.123,-1.136 -5.663,-7.051 -2.633,-10.111c1.937,-1.955 2.472,-2.029 14.595,-2.029c10.883,0 11.249,0.023 12.848,0.831c2.31,1.167 3.314,2.812 3.314,5.432c0,2.367 -0.943,4.025 -3.046,5.357c-1.129,0.716 -1.804,0.76 -12.467,0.823c-6.584,0.039 -11.83,-0.087 -12.611,-0.303l0,0Z" style="fill:#f57d00;fill-rule:nonzero;"/>
    <path d="M67.058,115.526c-1.769,-0.771 -3.417,-2.913 -3.702,-4.813c-0.272,-1.809 0.638,-4.296 2.032,-5.558c1.757,-1.59 2.528,-1.643 24.134,-1.66c22.227,-0.017 22.111,-0.027 24.219,1.941c2.976,2.78 2.349,7.728 -1.239,9.76l-3.686,0.6l-19.213,0.224c-16.883,0.198 -21.666,-0.111 -22.545,-0.494l0,0Z" style="fill:#f57d00;fill-rule:nonzero;"/>
  </g>
</svg>
