
<svg width="100%" height="100%" viewBox="0 0 30 30" version="1.1"
  xmlns="http://www.w3.org/2000/svg"
  style="fill-rule:evenodd;clip-rule:evenodd;stroke-linejoin:round;stroke-miterlimit:1.41421;">
  <path d="M14.581,28.019l5.369,-16.526l-10.738,0l5.369,16.526l0,0Z" style="fill:#e24329;"/>
  <path d="M14.581,28.019l-5.37,-16.526l-7.525,0l12.895,16.526l0,0Z" style="fill:#fc6d26;"/>
  <path d="M1.686,11.493l-1.632,5.022c-0.148,0.458 0.015,0.96 0.404,1.243l14.123,10.261l-12.895,-16.526l0,0Z" style="fill:#fca326;"/>
  <path d="M1.686,11.493l7.526,0l-3.235,-9.953c-0.166,-0.512 -0.89,-0.512 -1.057,0l-3.234,9.953l0,0Z" style="fill:#e24329;"/>
  <path d="M14.581,28.019l5.369,-16.526l7.526,0l-12.895,16.526l0,0Z" style="fill:#fc6d26;"/>
  <path d="M27.476,11.493l1.631,5.022c0.149,0.458 -0.014,0.96 -0.404,1.243l-14.122,10.261l12.895,-16.526l0,0Z" style="fill:#fca326;"/>
  <path d="M27.476,11.493l-7.526,0l3.234,-9.953c0.167,-0.512 0.891,-0.512 1.058,0l3.234,9.953l0,0Z" style="fill:#e24329;"/>
</svg>
