
<svg
  xmlns="http://www.w3.org/2000/svg" viewBox="0 0 512 511">
  <path d="M255.912,0.08c1.4,0.8 2.6,2 3.7,3.2c41.3,41.5 82.7,83 123.899,124.6c-26,25.6 -51.6,51.6 -77.399,77.3c-9.7,9.8 -19.601,19.4 -29.2,29.4c-7.2,-17.4 -14.1,-34.9 -21,-52.4c0,-18.2 0.1,-36.4 0,-54.7c-0.1,-42.4 -0.2,-84.9 0,-127.4l0,0Z" style="fill:#dc4b3e;fill-rule:nonzero;stroke:#dd4b39;stroke-width:0.09px;"/>
  <path d="M127.812,127.48l128.1,0c0.1,18.3 0,36.5 0,54.7c-7.1,17.2 -14,34.5 -20.8,51.9c-2.2,-1.2 -3.8,-3 -5.5,-4.8l-101.4,-101.4l-0.4,-0.4Z" style="fill:#ff9e0e;fill-rule:nonzero;stroke:#ef851c;stroke-width:0.09px;"/>
  <path d="M383.511,127.88l0.4,-0.3c-0.1,42.6 -0.1,85.3 0,127.9l-55.1,0c-17.2,-7.2 -34.601,-13.8 -51.9,-20.9c9.6,-10 19.5,-19.6 29.2,-29.4c25.801,-25.7 51.4,-51.7 77.4,-77.3l0,0Z" style="fill:#af195a;fill-rule:nonzero;stroke:#7e3794;stroke-width:0.09px;"/>
  <path d="M106.912,148.98c7.2,-6.9 13.9,-14.3 21.3,-21.1l101.4,101.4c1.7,1.8 3.3,3.6 5.5,4.8c-2.3,1.7 -5.2,2.3 -7.8,3.5c-14.801,6 -29.801,11.6 -44.5,18c-18.301,-0.2 -36.601,-0.1 -54.9,-0.1c-42.6,-0.1 -85.2,0.2 -127.8,-0.1c35.5,-35.6 71.2,-71 106.8,-106.4l0,0Z" style="fill:#ffc112;fill-rule:nonzero;stroke:#ffbb1b;stroke-width:0.09px;"/>
  <path d="M127.912,255.48c18.3,0 36.6,-0.1 54.9,0.1c17.3,7.1 34.6,13.8 51.899,20.8c-28.399,28.8 -57.099,57.2 -85.599,85.9c-7.2,6.8 -13.7,14.3 -21.3,20.7c0,-42.5 -0.1,-85 0.1,-127.5Z" style="fill:#17a05e;fill-rule:nonzero;stroke:#1a8763;stroke-width:0.09px;"/>
  <path d="M328.812,255.48l55.1,0c42.5,0.1 85.1,-0.1 127.6,0.1c-27.3,27.7 -55,55.1 -82.399,82.6c-15.2,15.1 -30.2,30.399 -45.4,45.3c-34,-34.4 -68.5,-68.4 -102.6,-102.8c-1.4,-1.5 -2.9,-2.8 -4.601,-3.8c2.9,-1.801 6.101,-2.7 9.2,-4c14.4,-5.8 28.799,-11.4 43.1,-17.4l0,0Z" style="fill:#4587f4;fill-rule:nonzero;stroke:#427fed;stroke-width:0.09px;"/>
  <path d="M234.712,276.38c7.3,17.399 13.9,35 21.2,52.399c-0.1,18.2 0,36.5 -0.1,54.7l0,88c-0.2,13.1 0.3,26.2 -0.2,39.2c-2.101,-1 -3.4,-2.9 -5.101,-4.5c-40.899,-41.099 -81.699,-82.199 -122.699,-123.199c7.6,-6.4 14.1,-13.9 21.3,-20.7c28.5,-28.7 57.2,-57.1 85.6,-85.9Z" style="fill:#8dc44d;fill-rule:nonzero;stroke:#65b045;stroke-width:0.09px;"/>
  <path d="M276.511,276.88c1.7,1 3.2,2.3 4.601,3.8c34.1,34.4 68.6,68.4 102.6,102.8c-42.7,-0.1 -85.3,0.1 -127.899,0c0.1,-18.2 0,-36.5 0.1,-54.7c6.699,-17.3 13.899,-34.5 20.598,-51.9l0,0Z" style="fill:#3569d6;fill-rule:nonzero;stroke:#43459d;stroke-width:0.09px;"/>
</svg>
