<svg width="100%" height="100%" viewBox="0 0 500 500" version="1.1"
  xmlns="http://www.w3.org/2000/svg">
  <path d="M405.365,303.996c0,20.375 -11.207,30.563 -31.582,31.582l-248.584,0c-20.376,0 -31.583,-10.188 -31.583,-31.582c0,-20.376 11.207,-30.564 31.583,-31.583l249.602,0c20.376,1.019 30.564,11.207 30.564,31.583Zm-30.564,46.864l-249.602,0c-20.376,0 -31.583,10.188 -31.583,31.582c0,20.376 11.207,30.564 31.583,31.583l249.602,0c20.376,0 31.583,-10.188 31.583,-31.583c-1.019,-21.394 -11.207,-31.582 -31.583,-31.582Zm77.428,-172.175c-20.376,0 -31.582,10.188 -31.582,30.563l0,172.175c0,20.376 11.206,30.564 31.582,31.583c30.564,-1.019 46.864,-31.583 46.864,-93.729l0,-77.427c0,-41.771 -16.3,-62.146 -46.864,-63.165Zm-404.458,0c-30.564,1.019 -46.864,21.394 -46.864,63.165l0,77.427c0,62.146 16.3,92.71 46.864,93.729c20.376,0 31.582,-10.188 31.582,-31.583l0,-171.156c-1.019,-20.375 -11.206,-30.563 -31.582,-31.582Zm404.458,-15.282c0,-51.958 -27.507,-76.409 -77.428,-77.428l-249.602,0c-50.94,1.019 -77.428,26.489 -77.428,77.428c30.563,0 46.864,16.301 46.864,46.864c0,30.564 16.301,46.864 46.864,46.864l218.021,0c30.563,0 46.864,-16.3 46.864,-46.864c-1.019,-31.582 16.3,-45.845 45.845,-46.864Z" style="fill:#e42528;fill-rule:nonzero;"/>
</svg>
