
<svg
  xmlns="http://www.w3.org/2000/svg" viewBox="0 0 236 235">
  <g>
    <path d="M199.52,0l-164.032,0c-19.6,0 -35.488,15.888 -35.488,35.487l0,164.015c0,19.599 15.888,35.486 35.488,35.486l164.032,0c19.6,0 35.488,-15.888 35.488,-35.486l0,-164.014c0,-19.599 -15.889,-35.488 -35.488,-35.488l0,0Z" style="fill:#f57d00;fill-rule:nonzero;"/>
    <g>
      <path d="M89.47,60.053l34.103,-0.525c15.616,0.432 24.296,11.501 24.134,24.13c1.514,14.923 -2.688,31.821 -26.232,31.475l-33.578,0c-14.805,0.143 -26.626,-8.558 -25.708,-25.704c-0.734,-14.206 3.957,-29.581 27.281,-29.376l0,0Zm55.088,115.405l-52.464,0c-21.862,0.28 -32.393,-9.687 -30.955,-32.523c0.103,-20.528 12.011,-26.39 29.905,-26.753l51.941,0c35.317,-0.943 31.46,-1.285 32.004,27.277c-0.222,20.766 -11.642,31.84 -30.431,31.999Z" style="fill:#fff;fill-rule:nonzero;"/>
      <path d="M124.252,44.542l0.264,0.009l0.263,0.011l0.262,0.012l0.263,0.014l0.262,0.015l0.261,0.017l0.262,0.018l0.261,0.019l0.26,0.021l0.26,0.022l0.26,0.024l0.259,0.025l0.259,0.027l0.258,0.028l0.258,0.029l0.257,0.031l0.257,0.032l0.256,0.034l0.257,0.035l0.255,0.037l0.255,0.038l0.255,0.039l0.254,0.041l0.254,0.043l0.253,0.044l0.252,0.045l0.252,0.047l0.252,0.048l0.251,0.049l0.25,0.051l0.25,0.053l0.249,0.054l0.249,0.055l0.248,0.057l0.248,0.058l0.247,0.059l0.247,0.061l0.246,0.063l0.245,0.064l0.245,0.065l0.243,0.067l0.244,0.068l0.243,0.07l0.242,0.071l0.242,0.072l0.24,0.074l0.241,0.075l0.24,0.077l0.238,0.078l0.239,0.08l0.237,0.081l0.237,0.082l0.236,0.084l0.235,0.085l0.235,0.086l0.234,0.088l0.233,0.09l0.233,0.091l0.232,0.092l0.23,0.093l0.23,0.095l0.23,0.096l0.229,0.098l0.228,0.099l0.226,0.1l0.227,0.102l0.225,0.103l0.224,0.105l0.224,0.106l0.223,0.107l0.222,0.108l0.221,0.11l0.22,0.111l0.22,0.113l0.218,0.114l0.218,0.115l0.217,0.116l0.216,0.118l0.215,0.119l0.213,0.12l0.213,0.122l0.213,0.123l0.211,0.124l0.21,0.126l0.209,0.126l0.208,0.128l0.208,0.13l0.206,0.13l0.205,0.132l0.205,0.133l0.203,0.134l0.202,0.135l0.201,0.137l0.2,0.138l0.199,0.139l0.199,0.14l0.197,0.142l0.196,0.142l0.195,0.144l0.194,0.145l0.193,0.146l0.382,0.296l0.189,0.149l0.189,0.151l0.187,0.152l0.186,0.153l0.185,0.154l0.184,0.155l0.183,0.156l0.182,0.157l0.18,0.159l0.179,0.159l0.179,0.161l0.177,0.161l0.35,0.326l0.174,0.165l0.172,0.165l0.171,0.167l0.17,0.168l0.169,0.169l0.168,0.169l0.166,0.17l0.165,0.172l0.164,0.172l0.163,0.174l0.161,0.174l0.16,0.175l0.16,0.177l0.314,0.354l0.155,0.179l0.154,0.18l0.153,0.181l0.151,0.181l0.151,0.183l0.148,0.183l0.148,0.184l0.147,0.185l0.145,0.185l0.144,0.187l0.143,0.187l0.141,0.188l0.14,0.189l0.139,0.19l0.138,0.19l0.136,0.191l0.135,0.192l0.134,0.193l0.132,0.194l0.131,0.193l0.13,0.195l0.129,0.196l0.127,0.196l0.126,0.197l0.248,0.396l0.122,0.199l0.24,0.4l0.118,0.2l0.117,0.202l0.115,0.202l0.114,0.203l0.113,0.203l0.112,0.204l0.11,0.205l0.109,0.205l0.107,0.205l0.107,0.207l0.105,0.207l0.104,0.207l0.102,0.208l0.101,0.208l0.099,0.209l0.099,0.21l0.097,0.21l0.096,0.21l0.094,0.211l0.093,0.212l0.092,0.212l0.091,0.213l0.089,0.212l0.088,0.213l0.086,0.214l0.086,0.215l0.166,0.43l0.081,0.215l0.08,0.216l0.079,0.216l0.077,0.217l0.076,0.218l0.075,0.217l0.074,0.218l0.072,0.218l0.14,0.438l0.068,0.219l0.067,0.22l0.066,0.221l0.064,0.22l0.063,0.221l0.062,0.221l0.06,0.221l0.059,0.222l0.058,0.222l0.056,0.222l0.055,0.222l0.054,0.223l0.053,0.224l0.051,0.223l0.05,0.224l0.049,0.224l0.047,0.224l0.046,0.224l0.045,0.225l0.086,0.45l0.04,0.226l0.04,0.225l0.076,0.452l0.035,0.226l0.035,0.227l0.033,0.226l0.032,0.227l0.031,0.227l0.029,0.227l0.028,0.228l0.027,0.227l0.05,0.456l0.023,0.227l0.021,0.229l0.021,0.228l0.019,0.228l0.018,0.229l0.016,0.228l0.016,0.229l0.014,0.229l0.013,0.229l0.011,0.228l0.01,0.23l0.009,0.23l0.008,0.228l0.007,0.23l0.005,0.229l0.004,0.23l0.003,0.225l0.006,0.071l0,0.025l0.001,0.007l0.038,0.447l0.036,0.447l0.032,0.45l0.03,0.452l0.027,0.453l0.024,0.455l0.021,0.457l0.018,0.459l0.015,0.46l0.012,0.462l0.008,0.464l0.005,0.465l0.001,0.467l-0.002,0.468l-0.006,0.471l-0.01,0.471l-0.013,0.474l-0.017,0.474l-0.021,0.477l-0.024,0.462l-0.015,0.255l-0.015,0.24l-0.017,0.239l-0.017,0.241l-0.018,0.242l-0.02,0.241l-0.02,0.241l-0.022,0.242l-0.023,0.242l-0.024,0.243l-0.025,0.243l-0.026,0.243l-0.027,0.243l-0.029,0.245l-0.03,0.244l-0.031,0.244l-0.032,0.245l-0.034,0.246l-0.034,0.245l-0.036,0.246l-0.038,0.246l-0.039,0.246l-0.04,0.247l-0.041,0.247l-0.042,0.247l-0.045,0.248l-0.045,0.248l-0.047,0.247l-0.048,0.249l-0.05,0.248l-0.051,0.249l-0.052,0.249l-0.054,0.249l-0.056,0.25l-0.057,0.249l-0.025,0.106l0.38,0.014l0.292,0.012l0.279,0.012l0.278,0.014l0.277,0.014l0.277,0.015l0.276,0.017l0.275,0.017l0.275,0.018l0.274,0.02l0.274,0.021l0.274,0.022l0.274,0.023l0.273,0.025l0.274,0.026l0.273,0.027l0.273,0.029l0.274,0.03l0.548,0.066l0.274,0.036l0.276,0.037l0.275,0.039l0.276,0.041l0.277,0.044l0.278,0.045l0.279,0.048l0.279,0.049l0.281,0.053l0.282,0.055l0.283,0.057l0.284,0.061l0.285,0.063l0.287,0.066l0.287,0.07l0.29,0.072l0.291,0.076l0.292,0.08l0.295,0.083l0.295,0.087l0.297,0.092l0.299,0.095l0.3,0.1l0.302,0.104l0.303,0.109l0.305,0.113l0.307,0.119l0.307,0.123l0.309,0.13l0.31,0.134l0.31,0.14l0.312,0.146l0.312,0.152l0.314,0.158l0.313,0.164l0.313,0.17l0.314,0.176l0.313,0.183l0.312,0.19l0.312,0.196l0.31,0.203l0.309,0.209l0.308,0.216l0.305,0.222l0.303,0.229l0.3,0.235l0.297,0.241l0.294,0.248l0.29,0.253l0.286,0.259l0.282,0.265l0.278,0.271l0.271,0.274l0.268,0.281l0.262,0.285l0.256,0.288l0.25,0.293l0.244,0.296l0.238,0.3l0.232,0.302l0.225,0.305l0.218,0.308l0.212,0.309l0.205,0.31l0.199,0.312l0.192,0.313l0.185,0.314l0.178,0.313l0.171,0.314l0.166,0.313l0.159,0.313l0.152,0.313l0.146,0.31l0.141,0.311l0.134,0.309l0.129,0.307l0.123,0.306l0.117,0.303l0.113,0.303l0.107,0.3l0.102,0.298l0.098,0.296l0.093,0.294l0.089,0.292l0.084,0.29l0.081,0.287l0.076,0.285l0.073,0.283l0.069,0.281l0.066,0.278l0.063,0.277l0.059,0.274l0.057,0.272l0.054,0.271l0.051,0.269l0.048,0.265l0.046,0.265l0.043,0.263l0.042,0.262l0.039,0.259l0.037,0.258l0.035,0.257l0.034,0.255l0.031,0.254l0.03,0.254l0.028,0.251l0.027,0.25l0.026,0.25l0.024,0.249l0.022,0.247l0.021,0.247l0.021,0.246l0.019,0.246l0.018,0.245l0.018,0.259l0.03,0.473l0.027,0.487l0.024,0.487l0.021,0.486l0.019,0.488l0.016,0.488l0.014,0.489l0.012,0.492l0.01,0.494l0.009,0.496l0.008,0.5l0.006,0.503l0.005,0.508l0.005,0.515l0.007,1.03l0.005,1.058l0.005,1.08l0.005,1.106l0.007,1.132l0.008,1.167l0.006,0.588l0.007,0.6l0.007,0.608l0.009,0.617l0.01,0.625l0.016,0.88l-0.007,0.506l-0.005,0.307l-0.007,0.305l-0.007,0.306l-0.01,0.305l-0.01,0.304l-0.012,0.304l-0.013,0.303l-0.014,0.302l-0.016,0.303l-0.017,0.302l-0.019,0.301l-0.02,0.301l-0.021,0.3l-0.022,0.299l-0.024,0.299l-0.026,0.299l-0.026,0.298l-0.028,0.298l-0.029,0.297l-0.031,0.296l-0.032,0.297l-0.034,0.295l-0.035,0.295l-0.036,0.295l-0.038,0.293l-0.039,0.294l-0.04,0.293l-0.042,0.292l-0.044,0.292l-0.045,0.291l-0.046,0.291l-0.047,0.29l-0.05,0.29l-0.05,0.289l-0.052,0.288l-0.054,0.289l-0.055,0.287l-0.056,0.287l-0.058,0.286l-0.059,0.286l-0.061,0.285l-0.062,0.285l-0.064,0.284l-0.065,0.283l-0.067,0.283l-0.069,0.283l-0.069,0.281l-0.072,0.282l-0.073,0.28l-0.074,0.28l-0.076,0.279l-0.077,0.279l-0.079,0.278l-0.081,0.277l-0.082,0.277l-0.084,0.276l-0.085,0.276l-0.087,0.274l-0.088,0.274l-0.09,0.274l-0.092,0.273l-0.093,0.272l-0.095,0.272l-0.096,0.27l-0.098,0.27l-0.099,0.27l-0.101,0.268l-0.103,0.268l-0.104,0.267l-0.106,0.266l-0.108,0.266l-0.109,0.265l-0.111,0.264l-0.112,0.263l-0.114,0.263l-0.116,0.261l-0.117,0.261l-0.119,0.26l-0.121,0.259l-0.122,0.258l-0.124,0.258l-0.126,0.257l-0.127,0.255l-0.129,0.255l-0.13,0.254l-0.132,0.253l-0.134,0.252l-0.135,0.251l-0.138,0.25l-0.138,0.249l-0.141,0.249l-0.142,0.247l-0.143,0.246l-0.146,0.245l-0.147,0.244l-0.148,0.243l-0.151,0.243l-0.152,0.241l-0.153,0.24l-0.155,0.239l-0.157,0.237l-0.158,0.237l-0.16,0.235l-0.162,0.235l-0.163,0.233l-0.165,0.232l-0.167,0.231l-0.168,0.229l-0.169,0.229l-0.172,0.227l-0.173,0.226l-0.174,0.224l-0.176,0.224l-0.178,0.222l-0.179,0.221l-0.18,0.22l-0.183,0.218l-0.183,0.217l-0.186,0.215l-0.186,0.215l-0.189,0.212l-0.189,0.212l-0.192,0.21l-0.193,0.209l-0.194,0.207l-0.196,0.206l-0.197,0.204l-0.198,0.203l-0.2,0.202l-0.202,0.199l-0.202,0.199l-0.205,0.197l-0.206,0.196l-0.206,0.193l-0.209,0.193l-0.21,0.191l-0.211,0.189l-0.212,0.188l-0.214,0.186l-0.215,0.185l-0.216,0.183l-0.217,0.182l-0.219,0.179l-0.22,0.179l-0.222,0.177l-0.222,0.174l-0.223,0.174l-0.225,0.172l-0.227,0.17l-0.227,0.168l-0.228,0.167l-0.229,0.165l-0.231,0.164l-0.232,0.162l-0.233,0.16l-0.233,0.158l-0.235,0.157l-0.236,0.155l-0.237,0.153l-0.238,0.152l-0.239,0.15l-0.24,0.149l-0.241,0.146l-0.242,0.145l-0.243,0.143l-0.244,0.142l-0.245,0.14l-0.245,0.137l-0.246,0.137l-0.248,0.134l-0.248,0.133l-0.249,0.132l-0.25,0.129l-0.251,0.128l-0.251,0.126l-0.253,0.124l-0.253,0.123l-0.254,0.121l-0.255,0.119l-0.255,0.117l-0.256,0.116l-0.257,0.114l-0.258,0.113l-0.258,0.11l-0.259,0.109l-0.259,0.108l-0.261,0.105l-0.261,0.104l-0.261,0.102l-0.263,0.101l-0.263,0.099l-0.263,0.097l-0.264,0.096l-0.265,0.094l-0.264,0.092l-0.266,0.09l-0.267,0.089l-0.267,0.088l-0.267,0.086l-0.268,0.083l-0.268,0.083l-0.27,0.081l-0.269,0.079l-0.27,0.077l-0.27,0.076l-0.271,0.075l-0.272,0.072l-0.272,0.072l-0.272,0.069l-0.273,0.068l-0.273,0.067l-0.274,0.065l-0.274,0.063l-0.275,0.062l-0.274,0.06l-0.276,0.058l-0.276,0.058l-0.276,0.055l-0.277,0.054l-0.277,0.053l-0.277,0.051l-0.277,0.049l-0.279,0.048l-0.279,0.047l-0.278,0.045l-0.279,0.043l-0.28,0.043l-0.28,0.04l-0.28,0.039l-0.281,0.038l-0.281,0.036l-0.281,0.035l-0.282,0.033l-0.282,0.032l-0.282,0.031l-0.283,0.029l-0.283,0.028l-0.283,0.026l-0.284,0.025l-0.284,0.023l-0.284,0.022l-0.285,0.021l-0.285,0.019l-0.285,0.018l-0.285,0.016l-0.286,0.016l-0.286,0.013l-0.287,0.013l-0.287,0.011l-0.286,0.01l-0.288,0.008l-0.288,0.007l-0.287,0.006l-0.288,0.004l-0.335,0.004l-52.463,0l-0.2,0.002l-0.31,0.002l-0.309,0.002l-0.308,0l-0.308,-0.002l-0.307,-0.002l-0.307,-0.003l-0.307,-0.005l-0.306,-0.006l-0.305,-0.007l-0.305,-0.008l-0.304,-0.01l-0.304,-0.01l-0.304,-0.012l-0.303,-0.013l-0.303,-0.015l-0.301,-0.015l-0.302,-0.017l-0.301,-0.018l-0.3,-0.019l-0.301,-0.021l-0.299,-0.022l-0.299,-0.023l-0.299,-0.025l-0.299,-0.026l-0.297,-0.027l-0.298,-0.028l-0.297,-0.03l-0.296,-0.031l-0.297,-0.033l-0.295,-0.034l-0.295,-0.035l-0.295,-0.037l-0.295,-0.038l-0.293,-0.039l-0.294,-0.041l-0.293,-0.043l-0.292,-0.044l-0.293,-0.045l-0.292,-0.047l-0.291,-0.048l-0.291,-0.05l-0.291,-0.051l-0.289,-0.053l-0.29,-0.055l-0.289,-0.056l-0.29,-0.057l-0.288,-0.059l-0.287,-0.061l-0.288,-0.062l-0.287,-0.064l-0.286,-0.065l-0.287,-0.068l-0.286,-0.068l-0.285,-0.071l-0.285,-0.072l-0.284,-0.074l-0.284,-0.076l-0.284,-0.077l-0.283,-0.079l-0.282,-0.081l-0.282,-0.082l-0.282,-0.085l-0.281,-0.086l-0.28,-0.087l-0.28,-0.09l-0.28,-0.092l-0.278,-0.093l-0.279,-0.095l-0.278,-0.098l-0.277,-0.099l-0.277,-0.101l-0.276,-0.102l-0.275,-0.105l-0.275,-0.107l-0.275,-0.109l-0.273,-0.11l-0.273,-0.113l-0.272,-0.114l-0.272,-0.117l-0.271,-0.119l-0.27,-0.12l-0.27,-0.123l-0.268,-0.125l-0.268,-0.126l-0.267,-0.129l-0.267,-0.131l-0.265,-0.133l-0.265,-0.135l-0.264,-0.137l-0.263,-0.14l-0.262,-0.141l-0.261,-0.143l-0.26,-0.146l-0.259,-0.148l-0.258,-0.15l-0.258,-0.152l-0.256,-0.154l-0.255,-0.156l-0.254,-0.158l-0.253,-0.161l-0.252,-0.163l-0.25,-0.164l-0.249,-0.167l-0.249,-0.17l-0.246,-0.171l-0.246,-0.173l-0.245,-0.176l-0.242,-0.177l-0.242,-0.18l-0.24,-0.182l-0.239,-0.184l-0.238,-0.186l-0.236,-0.188l-0.234,-0.191l-0.233,-0.192l-0.232,-0.195l-0.23,-0.196l-0.228,-0.199l-0.227,-0.2l-0.225,-0.203l-0.223,-0.204l-0.222,-0.207l-0.22,-0.209l-0.218,-0.21l-0.217,-0.212l-0.215,-0.215l-0.213,-0.216l-0.211,-0.218l-0.209,-0.22l-0.208,-0.222l-0.205,-0.223l-0.204,-0.226l-0.201,-0.227l-0.2,-0.229l-0.198,-0.231l-0.195,-0.232l-0.194,-0.234l-0.192,-0.236l-0.189,-0.237l-0.188,-0.239l-0.186,-0.24l-0.183,-0.242l-0.181,-0.244l-0.18,-0.245l-0.177,-0.247l-0.175,-0.248l-0.173,-0.249l-0.171,-0.251l-0.168,-0.252l-0.167,-0.254l-0.164,-0.255l-0.162,-0.256l-0.16,-0.257l-0.157,-0.259l-0.156,-0.26l-0.153,-0.261l-0.152,-0.262l-0.149,-0.264l-0.146,-0.264l-0.145,-0.266l-0.142,-0.267l-0.141,-0.267l-0.138,-0.269l-0.136,-0.27l-0.133,-0.271l-0.132,-0.271l-0.129,-0.273l-0.127,-0.274l-0.125,-0.274l-0.123,-0.276l-0.121,-0.276l-0.119,-0.277l-0.116,-0.278l-0.115,-0.278l-0.112,-0.28l-0.11,-0.28l-0.108,-0.281l-0.106,-0.282l-0.104,-0.282l-0.102,-0.283l-0.1,-0.284l-0.097,-0.285l-0.096,-0.285l-0.094,-0.285l-0.091,-0.287l-0.09,-0.287l-0.088,-0.288l-0.086,-0.288l-0.083,-0.289l-0.082,-0.289l-0.08,-0.29l-0.078,-0.291l-0.076,-0.291l-0.075,-0.292l-0.072,-0.292l-0.07,-0.293l-0.069,-0.293l-0.067,-0.294l-0.065,-0.294l-0.063,-0.295l-0.061,-0.295l-0.06,-0.296l-0.058,-0.296l-0.056,-0.297l-0.054,-0.298l-0.052,-0.298l-0.051,-0.298l-0.049,-0.299l-0.048,-0.299l-0.045,-0.3l-0.044,-0.3l-0.043,-0.301l-0.041,-0.301l-0.039,-0.302l-0.037,-0.302l-0.036,-0.303l-0.034,-0.303l-0.033,-0.304l-0.031,-0.304l-0.029,-0.305l-0.028,-0.305l-0.027,-0.306l-0.024,-0.306l-0.024,-0.307l-0.022,-0.307l-0.02,-0.307l-0.019,-0.309l-0.017,-0.308l-0.016,-0.31l-0.014,-0.309l-0.013,-0.31l-0.011,-0.311l-0.01,-0.312l-0.009,-0.311l-0.007,-0.313l-0.006,-0.313l-0.004,-0.313l-0.003,-0.314l-0.002,-0.315l0,-0.315l0.002,-0.316l0.002,-0.316l0.004,-0.317l0.006,-0.318l0.006,-0.318l0.008,-0.318l0.01,-0.32l0.01,-0.319l0.012,-0.321l0.014,-0.321l0.014,-0.322l0.016,-0.322l0.017,-0.323l0.012,-0.209l0,-0.008l0.001,-0.012l0.002,-0.167l0.005,-0.306l0.007,-0.306l0.007,-0.305l0.01,-0.305l0.01,-0.304l0.013,-0.303l0.013,-0.302l0.015,-0.302l0.017,-0.301l0.018,-0.301l0.019,-0.3l0.021,-0.299l0.023,-0.298l0.024,-0.298l0.025,-0.297l0.027,-0.297l0.029,-0.296l0.03,-0.296l0.031,-0.294l0.034,-0.295l0.034,-0.293l0.037,-0.293l0.038,-0.292l0.039,-0.292l0.041,-0.291l0.043,-0.291l0.044,-0.29l0.046,-0.289l0.048,-0.289l0.049,-0.288l0.051,-0.287l0.053,-0.287l0.054,-0.286l0.056,-0.286l0.058,-0.285l0.06,-0.285l0.061,-0.283l0.063,-0.283l0.065,-0.283l0.066,-0.282l0.068,-0.281l0.07,-0.281l0.072,-0.28l0.074,-0.279l0.075,-0.279l0.078,-0.278l0.079,-0.277l0.081,-0.277l0.083,-0.276l0.084,-0.275l0.087,-0.274l0.089,-0.274l0.09,-0.273l0.092,-0.273l0.094,-0.271l0.097,-0.271l0.098,-0.27l0.099,-0.269l0.102,-0.268l0.104,-0.268l0.106,-0.266l0.108,-0.266l0.11,-0.265l0.111,-0.264l0.114,-0.263l0.116,-0.262l0.117,-0.261l0.12,-0.26l0.121,-0.26l0.124,-0.258l0.125,-0.257l0.128,-0.257l0.129,-0.255l0.131,-0.253l0.134,-0.253l0.136,-0.252l0.137,-0.251l0.139,-0.249l0.141,-0.248l0.144,-0.247l0.145,-0.246l0.147,-0.244l0.149,-0.243l0.151,-0.242l0.153,-0.241l0.155,-0.239l0.157,-0.238l0.158,-0.236l0.161,-0.235l0.162,-0.233l0.164,-0.232l0.166,-0.231l0.168,-0.229l0.17,-0.227l0.171,-0.226l0.173,-0.225l0.175,-0.222l0.177,-0.221l0.178,-0.22l0.069,-0.083l-0.072,-0.094l-0.159,-0.209l-0.157,-0.21l-0.156,-0.212l-0.154,-0.212l-0.152,-0.214l-0.152,-0.215l-0.149,-0.216l-0.149,-0.218l-0.146,-0.219l-0.146,-0.221l-0.143,-0.221l-0.142,-0.222l-0.141,-0.224l-0.139,-0.225l-0.137,-0.227l-0.136,-0.227l-0.134,-0.228l-0.133,-0.231l-0.131,-0.23l-0.129,-0.232l-0.128,-0.233l-0.126,-0.234l-0.124,-0.235l-0.123,-0.237l-0.121,-0.237l-0.12,-0.238l-0.117,-0.24l-0.116,-0.24l-0.115,-0.241l-0.112,-0.243l-0.111,-0.243l-0.11,-0.245l-0.107,-0.245l-0.106,-0.246l-0.104,-0.247l-0.103,-0.248l-0.1,-0.249l-0.099,-0.25l-0.097,-0.25l-0.096,-0.252l-0.093,-0.252l-0.092,-0.253l-0.09,-0.254l-0.089,-0.254l-0.087,-0.256l-0.084,-0.256l-0.083,-0.257l-0.082,-0.258l-0.079,-0.258l-0.078,-0.26l-0.076,-0.26l-0.075,-0.26l-0.072,-0.261l-0.071,-0.262l-0.069,-0.263l-0.067,-0.263l-0.066,-0.264l-0.063,-0.264l-0.062,-0.266l-0.061,-0.265l-0.058,-0.267l-0.057,-0.267l-0.055,-0.267l-0.053,-0.268l-0.051,-0.269l-0.05,-0.269l-0.048,-0.269l-0.046,-0.271l-0.044,-0.27l-0.043,-0.271l-0.041,-0.272l-0.039,-0.272l-0.037,-0.273l-0.036,-0.273l-0.034,-0.273l-0.032,-0.274l-0.031,-0.275l-0.029,-0.275l-0.027,-0.275l-0.025,-0.276l-0.024,-0.276l-0.022,-0.277l-0.02,-0.276l-0.019,-0.278l-0.017,-0.278l-0.015,-0.278l-0.014,-0.278l-0.012,-0.279l-0.01,-0.28l-0.008,-0.279l-0.007,-0.28l-0.005,-0.281l-0.004,-0.281l-0.002,-0.281l0,-0.281l0.001,-0.282l0.003,-0.282l0.005,-0.282l0.006,-0.283l0.008,-0.283l0.01,-0.284l0.001,-0.02l-0.002,-0.046l0.001,-0.024l-0.002,-0.036l-0.015,-0.428l-0.013,-0.429l-0.01,-0.432l-0.008,-0.433l-0.004,-0.435l-0.002,-0.436l0.001,-0.438l0.005,-0.44l0.007,-0.442l0.011,-0.443l0.014,-0.445l0.018,-0.446l0.021,-0.449l0.024,-0.449l0.028,-0.452l0.032,-0.452l0.035,-0.454l0.04,-0.456l0.043,-0.458l0.048,-0.458l0.051,-0.46l0.056,-0.462l0.058,-0.446l0.034,-0.248l0.033,-0.232l0.034,-0.233l0.035,-0.233l0.037,-0.233l0.037,-0.234l0.039,-0.233l0.04,-0.234l0.041,-0.235l0.043,-0.235l0.043,-0.235l0.045,-0.235l0.046,-0.236l0.048,-0.236l0.049,-0.236l0.05,-0.236l0.051,-0.237l0.053,-0.237l0.054,-0.237l0.056,-0.237l0.057,-0.238l0.058,-0.238l0.06,-0.238l0.061,-0.238l0.063,-0.238l0.064,-0.239l0.066,-0.239l0.067,-0.239l0.069,-0.239l0.07,-0.239l0.072,-0.24l0.073,-0.239l0.075,-0.24l0.077,-0.24l0.078,-0.24l0.08,-0.24l0.081,-0.24l0.083,-0.24l0.085,-0.24l0.087,-0.241l0.088,-0.24l0.09,-0.241l0.092,-0.24l0.093,-0.24l0.096,-0.24l0.097,-0.241l0.099,-0.24l0.1,-0.24l0.103,-0.24l0.104,-0.24l0.107,-0.24l0.108,-0.24l0.11,-0.239l0.112,-0.24l0.114,-0.239l0.116,-0.239l0.118,-0.238l0.12,-0.239l0.122,-0.238l0.124,-0.238l0.126,-0.237l0.127,-0.237l0.13,-0.237l0.133,-0.237l0.134,-0.236l0.136,-0.236l0.138,-0.235l0.141,-0.235l0.142,-0.234l0.144,-0.233l0.147,-0.233l0.149,-0.233l0.151,-0.232l0.153,-0.231l0.156,-0.231l0.157,-0.23l0.16,-0.229l0.162,-0.228l0.164,-0.228l0.166,-0.226l0.168,-0.227l0.171,-0.225l0.172,-0.224l0.175,-0.223l0.178,-0.223l0.179,-0.221l0.181,-0.22l0.184,-0.22l0.186,-0.218l0.188,-0.217l0.19,-0.216l0.193,-0.215l0.194,-0.213l0.197,-0.213l0.199,-0.211l0.201,-0.21l0.203,-0.208l0.206,-0.208l0.207,-0.206l0.21,-0.204l0.211,-0.203l0.214,-0.201l0.216,-0.2l0.218,-0.199l0.22,-0.197l0.222,-0.195l0.224,-0.194l0.226,-0.193l0.228,-0.19l0.23,-0.189l0.232,-0.187l0.234,-0.186l0.235,-0.184l0.238,-0.182l0.24,-0.18l0.241,-0.178l0.244,-0.177l0.245,-0.175l0.247,-0.172l0.249,-0.171l0.25,-0.169l0.253,-0.168l0.254,-0.165l0.255,-0.163l0.258,-0.161l0.259,-0.16l0.261,-0.157l0.262,-0.155l0.264,-0.153l0.266,-0.152l0.267,-0.149l0.269,-0.147l0.27,-0.145l0.271,-0.143l0.274,-0.141l0.275,-0.139l0.276,-0.136l0.277,-0.135l0.279,-0.132l0.28,-0.131l0.282,-0.128l0.283,-0.126l0.285,-0.124l0.285,-0.122l0.287,-0.12l0.288,-0.117l0.29,-0.116l0.29,-0.113l0.292,-0.111l0.294,-0.109l0.294,-0.107l0.296,-0.105l0.296,-0.103l0.298,-0.1l0.299,-0.098l0.3,-0.097l0.301,-0.094l0.303,-0.092l0.303,-0.09l0.304,-0.088l0.306,-0.086l0.307,-0.083l0.307,-0.082l0.309,-0.079l0.309,-0.078l0.311,-0.075l0.312,-0.073l0.313,-0.071l0.313,-0.07l0.315,-0.067l0.316,-0.065l0.317,-0.063l0.317,-0.061l0.319,-0.059l0.32,-0.057l0.32,-0.055l0.322,-0.053l0.323,-0.051l0.323,-0.049l0.324,-0.047l0.326,-0.045l0.326,-0.043l0.328,-0.041l0.328,-0.039l0.329,-0.037l0.331,-0.036l0.331,-0.033l0.332,-0.031l0.333,-0.03l0.334,-0.028l0.335,-0.025l0.336,-0.024l0.338,-0.022l0.338,-0.02l0.339,-0.018l0.34,-0.017l0.341,-0.014l0.342,-0.013l0.343,-0.01l0.344,-0.009l0.345,-0.007l0.346,-0.005l0.347,-0.004l0.348,-0.001l0.349,0l0.15,0.001l34.284,-0.528l0.567,0.018Zm32.624,86.35l-0.526,0.002l-0.541,0.004l-0.558,0.005l-0.573,0.008l-0.589,0.008l-0.605,0.01l-0.62,0.011l-0.636,0.013l-0.651,0.014l-0.664,0.014l-1.385,0.034l-1.442,0.036l-1.505,0.04l-3.395,0.091l-51.971,0l-0.21,0.005l-0.34,0.009l-0.336,0.011l-0.332,0.013l-0.328,0.014l-0.324,0.016l-0.319,0.018l-0.316,0.019l-0.311,0.02l-0.306,0.023l-0.303,0.023l-0.298,0.026l-0.293,0.027l-0.29,0.028l-0.284,0.03l-0.28,0.031l-0.276,0.033l-0.27,0.034l-0.266,0.035l-0.261,0.037l-0.256,0.039l-0.252,0.039l-0.262,0.043l-0.106,0.019l-0.121,0.021l-0.118,0.021l-0.118,0.022l-0.117,0.022l-0.115,0.022l-0.114,0.023l-0.112,0.022l-0.112,0.024l-0.11,0.023l-0.109,0.023l-0.108,0.024l-0.107,0.024l-0.104,0.024l-0.104,0.025l-0.103,0.025l-0.101,0.024l-0.1,0.026l-0.098,0.025l-0.098,0.025l-0.096,0.026l-0.095,0.026l-0.094,0.026l-0.091,0.026l-0.091,0.026l-0.09,0.027l-0.088,0.026l-0.087,0.026l-0.086,0.027l-0.084,0.027l-0.084,0.027l-0.081,0.027l-0.081,0.027l-0.08,0.027l-0.077,0.027l-0.077,0.028l-0.075,0.027l-0.074,0.027l-0.073,0.028l-0.072,0.027l-0.071,0.027l-0.069,0.028l-0.068,0.027l-0.066,0.027l-0.065,0.028l-0.065,0.027l-0.063,0.027l-0.062,0.028l-0.061,0.027l-0.059,0.026l-0.058,0.027l-0.057,0.027l-0.056,0.027l-0.055,0.027l-0.053,0.026l-0.053,0.027l-0.052,0.026l-0.049,0.026l-0.05,0.027l-0.048,0.026l-0.047,0.025l-0.046,0.026l-0.045,0.025l-0.044,0.026l-0.044,0.025l-0.042,0.025l-0.041,0.025l-0.04,0.025l-0.04,0.025l-0.038,0.024l-0.037,0.024l-0.037,0.025l-0.036,0.023l-0.035,0.024l-0.034,0.024l-0.034,0.023l-0.032,0.023l-0.032,0.024l-0.032,0.023l-0.03,0.023l-0.03,0.022l-0.029,0.023l-0.029,0.023l-0.028,0.022l-0.028,0.022l-0.027,0.023l-0.026,0.022l-0.026,0.022l-0.025,0.022l-0.025,0.022l-0.025,0.022l-0.024,0.022l-0.023,0.022l-0.024,0.022l-0.023,0.022l-0.022,0.022l-0.023,0.022l-0.022,0.022l-0.022,0.022l-0.021,0.023l-0.022,0.022l-0.021,0.023l-0.021,0.023l-0.021,0.023l-0.02,0.024l-0.021,0.023l-0.02,0.024l-0.021,0.024l-0.02,0.025l-0.02,0.025l-0.021,0.025l-0.02,0.026l-0.02,0.026l-0.02,0.027l-0.02,0.027l-0.021,0.028l-0.02,0.028l-0.02,0.028l-0.021,0.03l-0.02,0.03l-0.021,0.031l-0.02,0.031l-0.021,0.032l-0.021,0.033l-0.021,0.034l-0.021,0.034l-0.022,0.035l-0.021,0.037l-0.022,0.037l-0.021,0.038l-0.022,0.039l-0.022,0.04l-0.022,0.041l-0.022,0.041l-0.022,0.044l-0.023,0.044l-0.022,0.045l-0.023,0.047l-0.023,0.047l-0.023,0.049l-0.023,0.05l-0.023,0.052l-0.023,0.053l-0.023,0.053l-0.024,0.056l-0.023,0.056l-0.024,0.058l-0.024,0.06l-0.023,0.061l-0.024,0.062l-0.023,0.064l-0.024,0.065l-0.024,0.067l-0.024,0.068l-0.023,0.07l-0.024,0.072l-0.024,0.073l-0.023,0.074l-0.024,0.077l-0.023,0.078l-0.023,0.079l-0.024,0.082l-0.023,0.083l-0.023,0.084l-0.022,0.087l-0.023,0.088l-0.022,0.09l-0.023,0.091l-0.022,0.094l-0.021,0.095l-0.022,0.097l-0.021,0.099l-0.021,0.1l-0.021,0.103l-0.021,0.104l-0.02,0.106l-0.02,0.108l-0.019,0.11l-0.019,0.111l-0.019,0.114l-0.018,0.115l-0.018,0.118l-0.018,0.119l-0.017,0.121l-0.017,0.123l-0.016,0.125l-0.015,0.127l-0.016,0.129l-0.014,0.131l-0.015,0.132l-0.013,0.135l-0.014,0.136l-0.012,0.139l-0.012,0.141l-0.012,0.142l-0.011,0.144l-0.01,0.146l-0.009,0.149l-0.009,0.15l-0.009,0.152l-0.007,0.154l-0.007,0.156l-0.007,0.158l-0.005,0.16l-0.005,0.162l-0.005,0.164l-0.003,0.166l-0.003,0.168l-0.002,0.17l-0.004,0.608l-0.039,0.64l-0.012,0.208l-0.011,0.207l-0.01,0.205l-0.01,0.203l-0.008,0.201l-0.007,0.199l-0.007,0.198l-0.006,0.196l-0.005,0.194l-0.004,0.193l-0.003,0.191l-0.002,0.189l-0.002,0.187l-0.001,0.185l0,0.184l0.001,0.182l0.002,0.18l0.002,0.179l0.004,0.177l0.008,0.348l0.006,0.171l0.006,0.169l0.007,0.168l0.008,0.166l0.008,0.164l0.009,0.163l0.01,0.16l0.011,0.159l0.011,0.157l0.012,0.156l0.012,0.153l0.013,0.152l0.014,0.15l0.014,0.148l0.015,0.146l0.016,0.144l0.016,0.143l0.016,0.141l0.018,0.139l0.017,0.137l0.019,0.136l0.018,0.133l0.02,0.132l0.02,0.131l0.02,0.128l0.021,0.126l0.021,0.125l0.022,0.123l0.022,0.122l0.022,0.119l0.023,0.118l0.024,0.116l0.023,0.114l0.024,0.112l0.025,0.111l0.025,0.109l0.025,0.108l0.025,0.105l0.026,0.104l0.026,0.102l0.026,0.1l0.027,0.099l0.026,0.097l0.028,0.096l0.027,0.094l0.027,0.092l0.028,0.09l0.028,0.089l0.027,0.088l0.029,0.085l0.028,0.084l0.028,0.083l0.029,0.081l0.028,0.08l0.029,0.078l0.029,0.076l0.029,0.075l0.029,0.074l0.029,0.072l0.029,0.071l0.029,0.069l0.029,0.068l0.029,0.067l0.029,0.065l0.029,0.064l0.058,0.124l0.03,0.06l0.029,0.059l0.058,0.114l0.029,0.055l0.028,0.054l0.058,0.106l0.029,0.051l0.029,0.05l0.029,0.048l0.028,0.048l0.029,0.047l0.029,0.046l0.028,0.046l0.029,0.044l0.028,0.043l0.029,0.043l0.028,0.042l0.029,0.041l0.028,0.041l0.029,0.039l0.028,0.039l0.029,0.039l0.029,0.038l0.028,0.037l0.029,0.036l0.029,0.037l0.087,0.105l0.03,0.034l0.029,0.034l0.03,0.033l0.03,0.034l0.03,0.032l0.03,0.033l0.093,0.096l0.031,0.031l0.065,0.063l0.065,0.061l0.034,0.031l0.034,0.03l0.034,0.031l0.035,0.03l0.036,0.031l0.036,0.03l0.074,0.06l0.038,0.031l0.038,0.03l0.04,0.03l0.04,0.031l0.04,0.03l0.042,0.03l0.042,0.031l0.043,0.03l0.045,0.031l0.044,0.03l0.046,0.031l0.047,0.031l0.048,0.031l0.049,0.031l0.1,0.062l0.052,0.031l0.053,0.031l0.054,0.031l0.055,0.032l0.056,0.031l0.057,0.032l0.059,0.032l0.06,0.031l0.061,0.032l0.062,0.032l0.064,0.031l0.065,0.032l0.066,0.032l0.067,0.032l0.069,0.032l0.07,0.032l0.072,0.032l0.073,0.032l0.074,0.032l0.076,0.032l0.077,0.032l0.079,0.032l0.08,0.031l0.082,0.032l0.083,0.032l0.085,0.031l0.086,0.032l0.088,0.031l0.089,0.031l0.091,0.031l0.092,0.031l0.094,0.031l0.095,0.031l0.098,0.03l0.198,0.06l0.102,0.03l0.104,0.03l0.105,0.029l0.107,0.029l0.109,0.029l0.11,0.029l0.111,0.028l0.114,0.028l0.115,0.028l0.116,0.027l0.119,0.027l0.12,0.027l0.121,0.026l0.123,0.026l0.126,0.026l0.126,0.025l0.128,0.025l0.13,0.024l0.132,0.024l0.133,0.024l0.135,0.023l0.137,0.022l0.138,0.023l0.14,0.021l0.141,0.022l0.144,0.02l0.145,0.021l0.146,0.019l0.298,0.038l0.152,0.018l0.154,0.018l0.154,0.017l0.157,0.016l0.158,0.016l0.16,0.016l0.162,0.014l0.163,0.014l0.164,0.014l0.166,0.013l0.338,0.024l0.172,0.011l0.172,0.01l0.175,0.01l0.176,0.009l0.178,0.008l0.179,0.008l0.181,0.007l0.182,0.007l0.184,0.005l0.186,0.005l0.187,0.005l0.189,0.003l0.19,0.003l0.192,0.002l0.194,0.002l0.195,0.001l0.197,0l0.198,-0.001l0.2,-0.002l0.311,-0.003l52.465,0l0.105,-0.001l0.15,-0.002l0.15,-0.003l0.147,-0.004l0.147,-0.004l0.147,-0.005l0.144,-0.006l0.144,-0.006l0.142,-0.007l0.142,-0.008l0.141,-0.008l0.139,-0.008l0.139,-0.01l0.137,-0.01l0.136,-0.01l0.136,-0.012l0.133,-0.011l0.133,-0.013l0.132,-0.012l0.131,-0.014l0.13,-0.014l0.129,-0.015l0.127,-0.015l0.127,-0.015l0.125,-0.016l0.125,-0.017l0.123,-0.017l0.123,-0.018l0.121,-0.018l0.12,-0.019l0.119,-0.019l0.118,-0.02l0.116,-0.02l0.117,-0.021l0.114,-0.021l0.114,-0.022l0.113,-0.022l0.112,-0.022l0.11,-0.023l0.109,-0.023l0.109,-0.024l0.108,-0.024l0.106,-0.025l0.106,-0.025l0.104,-0.025l0.103,-0.026l0.103,-0.026l0.101,-0.027l0.1,-0.026l0.099,-0.028l0.099,-0.027l0.097,-0.028l0.096,-0.029l0.095,-0.028l0.094,-0.029l0.094,-0.029l0.092,-0.03l0.091,-0.03l0.091,-0.03l0.089,-0.03l0.089,-0.031l0.087,-0.031l0.087,-0.032l0.086,-0.031l0.085,-0.032l0.083,-0.032l0.084,-0.033l0.082,-0.033l0.081,-0.032l0.08,-0.034l0.08,-0.033l0.078,-0.034l0.078,-0.034l0.077,-0.034l0.076,-0.034l0.075,-0.035l0.075,-0.035l0.073,-0.035l0.073,-0.035l0.072,-0.036l0.072,-0.036l0.07,-0.035l0.07,-0.037l0.069,-0.036l0.068,-0.037l0.068,-0.036l0.067,-0.037l0.066,-0.038l0.066,-0.037l0.064,-0.037l0.064,-0.038l0.064,-0.039l0.063,-0.038l0.062,-0.038l0.062,-0.039l0.061,-0.039l0.061,-0.039l0.059,-0.039l0.059,-0.04l0.059,-0.04l0.058,-0.04l0.058,-0.04l0.057,-0.04l0.056,-0.041l0.057,-0.041l0.056,-0.041l0.055,-0.042l0.054,-0.041l0.054,-0.042l0.054,-0.043l0.053,-0.042l0.053,-0.043l0.053,-0.043l0.052,-0.044l0.051,-0.044l0.052,-0.044l0.05,-0.044l0.051,-0.045l0.05,-0.045l0.05,-0.045l0.049,-0.046l0.05,-0.046l0.049,-0.047l0.048,-0.046l0.049,-0.048l0.048,-0.047l0.047,-0.048l0.048,-0.049l0.047,-0.049l0.047,-0.049l0.047,-0.05l0.046,-0.05l0.046,-0.051l0.047,-0.051l0.045,-0.052l0.046,-0.052l0.045,-0.053l0.046,-0.054l0.045,-0.054l0.044,-0.054l0.045,-0.055l0.044,-0.055l0.045,-0.057l0.044,-0.057l0.044,-0.057l0.043,-0.058l0.044,-0.059l0.044,-0.059l0.043,-0.06l0.043,-0.061l0.043,-0.061l0.043,-0.062l0.043,-0.063l0.042,-0.064l0.043,-0.064l0.042,-0.065l0.042,-0.067l0.042,-0.066l0.042,-0.067l0.042,-0.069l0.041,-0.069l0.042,-0.069l0.041,-0.071l0.041,-0.072l0.041,-0.072l0.041,-0.074l0.041,-0.074l0.04,-0.075l0.04,-0.076l0.04,-0.077l0.041,-0.078l0.039,-0.079l0.04,-0.079l0.04,-0.081l0.039,-0.082l0.039,-0.083l0.039,-0.083l0.039,-0.085l0.038,-0.086l0.039,-0.086l0.038,-0.088l0.038,-0.089l0.038,-0.09l0.037,-0.091l0.037,-0.092l0.037,-0.093l0.037,-0.094l0.036,-0.095l0.037,-0.097l0.036,-0.097l0.035,-0.098l0.036,-0.1l0.035,-0.101l0.035,-0.102l0.035,-0.103l0.034,-0.104l0.034,-0.105l0.034,-0.108l0.033,-0.107l0.033,-0.109l0.033,-0.11l0.032,-0.111l0.032,-0.113l0.031,-0.113l0.032,-0.115l0.03,-0.116l0.031,-0.118l0.03,-0.118l0.03,-0.12l0.029,-0.121l0.029,-0.122l0.028,-0.123l0.028,-0.125l0.028,-0.126l0.027,-0.127l0.027,-0.128l0.026,-0.13l0.025,-0.131l0.026,-0.132l0.024,-0.133l0.025,-0.135l0.023,-0.135l0.024,-0.137l0.022,-0.139l0.023,-0.14l0.021,-0.14l0.021,-0.142l0.021,-0.144l0.02,-0.145l0.019,-0.145l0.019,-0.148l0.019,-0.148l0.017,-0.15l0.018,-0.151l0.016,-0.152l0.016,-0.154l0.015,-0.155l0.015,-0.156l0.014,-0.157l0.013,-0.159l0.013,-0.16l0.012,-0.161l0.012,-0.163l0.011,-0.164l0.01,-0.164l0.009,-0.167l0.009,-0.167l0.008,-0.169l0.007,-0.17l0.007,-0.172l0.006,-0.172l0.005,-0.174l0.005,-0.175l0.003,-0.177l0.003,-0.16l-0.008,-0.445l-0.011,-0.682l-0.009,-0.67l-0.008,-0.658l-0.007,-0.645l-0.006,-0.637l-0.01,-1.222l-0.006,-1.178l-0.006,-1.126l-0.004,-1.074l-0.006,-1.022l-0.006,-0.974l-0.004,-0.46l-0.005,-0.449l-0.005,-0.436l-0.007,-0.421l-0.007,-0.407l-0.001,-0.069l-0.181,-0.005l-0.428,-0.008l-0.444,-0.007l-0.461,-0.004l-0.478,-0.003l-0.493,-0.002l-0.51,0.001l0,0Zm-110.734,11.539l-0.001,0.121l0.002,-0.133l-0.001,0.012l0,0Zm0.001,-0.02l0,0.008l0.006,-0.102l-0.006,0.094Zm75.93,-42.273l0.186,0l0.183,-0.001l0.18,-0.002l0.177,-0.003l0.176,-0.004l0.173,-0.005l0.17,-0.006l0.168,-0.007l0.165,-0.008l0.164,-0.008l0.16,-0.01l0.158,-0.01l0.155,-0.011l0.154,-0.013l0.151,-0.012l0.148,-0.014l0.146,-0.014l0.143,-0.015l0.142,-0.016l0.139,-0.017l0.136,-0.017l0.134,-0.017l0.132,-0.019l0.13,-0.019l0.127,-0.019l0.125,-0.02l0.122,-0.021l0.121,-0.021l0.118,-0.021l0.116,-0.022l0.113,-0.023l0.112,-0.023l0.109,-0.023l0.107,-0.024l0.105,-0.024l0.103,-0.024l0.1,-0.024l0.099,-0.025l0.097,-0.025l0.094,-0.026l0.092,-0.025l0.091,-0.026l0.088,-0.026l0.087,-0.026l0.084,-0.027l0.083,-0.026l0.081,-0.027l0.079,-0.027l0.077,-0.026l0.075,-0.027l0.074,-0.027l0.072,-0.027l0.07,-0.027l0.068,-0.027l0.067,-0.027l0.065,-0.027l0.064,-0.027l0.062,-0.027l0.06,-0.027l0.06,-0.027l0.057,-0.026l0.056,-0.027l0.055,-0.026l0.053,-0.027l0.052,-0.027l0.051,-0.026l0.05,-0.026l0.048,-0.026l0.047,-0.026l0.046,-0.026l0.045,-0.026l0.043,-0.026l0.043,-0.025l0.042,-0.026l0.041,-0.025l0.039,-0.026l0.039,-0.025l0.039,-0.025l0.037,-0.025l0.036,-0.025l0.035,-0.025l0.036,-0.025l0.034,-0.025l0.033,-0.025l0.033,-0.025l0.032,-0.025l0.032,-0.025l0.031,-0.025l0.03,-0.024l0.03,-0.025l0.03,-0.026l0.03,-0.025l0.028,-0.025l0.029,-0.025l0.028,-0.026l0.027,-0.026l0.027,-0.025l0.028,-0.027l0.027,-0.026l0.026,-0.026l0.026,-0.027l0.027,-0.027l0.026,-0.027l0.025,-0.028l0.026,-0.028l0.026,-0.028l0.025,-0.029l0.025,-0.029l0.026,-0.029l0.025,-0.03l0.025,-0.031l0.025,-0.03l0.025,-0.031l0.025,-0.032l0.025,-0.033l0.025,-0.033l0.025,-0.033l0.025,-0.034l0.024,-0.035l0.025,-0.035l0.025,-0.036l0.025,-0.037l0.025,-0.037l0.025,-0.038l0.026,-0.039l0.024,-0.039l0.025,-0.041l0.026,-0.041l0.025,-0.042l0.025,-0.042l0.025,-0.044l0.026,-0.044l0.025,-0.045l0.025,-0.046l0.025,-0.047l0.025,-0.047l0.026,-0.049l0.025,-0.049l0.025,-0.051l0.025,-0.051l0.026,-0.052l0.025,-0.053l0.025,-0.054l0.025,-0.055l0.025,-0.056l0.025,-0.057l0.025,-0.058l0.025,-0.059l0.025,-0.06l0.025,-0.061l0.024,-0.061l0.025,-0.063l0.024,-0.064l0.024,-0.064l0.025,-0.066l0.024,-0.067l0.024,-0.067l0.023,-0.069l0.024,-0.07l0.023,-0.071l0.024,-0.071l0.023,-0.073l0.023,-0.073l0.022,-0.075l0.023,-0.075l0.022,-0.077l0.022,-0.078l0.022,-0.078l0.021,-0.079l0.022,-0.081l0.021,-0.082l0.02,-0.082l0.021,-0.083l0.02,-0.085l0.02,-0.084l0.02,-0.087l0.019,-0.087l0.019,-0.088l0.019,-0.088l0.019,-0.09l0.018,-0.091l0.017,-0.092l0.018,-0.093l0.017,-0.092l0.017,-0.094l0.016,-0.096l0.016,-0.096l0.016,-0.096l0.015,-0.098l0.015,-0.098l0.015,-0.099l0.014,-0.101l0.014,-0.1l0.013,-0.102l0.013,-0.103l0.013,-0.103l0.012,-0.103l0.012,-0.105l0.011,-0.106l0.011,-0.105l0.01,-0.107l0.011,-0.107l0.009,-0.109l0.01,-0.109l0.008,-0.11l0.009,-0.11l0.008,-0.11l0.007,-0.112l0.007,-0.112l0.006,-0.097l0.013,-0.244l0.01,-0.229l0.008,-0.232l0.007,-0.235l0.005,-0.236l0.003,-0.238l0.001,-0.24l-0.001,-0.242l-0.002,-0.244l-0.005,-0.245l-0.006,-0.247l-0.008,-0.248l-0.01,-0.25l-0.011,-0.251l-0.014,-0.252l-0.015,-0.254l-0.016,-0.254l-0.019,-0.255l-0.02,-0.256l-0.022,-0.257l-0.024,-0.257l-0.109,-1.112l0.009,-0.918l0,-0.066l0,-0.066l0,-0.065l-0.001,-0.065l-0.001,-0.065l-0.002,-0.064l-0.001,-0.065l-0.003,-0.064l-0.002,-0.064l-0.003,-0.063l-0.003,-0.063l-0.004,-0.063l-0.004,-0.063l-0.004,-0.062l-0.004,-0.063l-0.005,-0.061l-0.005,-0.062l-0.006,-0.062l-0.006,-0.06l-0.006,-0.061l-0.006,-0.061l-0.007,-0.06l-0.007,-0.06l-0.007,-0.06l-0.008,-0.059l-0.008,-0.059l-0.008,-0.059l-0.009,-0.059l-0.009,-0.058l-0.009,-0.058l-0.009,-0.058l-0.01,-0.057l-0.01,-0.058l-0.011,-0.056l-0.01,-0.057l-0.011,-0.056l-0.011,-0.056l-0.012,-0.056l-0.011,-0.056l-0.012,-0.055l-0.013,-0.054l-0.012,-0.055l-0.013,-0.054l-0.013,-0.054l-0.013,-0.054l-0.014,-0.053l-0.014,-0.053l-0.014,-0.053l-0.014,-0.053l-0.015,-0.052l-0.014,-0.052l-0.016,-0.052l-0.015,-0.051l-0.015,-0.051l-0.016,-0.051l-0.016,-0.05l-0.016,-0.05l-0.017,-0.05l-0.016,-0.05l-0.017,-0.049l-0.018,-0.049l-0.017,-0.048l-0.017,-0.049l-0.018,-0.048l-0.018,-0.048l-0.019,-0.048l-0.018,-0.047l-0.019,-0.046l-0.018,-0.047l-0.02,-0.046l-0.019,-0.047l-0.019,-0.045l-0.02,-0.046l-0.02,-0.045l-0.02,-0.045l-0.02,-0.044l-0.021,-0.045l-0.021,-0.044l-0.02,-0.043l-0.022,-0.045l-0.021,-0.043l-0.021,-0.042l-0.022,-0.043l-0.022,-0.042l-0.022,-0.043l-0.022,-0.042l-0.022,-0.041l-0.023,-0.041l-0.023,-0.041l-0.023,-0.041l-0.023,-0.041l-0.023,-0.04l-0.024,-0.04l-0.024,-0.04l-0.024,-0.039l-0.024,-0.04l-0.024,-0.039l-0.024,-0.038l-0.025,-0.039l-0.025,-0.038l-0.025,-0.038l-0.025,-0.038l-0.025,-0.038l-0.026,-0.037l-0.026,-0.037l-0.026,-0.037l-0.025,-0.036l-0.027,-0.037l-0.026,-0.036l-0.027,-0.036l-0.027,-0.036l-0.027,-0.035l-0.027,-0.035l-0.028,-0.035l-0.027,-0.035l-0.028,-0.034l-0.028,-0.035l-0.028,-0.034l-0.028,-0.034l-0.029,-0.034l-0.029,-0.034l-0.029,-0.033l-0.029,-0.033l-0.03,-0.034l-0.029,-0.032l-0.03,-0.033l-0.03,-0.033l-0.03,-0.032l-0.031,-0.032l-0.031,-0.032l-0.031,-0.032l-0.031,-0.031l-0.031,-0.031l-0.032,-0.031l-0.032,-0.032l-0.032,-0.031l-0.032,-0.031l-0.033,-0.03l-0.033,-0.031l-0.033,-0.03l-0.033,-0.03l-0.034,-0.03l-0.034,-0.03l-0.035,-0.03l-0.034,-0.029l-0.035,-0.029l-0.035,-0.03l-0.035,-0.028l-0.036,-0.029l-0.036,-0.029l-0.036,-0.029l-0.037,-0.028l-0.037,-0.029l-0.038,-0.028l-0.037,-0.028l-0.038,-0.028l-0.038,-0.028l-0.039,-0.028l-0.039,-0.027l-0.039,-0.028l-0.04,-0.027l-0.04,-0.027l-0.04,-0.027l-0.041,-0.027l-0.041,-0.027l-0.042,-0.027l-0.042,-0.026l-0.042,-0.027l-0.043,-0.026l-0.043,-0.026l-0.044,-0.026l-0.044,-0.026l-0.045,-0.026l-0.044,-0.026l-0.046,-0.025l-0.046,-0.026l-0.046,-0.025l-0.047,-0.025l-0.047,-0.025l-0.048,-0.025l-0.048,-0.024l-0.049,-0.025l-0.049,-0.025l-0.049,-0.024l-0.051,-0.024l-0.05,-0.024l-0.052,-0.024l-0.051,-0.024l-0.053,-0.023l-0.053,-0.024l-0.053,-0.023l-0.054,-0.023l-0.054,-0.023l-0.056,-0.022l-0.056,-0.023l-0.056,-0.022l-0.057,-0.023l-0.057,-0.022l-0.058,-0.022l-0.059,-0.021l-0.06,-0.022l-0.059,-0.021l-0.061,-0.021l-0.061,-0.021l-0.062,-0.02l-0.063,-0.021l-0.063,-0.02l-0.064,-0.02l-0.065,-0.02l-0.065,-0.02l-0.066,-0.019l-0.066,-0.019l-0.067,-0.019l-0.069,-0.019l-0.068,-0.018l-0.07,-0.018l-0.07,-0.018l-0.071,-0.017l-0.072,-0.018l-0.072,-0.017l-0.073,-0.016l-0.074,-0.017l-0.075,-0.016l-0.075,-0.016l-0.076,-0.015l-0.077,-0.015l-0.078,-0.015l-0.078,-0.015l-0.08,-0.014l-0.08,-0.014l-0.081,-0.013l-0.081,-0.014l-0.083,-0.012l-0.083,-0.013l-0.085,-0.012l-0.084,-0.012l-0.086,-0.011l-0.087,-0.011l-0.087,-0.01l-0.089,-0.01l-0.089,-0.01l-0.09,-0.009l-0.09,-0.009l-0.092,-0.008l-0.093,-0.008l-0.093,-0.008l-0.095,-0.007l-0.095,-0.006l-0.096,-0.007l-0.097,-0.005l-0.098,-0.005l-0.098,-0.005l-0.028,-0.001l-33.893,0.522l-0.395,-0.003l-0.193,0l-0.19,0.001l-0.187,0.002l-0.186,0.002l-0.183,0.004l-0.18,0.005l-0.179,0.005l-0.176,0.007l-0.173,0.007l-0.172,0.008l-0.169,0.009l-0.166,0.01l-0.165,0.011l-0.162,0.011l-0.16,0.013l-0.157,0.013l-0.155,0.013l-0.153,0.015l-0.151,0.015l-0.148,0.016l-0.147,0.017l-0.143,0.017l-0.142,0.018l-0.14,0.018l-0.137,0.019l-0.135,0.02l-0.133,0.02l-0.131,0.02l-0.128,0.021l-0.127,0.022l-0.124,0.022l-0.122,0.023l-0.12,0.023l-0.118,0.023l-0.116,0.024l-0.113,0.024l-0.112,0.025l-0.109,0.025l-0.108,0.025l-0.105,0.026l-0.104,0.026l-0.101,0.026l-0.1,0.026l-0.098,0.027l-0.095,0.027l-0.094,0.027l-0.092,0.027l-0.09,0.027l-0.088,0.028l-0.086,0.028l-0.085,0.027l-0.083,0.028l-0.08,0.028l-0.08,0.028l-0.077,0.029l-0.076,0.028l-0.074,0.028l-0.073,0.028l-0.07,0.029l-0.07,0.028l-0.068,0.028l-0.066,0.028l-0.065,0.029l-0.063,0.028l-0.061,0.028l-0.061,0.028l-0.059,0.028l-0.057,0.028l-0.057,0.028l-0.054,0.027l-0.054,0.028l-0.053,0.028l-0.051,0.027l-0.05,0.028l-0.049,0.027l-0.047,0.027l-0.047,0.027l-0.045,0.027l-0.045,0.027l-0.043,0.027l-0.043,0.026l-0.042,0.027l-0.04,0.026l-0.04,0.026l-0.039,0.027l-0.038,0.026l-0.037,0.026l-0.037,0.026l-0.035,0.026l-0.035,0.026l-0.035,0.026l-0.034,0.026l-0.033,0.025l-0.032,0.026l-0.032,0.026l-0.032,0.026l-0.031,0.026l-0.03,0.025l-0.03,0.026l-0.029,0.026l-0.03,0.026l-0.028,0.026l-0.028,0.026l-0.028,0.027l-0.028,0.026l-0.027,0.027l-0.027,0.027l-0.027,0.027l-0.027,0.027l-0.026,0.028l-0.026,0.027l-0.026,0.028l-0.025,0.028l-0.026,0.029l-0.025,0.029l-0.025,0.029l-0.025,0.029l-0.025,0.03l-0.025,0.03l-0.025,0.031l-0.025,0.031l-0.024,0.031l-0.025,0.032l-0.025,0.033l-0.024,0.032l-0.025,0.034l-0.024,0.034l-0.025,0.034l-0.024,0.035l-0.024,0.036l-0.025,0.036l-0.024,0.037l-0.024,0.037l-0.025,0.038l-0.024,0.039l-0.024,0.039l-0.025,0.04l-0.024,0.041l-0.024,0.041l-0.025,0.043l-0.024,0.043l-0.025,0.043l-0.024,0.044l-0.024,0.046l-0.025,0.045l-0.024,0.047l-0.024,0.048l-0.024,0.048l-0.025,0.049l-0.024,0.05l-0.024,0.051l-0.024,0.051l-0.024,0.053l-0.024,0.053l-0.024,0.054l-0.024,0.055l-0.024,0.056l-0.024,0.057l-0.024,0.057l-0.023,0.059l-0.024,0.059l-0.023,0.06l-0.024,0.062l-0.023,0.062l-0.023,0.062l-0.023,0.064l-0.023,0.065l-0.023,0.066l-0.022,0.066l-0.023,0.068l-0.022,0.068l-0.022,0.069l-0.022,0.07l-0.022,0.071l-0.021,0.072l-0.022,0.073l-0.021,0.074l-0.021,0.074l-0.021,0.076l-0.02,0.076l-0.02,0.077l-0.02,0.079l-0.02,0.078l-0.02,0.08l-0.019,0.081l-0.019,0.082l-0.019,0.082l-0.019,0.083l-0.018,0.084l-0.018,0.085l-0.018,0.086l-0.017,0.086l-0.017,0.087l-0.017,0.089l-0.017,0.089l-0.016,0.089l-0.016,0.091l-0.015,0.091l-0.016,0.092l-0.014,0.093l-0.015,0.094l-0.014,0.094l-0.014,0.095l-0.014,0.096l-0.011,0.08l-0.027,0.212l-0.024,0.198l-0.023,0.201l-0.021,0.204l-0.019,0.206l-0.019,0.208l-0.016,0.211l-0.015,0.214l-0.013,0.216l-0.012,0.218l-0.011,0.22l-0.008,0.222l-0.007,0.224l-0.006,0.226l-0.004,0.228l-0.002,0.23l-0.001,0.232l0.001,0.233l0.003,0.234l0.004,0.236l0.005,0.238l0.007,0.239l0.009,0.24l0.01,0.241l0.05,1.032l-0.045,0.903l-0.006,0.115l-0.004,0.114l-0.004,0.113l-0.003,0.112l-0.002,0.111l-0.002,0.109l-0.001,0.108l-0.001,0.107l0,0.106l0.002,0.208l0.004,0.203l0.004,0.099l0.003,0.099l0.004,0.097l0.005,0.097l0.005,0.095l0.012,0.186l0.007,0.092l0.007,0.09l0.008,0.09l0.008,0.088l0.008,0.087l0.009,0.085l0.01,0.085l0.01,0.084l0.01,0.082l0.011,0.082l0.022,0.16l0.012,0.078l0.012,0.077l0.012,0.076l0.013,0.075l0.013,0.074l0.014,0.073l0.014,0.072l0.014,0.071l0.014,0.07l0.015,0.069l0.015,0.068l0.015,0.067l0.015,0.066l0.016,0.066l0.016,0.064l0.016,0.063l0.017,0.062l0.016,0.062l0.034,0.12l0.017,0.059l0.018,0.058l0.017,0.057l0.036,0.112l0.018,0.055l0.018,0.053l0.019,0.053l0.018,0.053l0.019,0.052l0.057,0.15l0.019,0.048l0.02,0.049l0.019,0.047l0.06,0.138l0.06,0.132l0.02,0.043l0.021,0.042l0.02,0.042l0.042,0.082l0.042,0.08l0.021,0.039l0.021,0.038l0.021,0.039l0.022,0.038l0.021,0.037l0.022,0.037l0.022,0.036l0.021,0.036l0.023,0.036l0.044,0.07l0.023,0.035l0.022,0.034l0.046,0.068l0.046,0.066l0.023,0.032l0.024,0.033l0.023,0.032l0.048,0.064l0.025,0.031l0.024,0.032l0.025,0.03l0.024,0.031l0.025,0.031l0.026,0.03l0.025,0.03l0.078,0.09l0.027,0.029l0.026,0.03l0.027,0.029l0.028,0.029l0.027,0.029l0.056,0.058l0.029,0.028l0.057,0.057l0.03,0.029l0.06,0.056l0.061,0.057l0.032,0.028l0.031,0.027l0.064,0.056l0.033,0.028l0.033,0.027l0.068,0.056l0.034,0.027l0.035,0.028l0.035,0.027l0.036,0.028l0.036,0.027l0.037,0.027l0.037,0.028l0.076,0.054l0.117,0.081l0.04,0.027l0.082,0.054l0.042,0.026l0.042,0.027l0.086,0.054l0.044,0.026l0.044,0.027l0.046,0.026l0.045,0.027l0.046,0.026l0.094,0.052l0.096,0.052l0.05,0.026l0.049,0.026l0.05,0.026l0.051,0.025l0.051,0.026l0.052,0.025l0.053,0.026l0.162,0.075l0.055,0.025l0.056,0.024l0.056,0.025l0.058,0.024l0.058,0.025l0.058,0.023l0.118,0.048l0.122,0.048l0.062,0.023l0.061,0.023l0.064,0.023l0.063,0.023l0.064,0.022l0.13,0.044l0.201,0.066l0.068,0.021l0.138,0.042l0.07,0.02l0.071,0.021l0.071,0.02l0.072,0.02l0.146,0.038l0.148,0.038l0.076,0.019l0.152,0.036l0.077,0.017l0.078,0.018l0.078,0.017l0.079,0.016l0.08,0.017l0.08,0.016l0.081,0.015l0.082,0.016l0.082,0.015l0.083,0.015l0.083,0.014l0.084,0.014l0.085,0.014l0.085,0.013l0.172,0.026l0.088,0.012l0.087,0.012l0.088,0.011l0.178,0.022l0.091,0.01l0.09,0.01l0.091,0.01l0.092,0.009l0.092,0.008l0.093,0.009l0.094,0.007l0.094,0.008l0.095,0.007l0.094,0.007l0.097,0.006l0.096,0.005l0.096,0.006l0.098,0.005l0.196,0.008l0.198,0.006l0.1,0.003l0.101,0.002l0.1,0.002l0.102,0.001l0.102,0l0.103,0.001l0.103,-0.001l0.193,-0.001l33.722,0l0.322,0.004l0.187,0.001Zm-74.9,-10.679l0.015,0.32l-0.014,-0.344l-0.001,0.024Zm-0.001,-0.07l0.002,0.046l0.009,-0.239l0.013,-0.284l-0.024,0.477Zm115.537,-6.228l0,0.229l-0.001,0.23l0.006,-0.597l-0.006,-0.07l0.001,0.208Zm-0.001,-0.208l0,-0.021l0,-0.005l-0.034,-0.341l0.034,0.367Z" style="fill:#fff;"/>
    </g>
    <path d="M77.186,84.433l-1.049,62.948l-29.996,-0.5l1.049,-62.948l29.996,0.5Z" style="fill:#fff;"/>
    <path d="M147.757,131.812l0.537,0.034l0.534,0.058l0.532,0.081l0.528,0.103l0.523,0.126l0.517,0.149l0.51,0.171l0.502,0.192l0.494,0.214l0.484,0.235l0.473,0.255l0.462,0.276l0.45,0.295l0.436,0.314l0.423,0.333l0.408,0.351l0.392,0.368l0.376,0.384l0.36,0.4l0.342,0.416l0.323,0.429l0.305,0.443l0.286,0.456l0.265,0.468l0.245,0.479l0.225,0.489l0.203,0.498l0.182,0.506l0.159,0.514l0.137,0.52l0.115,0.525l0.092,0.53l0.07,0.534l0.046,0.536l0.023,0.537l0,0.538l-0.023,0.537l-0.046,0.536l-0.07,0.534l-0.092,0.53l-0.115,0.525l-0.137,0.52l-0.159,0.514l-0.182,0.506l-0.203,0.498l-0.225,0.489l-0.245,0.479l-0.265,0.468l-0.286,0.456l-0.305,0.443l-0.323,0.429l-0.342,0.416l-0.36,0.4l-0.376,0.384l-0.392,0.368l-0.408,0.351l-0.423,0.333l-0.436,0.314l-0.45,0.295l-0.462,0.276l-0.473,0.255l-0.484,0.235l-0.494,0.214l-0.502,0.192l-0.51,0.171l-0.517,0.149l-0.523,0.126l-0.528,0.103l-0.532,0.081l-0.534,0.058l-0.537,0.034l-0.538,0.012l-58.582,0l-0.538,-0.012l-0.537,-0.034l-0.534,-0.058l-0.532,-0.081l-0.528,-0.103l-0.523,-0.126l-0.517,-0.149l-0.51,-0.171l-0.502,-0.192l-0.494,-0.214l-0.484,-0.235l-0.473,-0.255l-0.462,-0.276l-0.45,-0.295l-0.436,-0.314l-0.423,-0.333l-0.408,-0.351l-0.392,-0.368l-0.376,-0.384l-0.36,-0.4l-0.342,-0.416l-0.323,-0.429l-0.305,-0.443l-0.286,-0.456l-0.265,-0.468l-0.245,-0.479l-0.225,-0.489l-0.203,-0.498l-0.182,-0.506l-0.159,-0.514l-0.137,-0.52l-0.115,-0.525l-0.092,-0.53l-0.07,-0.534l-0.046,-0.536l-0.023,-0.537l0,-0.538l0.023,-0.537l0.046,-0.536l0.07,-0.534l0.092,-0.53l0.115,-0.525l0.137,-0.52l0.159,-0.514l0.182,-0.506l0.203,-0.498l0.225,-0.489l0.245,-0.479l0.265,-0.468l0.286,-0.456l0.305,-0.443l0.323,-0.429l0.342,-0.416l0.36,-0.4l0.376,-0.384l0.392,-0.368l0.408,-0.351l0.423,-0.333l0.436,-0.314l0.45,-0.295l0.462,-0.276l0.473,-0.255l0.484,-0.235l0.494,-0.214l0.502,-0.192l0.51,-0.171l0.517,-0.149l0.523,-0.126l0.528,-0.103l0.532,-0.081l0.534,-0.058l0.537,-0.034l0.538,-0.012l58.582,0l0.538,0.012Zm-26.303,-56.826l0.538,0.02l0.536,0.043l0.534,0.066l0.53,0.089l0.527,0.112l0.52,0.135l0.515,0.156l0.507,0.179l0.499,0.2l0.491,0.222l0.48,0.243l0.469,0.262l0.457,0.283l0.445,0.303l0.432,0.321l0.417,0.339l0.402,0.357l0.387,0.374l0.37,0.391l0.353,0.406l0.335,0.42l0.317,0.435l0.298,0.448l0.278,0.461l0.258,0.471l0.238,0.483l0.216,0.492l0.195,0.502l0.174,0.509l0.151,0.516l0.129,0.522l0.107,0.527l0.084,0.532l0.06,0.534l0.038,0.537l0.015,0.537l-0.009,0.538l-0.031,0.537l-0.055,0.535l-0.078,0.533l-0.1,0.528l-0.124,0.524l-0.145,0.517l-0.168,0.512l-0.189,0.503l-0.212,0.495l-0.232,0.485l-0.252,0.475l-0.273,0.463l-0.293,0.452l-0.312,0.438l-0.33,0.424l-0.349,0.41l-0.365,0.395l-0.383,0.378l-0.398,0.362l-0.413,0.344l-0.428,0.326l-0.442,0.307l-0.454,0.288l-0.466,0.268l-0.477,0.248l-0.488,0.228l-0.497,0.206l-0.505,0.184l-0.513,0.162l-0.519,0.141l-0.525,0.118l-0.53,0.095l-0.533,0.072l-0.535,0.049l-0.538,0.026l-0.537,0.003l-29.291,-0.465l-0.538,-0.02l-0.536,-0.043l-0.534,-0.066l-0.53,-0.089l-0.527,-0.112l-0.52,-0.135l-0.515,-0.156l-0.507,-0.179l-0.499,-0.2l-0.491,-0.222l-0.48,-0.243l-0.469,-0.262l-0.457,-0.283l-0.445,-0.303l-0.432,-0.321l-0.417,-0.339l-0.402,-0.357l-0.387,-0.374l-0.37,-0.391l-0.353,-0.406l-0.335,-0.42l-0.317,-0.435l-0.298,-0.448l-0.278,-0.461l-0.258,-0.471l-0.238,-0.483l-0.216,-0.492l-0.195,-0.502l-0.174,-0.509l-0.151,-0.516l-0.129,-0.522l-0.107,-0.527l-0.084,-0.532l-0.06,-0.534l-0.038,-0.537l-0.015,-0.537l0.009,-0.538l0.031,-0.537l0.055,-0.535l0.078,-0.533l0.1,-0.528l0.124,-0.524l0.145,-0.517l0.168,-0.512l0.189,-0.503l0.212,-0.495l0.232,-0.485l0.252,-0.475l0.273,-0.463l0.293,-0.452l0.312,-0.438l0.33,-0.424l0.349,-0.41l0.365,-0.395l0.383,-0.378l0.398,-0.362l0.413,-0.344l0.428,-0.326l0.442,-0.307l0.454,-0.288l0.466,-0.268l0.477,-0.248l0.488,-0.228l0.497,-0.206l0.505,-0.184l0.513,-0.162l0.519,-0.141l0.525,-0.118l0.53,-0.095l0.533,-0.072l0.535,-0.049l0.538,-0.026l0.537,-0.003l29.291,0.465Z" style="fill:#f57d00;"/>
  </g>
</svg>
