<?xml version="1.0" encoding="UTF-8" standalone="no"?><!DOCTYPE svg PUBLIC "-//W3C//DTD SVG 1.1//EN" "http://www.w3.org/Graphics/SVG/1.1/DTD/svg11.dtd"><svg width="100%" height="100%" viewBox="0 0 744 168" version="1.1" xmlns="http://www.w3.org/2000/svg" xmlns:xlink="http://www.w3.org/1999/xlink" xml:space="preserve" xmlns:serif="http://www.serif.com/" style="fill-rule:evenodd;clip-rule:evenodd;stroke-linejoin:round;stroke-miterlimit:1.41421;"><g id="Layer_3"><path d="M138,0c5.016,0.004 9.86,1.294 14.3,3.621c1.288,0.675 2.411,1.628 3.616,2.442l-71.916,53.937l-71.916,-53.937c5.87,-4.386 10.693,-5.698 17.916,-6.063l108,0Z" style="fill:#ffe600;fill-rule:nonzero;"/><path d="M12.084,6.063l71.916,53.937l-77.386,96.733c-4.587,-5.889 -6.242,-11.371 -6.614,-18.733l0,-108c0.086,-6.961 2.401,-13.686 6.851,-19.083c1.219,-1.479 2.711,-2.711 4.066,-4.066l1.167,-0.788Z" style="fill:#bbd500;fill-rule:nonzero;"/><path d="M84,60l77.386,96.732l-0.237,0.351c-6.534,7.287 -13.424,10.426 -23.149,10.917l-108,0c-6.961,-0.086 -13.686,-2.401 -19.083,-6.85c-1.479,-1.22 -2.711,-2.712 -4.066,-4.067l-0.237,-0.35l77.386,-96.733Z" style="fill:#ff8a00;fill-rule:nonzero;"/><path d="M155.916,6.063c5.126,3.508 8.912,9.106 10.735,15.016c0.587,1.903 0.897,3.885 1.194,5.854c0.153,1.012 0.103,2.045 0.155,3.067l0,108c-0.03,4.998 -1.252,9.886 -3.621,14.3c-0.843,1.571 -1.995,2.955 -2.993,4.433l-77.386,-96.733l71.916,-53.937Z" style="fill:#75b7fd;fill-rule:nonzero;"/></g><g id="Layer_1"><path d="M42.75,12l82.5,0c10.355,0 18.75,8.395 18.75,18.75l0,82.5c0,10.355 -8.395,18.75 -18.75,18.75l-82.5,0c-10.355,0 -18.75,-8.395 -18.75,-18.75l0,-82.5c0,-10.355 8.395,-18.75 18.75,-18.75Z" style="fill:#fff;fill-rule:nonzero;"/><path d="M39.511,39.095l8.828,0l0,-12.263l9.009,0l0,12.263l10.932,0l0,-12.263l9.009,0l0,12.263l8.829,0l0,11.338l-8.829,0l0,12.756l8.829,0l0,11.338l-8.829,0l0,12.263l-9.009,0l0,-12.263l-10.932,0l0,12.263l-9.009,0l0,-12.263l-8.828,0l0,-11.338l8.828,0l0,-12.756l-8.828,0l0,-11.338Zm17.837,11.338l0,12.756l10.932,0l0,-12.756l-10.932,0Z" style="fill:#737373;"/><path d="M233.423,23.832l0.21,0l0.335,0.001l0.337,0.002l0.338,0.004l0.339,0.005l0.341,0.007l0.342,0.009l0.343,0.01l0.344,0.011l0.345,0.013l0.347,0.015l0.348,0.016l0.349,0.018l0.351,0.019l0.351,0.021l0.353,0.022l0.354,0.024l0.356,0.025l0.357,0.027l0.358,0.029l0.359,0.03l0.36,0.031l0.362,0.033l0.363,0.035l0.364,0.036l0.366,0.038l0.367,0.039l0.368,0.04l0.369,0.043l0.37,0.043l0.372,0.046l0.373,0.046l0.374,0.049l0.376,0.05l0.377,0.051l0.378,0.053l0.379,0.054l0.381,0.056l0.382,0.058l0.383,0.059l0.384,0.06l0.386,0.062l0.387,0.064l0.388,0.065l0.389,0.066l0.391,0.068l0.392,0.07l0.393,0.071l0.394,0.073l0.396,0.074l0.397,0.076l0.398,0.077l0.4,0.079l0.4,0.08l0.402,0.082l0.404,0.083l0.404,0.085l0.406,0.086l0.407,0.088l0.409,0.089l0.409,0.091l0.411,0.093l0.412,0.093l0.414,0.096l1.571,0.367l0,17.755l-2.452,-0.936l-0.412,-0.156l-0.409,-0.153l-0.407,-0.151l-0.403,-0.148l-0.401,-0.146l-0.398,-0.143l-0.395,-0.14l-0.392,-0.138l-0.39,-0.136l-0.386,-0.133l-0.384,-0.131l-0.381,-0.128l-0.378,-0.125l-0.375,-0.123l-0.373,-0.12l-0.369,-0.118l-0.367,-0.116l-0.364,-0.112l-0.36,-0.111l-0.359,-0.107l-0.355,-0.106l-0.352,-0.102l-0.349,-0.101l-0.347,-0.097l-0.344,-0.095l-0.341,-0.093l-0.337,-0.09l-0.335,-0.088l-0.333,-0.085l-0.329,-0.082l-0.326,-0.08l-0.324,-0.078l-0.32,-0.075l-0.318,-0.072l-0.314,-0.07l-0.312,-0.068l-0.309,-0.065l-0.306,-0.062l-0.303,-0.06l-0.3,-0.057l-0.297,-0.055l-0.294,-0.053l-0.291,-0.05l-0.288,-0.047l-0.285,-0.045l-0.283,-0.043l-0.279,-0.04l-0.276,-0.037l-0.273,-0.036l-0.271,-0.032l-0.267,-0.03l-0.264,-0.028l-0.261,-0.025l-0.259,-0.023l-0.255,-0.021l-0.252,-0.018l-0.249,-0.015l-0.246,-0.013l-0.243,-0.011l-0.24,-0.008l-0.237,-0.006l-0.233,-0.004l-0.232,-0.001l-0.177,0.001l-0.176,0.002l-0.175,0.003l-0.174,0.004l-0.172,0.006l-0.171,0.007l-0.17,0.008l-0.168,0.009l-0.168,0.011l-0.166,0.012l-0.164,0.013l-0.163,0.015l-0.162,0.015l-0.161,0.017l-0.159,0.018l-0.158,0.02l-0.157,0.02l-0.155,0.022l-0.154,0.023l-0.153,0.024l-0.152,0.026l-0.15,0.026l-0.149,0.028l-0.147,0.029l-0.146,0.03l-0.145,0.032l-0.144,0.032l-0.143,0.034l-0.141,0.035l-0.139,0.036l-0.139,0.037l-0.137,0.038l-0.136,0.04l-0.135,0.041l-0.134,0.041l-0.132,0.043l-0.131,0.044l-0.258,0.092l-0.127,0.048l-0.126,0.048l-0.125,0.05l-0.123,0.051l-0.123,0.052l-0.121,0.053l-0.12,0.054l-0.236,0.112l-0.116,0.058l-0.116,0.059l-0.114,0.059l-0.112,0.061l-0.112,0.063l-0.111,0.063l-0.109,0.064l-0.108,0.065l-0.108,0.067l-0.106,0.068l-0.105,0.069l-0.103,0.069l-0.103,0.072l-0.102,0.072l-0.1,0.073l-0.1,0.075l-0.099,0.075l-0.096,0.076l-0.095,0.077l-0.093,0.077l-0.091,0.077l-0.089,0.078l-0.088,0.079l-0.086,0.079l-0.084,0.08l-0.082,0.08l-0.081,0.08l-0.079,0.081l-0.077,0.082l-0.076,0.082l-0.073,0.082l-0.073,0.084l-0.07,0.083l-0.069,0.084l-0.067,0.085l-0.066,0.085l-0.064,0.086l-0.062,0.086l-0.061,0.087l-0.059,0.087l-0.058,0.088l-0.057,0.089l-0.054,0.089l-0.053,0.089l-0.052,0.09l-0.05,0.091l-0.049,0.092l-0.047,0.092l-0.046,0.093l-0.044,0.094l-0.043,0.094l-0.042,0.095l-0.04,0.095l-0.038,0.097l-0.037,0.097l-0.036,0.098l-0.034,0.099l-0.033,0.099l-0.032,0.101l-0.03,0.101l-0.028,0.102l-0.027,0.103l-0.026,0.104l-0.025,0.105l-0.022,0.105l-0.022,0.107l-0.02,0.108l-0.019,0.108l-0.017,0.11l-0.015,0.11l-0.015,0.112l-0.012,0.112l-0.012,0.114l-0.01,0.114l-0.008,0.116l-0.007,0.116l-0.005,0.118l-0.004,0.119l-0.002,0.119l-0.001,0.122l0.002,0.197l0.003,0.098l0.004,0.098l0.004,0.097l0.006,0.096l0.007,0.096l0.008,0.096l0.009,0.095l0.01,0.094l0.011,0.094l0.012,0.093l0.013,0.093l0.014,0.093l0.016,0.092l0.016,0.091l0.017,0.091l0.018,0.09l0.04,0.18l0.021,0.089l0.023,0.089l0.023,0.088l0.024,0.088l0.052,0.174l0.028,0.087l0.028,0.086l0.03,0.086l0.03,0.085l0.032,0.085l0.033,0.085l0.033,0.084l0.035,0.085l0.036,0.083l0.037,0.084l0.038,0.083l0.039,0.082l0.04,0.083l0.041,0.082l0.042,0.082l0.088,0.162l0.092,0.162l0.048,0.081l0.049,0.08l0.05,0.079l0.051,0.08l0.052,0.079l0.053,0.08l0.055,0.078l0.055,0.079l0.057,0.078l0.058,0.078l0.059,0.078l0.06,0.078l0.124,0.154l0.064,0.077l0.065,0.077l0.066,0.076l0.068,0.076l0.069,0.077l0.071,0.076l0.073,0.078l0.075,0.079l0.158,0.16l0.083,0.082l0.085,0.082l0.087,0.084l0.09,0.084l0.092,0.086l0.095,0.086l0.097,0.088l0.099,0.088l0.102,0.089l0.104,0.09l0.106,0.09l0.109,0.092l0.111,0.092l0.114,0.093l0.116,0.094l0.118,0.095l0.121,0.096l0.123,0.096l0.125,0.097l0.127,0.098l0.13,0.099l0.132,0.099l0.135,0.101l0.137,0.101l0.139,0.101l0.142,0.103l0.143,0.103l0.146,0.104l0.148,0.104l0.305,0.212l0.312,0.214l0.323,0.217l0.331,0.22l0.34,0.223l0.349,0.225l0.359,0.228l0.367,0.231l0.377,0.234l0.386,0.236l0.394,0.239l0.404,0.242l0.413,0.244l0.421,0.247l0.429,0.248l6.283,3.581l0.4,0.23l0.394,0.229l0.391,0.229l0.388,0.228l0.383,0.228l0.38,0.227l0.376,0.227l0.372,0.226l0.368,0.225l0.365,0.226l0.361,0.224l0.357,0.225l0.353,0.223l0.349,0.223l0.346,0.223l0.342,0.222l0.338,0.222l0.334,0.221l0.331,0.221l0.327,0.221l0.323,0.219l0.319,0.22l0.315,0.219l0.312,0.218l0.308,0.218l0.304,0.218l0.301,0.217l0.296,0.216l0.293,0.216l0.29,0.216l0.285,0.215l0.282,0.215l0.278,0.215l0.274,0.214l0.27,0.213l0.267,0.214l0.263,0.212l0.259,0.213l0.256,0.212l0.251,0.211l0.248,0.211l0.245,0.211l0.24,0.211l0.237,0.21l0.233,0.21l0.23,0.209l0.225,0.209l0.222,0.209l0.218,0.208l0.215,0.208l0.21,0.208l0.207,0.207l0.204,0.207l0.199,0.207l0.196,0.207l0.192,0.206l0.188,0.206l0.185,0.206l0.181,0.206l0.177,0.205l0.173,0.206l0.17,0.205l0.166,0.204l0.162,0.205l0.159,0.205l0.156,0.207l0.154,0.208l0.152,0.21l0.149,0.211l0.146,0.212l0.145,0.214l0.141,0.215l0.139,0.217l0.137,0.218l0.134,0.219l0.132,0.221l0.129,0.223l0.127,0.224l0.124,0.225l0.121,0.226l0.12,0.228l0.116,0.23l0.114,0.23l0.112,0.232l0.109,0.234l0.106,0.234l0.104,0.237l0.102,0.237l0.099,0.239l0.096,0.24l0.094,0.242l0.091,0.242l0.089,0.244l0.087,0.246l0.083,0.247l0.081,0.248l0.079,0.249l0.076,0.25l0.074,0.252l0.071,0.253l0.069,0.255l0.066,0.256l0.063,0.256l0.061,0.259l0.059,0.259l0.056,0.261l0.053,0.262l0.051,0.263l0.049,0.264l0.045,0.266l0.044,0.267l0.041,0.268l0.038,0.269l0.036,0.271l0.034,0.271l0.03,0.273l0.029,0.275l0.026,0.275l0.023,0.276l0.021,0.278l0.019,0.279l0.016,0.28l0.013,0.282l0.011,0.282l0.009,0.284l0.006,0.285l0.004,0.286l0.001,0.286l-0.001,0.205l-0.001,0.203l-0.003,0.202l-0.004,0.202l-0.005,0.201l-0.007,0.201l-0.007,0.2l-0.009,0.199l-0.01,0.199l-0.011,0.198l-0.012,0.197l-0.013,0.197l-0.015,0.197l-0.016,0.196l-0.017,0.195l-0.018,0.194l-0.019,0.194l-0.02,0.193l-0.022,0.193l-0.022,0.192l-0.024,0.192l-0.025,0.191l-0.027,0.19l-0.027,0.189l-0.058,0.378l-0.031,0.188l-0.033,0.187l-0.033,0.186l-0.034,0.186l-0.036,0.185l-0.037,0.185l-0.038,0.184l-0.039,0.184l-0.082,0.364l-0.043,0.182l-0.044,0.181l-0.045,0.18l-0.047,0.18l-0.047,0.179l-0.049,0.178l-0.05,0.178l-0.051,0.177l-0.106,0.352l-0.055,0.175l-0.056,0.175l-0.057,0.174l-0.058,0.173l-0.06,0.172l-0.061,0.172l-0.061,0.171l-0.064,0.171l-0.064,0.17l-0.065,0.169l-0.067,0.169l-0.068,0.167l-0.069,0.168l-0.07,0.166l-0.072,0.166l-0.072,0.165l-0.074,0.165l-0.075,0.164l-0.154,0.326l-0.158,0.322l-0.082,0.161l-0.082,0.16l-0.083,0.159l-0.17,0.316l-0.087,0.157l-0.178,0.312l-0.09,0.155l-0.092,0.154l-0.093,0.153l-0.094,0.153l-0.095,0.152l-0.194,0.302l-0.099,0.15l-0.1,0.149l-0.101,0.149l-0.206,0.294l-0.105,0.147l-0.105,0.145l-0.107,0.145l-0.218,0.288l-0.11,0.143l-0.112,0.142l-0.113,0.141l-0.114,0.14l-0.115,0.14l-0.116,0.139l-0.236,0.276l-0.12,0.137l-0.121,0.136l-0.122,0.135l-0.123,0.135l-0.124,0.134l-0.126,0.133l-0.126,0.132l-0.128,0.132l-0.129,0.131l-0.13,0.13l-0.131,0.129l-0.132,0.129l-0.134,0.128l-0.134,0.127l-0.136,0.127l-0.137,0.125l-0.138,0.125l-0.139,0.125l-0.14,0.123l-0.141,0.123l-0.143,0.122l-0.143,0.121l-0.145,0.121l-0.145,0.119l-0.147,0.119l-0.148,0.119l-0.149,0.117l-0.15,0.117l-0.151,0.115l-0.152,0.115l-0.152,0.114l-0.154,0.113l-0.154,0.112l-0.156,0.111l-0.156,0.11l-0.157,0.11l-0.157,0.108l-0.159,0.107l-0.16,0.107l-0.16,0.105l-0.161,0.105l-0.162,0.104l-0.163,0.102l-0.164,0.102l-0.165,0.101l-0.165,0.1l-0.166,0.099l-0.168,0.098l-0.167,0.097l-0.169,0.096l-0.17,0.095l-0.171,0.095l-0.171,0.093l-0.172,0.092l-0.173,0.092l-0.174,0.09l-0.175,0.09l-0.175,0.089l-0.177,0.088l-0.177,0.086l-0.178,0.086l-0.179,0.085l-0.18,0.084l-0.18,0.083l-0.182,0.083l-0.182,0.081l-0.183,0.08l-0.368,0.158l-0.372,0.154l-0.187,0.076l-0.188,0.074l-0.189,0.074l-0.19,0.073l-0.19,0.072l-0.191,0.071l-0.192,0.07l-0.193,0.069l-0.194,0.069l-0.194,0.067l-0.392,0.132l-0.394,0.128l-0.199,0.063l-0.199,0.061l-0.2,0.061l-0.201,0.06l-0.202,0.059l-0.203,0.058l-0.203,0.057l-0.204,0.057l-0.205,0.055l-0.206,0.054l-0.207,0.054l-0.207,0.053l-0.418,0.102l-0.21,0.05l-0.21,0.049l-0.212,0.048l-0.212,0.047l-0.213,0.046l-0.214,0.045l-0.215,0.045l-0.215,0.043l-0.216,0.043l-0.217,0.041l-0.218,0.041l-0.219,0.04l-0.22,0.039l-0.22,0.038l-0.221,0.037l-0.222,0.036l-0.223,0.036l-0.223,0.034l-0.225,0.034l-0.225,0.032l-0.226,0.032l-0.226,0.031l-0.228,0.03l-0.228,0.029l-0.229,0.028l-0.23,0.027l-0.462,0.052l-0.466,0.048l-0.234,0.022l-0.235,0.022l-0.235,0.021l-0.236,0.02l-0.238,0.019l-0.476,0.036l-0.48,0.032l-0.241,0.014l-0.242,0.014l-0.243,0.013l-0.244,0.012l-0.244,0.011l-0.245,0.01l-0.246,0.01l-0.494,0.016l-0.498,0.012l-0.25,0.005l-0.251,0.004l-0.251,0.003l-0.506,0.004l-0.254,0l-0.337,-0.001l-0.339,-0.002l-0.341,-0.004l-0.342,-0.005l-0.344,-0.007l-0.345,-0.008l-0.347,-0.01l-0.349,-0.011l-0.35,-0.013l-0.352,-0.014l-0.353,-0.016l-0.355,-0.018l-0.357,-0.019l-0.358,-0.02l-0.36,-0.022l-0.361,-0.023l-0.364,-0.025l-0.364,-0.026l-0.367,-0.028l-0.368,-0.029l-0.369,-0.031l-0.372,-0.033l-0.373,-0.033l-0.374,-0.036l-0.376,-0.037l-0.378,-0.038l-0.379,-0.04l-0.381,-0.041l-0.383,-0.043l-0.384,-0.044l-0.386,-0.046l-0.388,-0.047l-0.389,-0.049l-0.391,-0.05l-0.392,-0.052l-0.394,-0.053l-0.396,-0.055l-0.397,-0.056l-0.399,-0.058l-0.401,-0.059l-0.402,-0.061l-0.404,-0.062l-0.406,-0.064l-0.407,-0.065l-0.409,-0.067l-0.41,-0.068l-0.412,-0.07l-0.414,-0.071l-0.415,-0.072l-0.417,-0.075l-0.419,-0.075l-0.42,-0.077l-0.422,-0.079l-0.423,-0.08l-0.425,-0.081l-0.427,-0.083l-0.429,-0.085l-0.43,-0.086l-0.432,-0.087l-0.433,-0.089l-0.435,-0.091l-0.437,-0.092l-0.438,-0.093l-1.622,-0.35l0,-18.9l2.527,1.077l0.434,0.183l0.432,0.18l0.43,0.177l0.428,0.174l0.426,0.171l0.423,0.168l0.422,0.165l0.42,0.162l0.417,0.159l0.415,0.156l0.414,0.154l0.411,0.15l0.409,0.147l0.407,0.144l0.405,0.142l0.402,0.138l0.401,0.135l0.399,0.133l0.396,0.129l0.395,0.127l0.392,0.124l0.39,0.12l0.388,0.118l0.386,0.115l0.384,0.111l0.381,0.109l0.38,0.106l0.377,0.103l0.375,0.1l0.374,0.097l0.371,0.094l0.368,0.091l0.367,0.089l0.365,0.085l0.362,0.082l0.361,0.08l0.358,0.076l0.356,0.074l0.354,0.07l0.352,0.068l0.349,0.065l0.348,0.062l0.345,0.059l0.343,0.056l0.341,0.053l0.339,0.05l0.336,0.047l0.335,0.045l0.332,0.041l0.33,0.039l0.328,0.036l0.326,0.033l0.324,0.03l0.321,0.027l0.32,0.024l0.317,0.021l0.315,0.019l0.313,0.015l0.31,0.013l0.309,0.01l0.306,0.007l0.304,0.005l0.303,0.001l0.208,-0.001l0.207,-0.002l0.206,-0.004l0.204,-0.005l0.203,-0.007l0.201,-0.008l0.199,-0.009l0.198,-0.012l0.196,-0.012l0.194,-0.014l0.193,-0.016l0.192,-0.017l0.189,-0.018l0.188,-0.02l0.187,-0.021l0.185,-0.023l0.183,-0.024l0.181,-0.026l0.18,-0.027l0.179,-0.028l0.176,-0.03l0.176,-0.032l0.173,-0.032l0.172,-0.034l0.171,-0.036l0.168,-0.037l0.167,-0.038l0.166,-0.04l0.164,-0.041l0.162,-0.042l0.161,-0.044l0.159,-0.045l0.158,-0.047l0.156,-0.048l0.154,-0.049l0.153,-0.051l0.152,-0.052l0.15,-0.053l0.148,-0.055l0.147,-0.055l0.145,-0.058l0.143,-0.058l0.143,-0.06l0.14,-0.062l0.139,-0.062l0.138,-0.064l0.136,-0.065l0.135,-0.067l0.133,-0.068l0.131,-0.069l0.131,-0.07l0.128,-0.072l0.128,-0.073l0.126,-0.074l0.124,-0.076l0.123,-0.077l0.122,-0.078l0.12,-0.08l0.119,-0.081l0.117,-0.082l0.116,-0.084l0.115,-0.085l0.113,-0.086l0.112,-0.088l0.111,-0.089l0.109,-0.089l0.106,-0.09l0.105,-0.092l0.103,-0.092l0.101,-0.092l0.098,-0.094l0.097,-0.094l0.095,-0.095l0.094,-0.096l0.091,-0.097l0.089,-0.097l0.088,-0.099l0.086,-0.099l0.084,-0.1l0.082,-0.101l0.08,-0.101l0.079,-0.103l0.077,-0.103l0.075,-0.104l0.073,-0.106l0.072,-0.106l0.07,-0.106l0.068,-0.108l0.066,-0.109l0.065,-0.11l0.063,-0.11l0.061,-0.112l0.06,-0.112l0.058,-0.114l0.057,-0.114l0.054,-0.116l0.053,-0.116l0.052,-0.118l0.05,-0.119l0.048,-0.119l0.046,-0.121l0.045,-0.122l0.044,-0.123l0.041,-0.125l0.04,-0.125l0.038,-0.126l0.037,-0.128l0.035,-0.129l0.034,-0.13l0.031,-0.131l0.03,-0.133l0.029,-0.134l0.027,-0.135l0.025,-0.136l0.023,-0.138l0.022,-0.138l0.02,-0.141l0.018,-0.141l0.017,-0.143l0.015,-0.144l0.013,-0.145l0.011,-0.147l0.01,-0.148l0.008,-0.149l0.006,-0.151l0.004,-0.152l0.003,-0.153l0.001,-0.156l-0.001,-0.121l-0.001,-0.122l-0.003,-0.121l-0.004,-0.12l-0.005,-0.12l-0.006,-0.118l-0.007,-0.118l-0.009,-0.117l-0.009,-0.116l-0.01,-0.116l-0.012,-0.114l-0.013,-0.114l-0.013,-0.113l-0.015,-0.112l-0.016,-0.112l-0.017,-0.111l-0.018,-0.11l-0.019,-0.109l-0.02,-0.109l-0.021,-0.107l-0.022,-0.108l-0.048,-0.212l-0.025,-0.105l-0.027,-0.104l-0.027,-0.103l-0.029,-0.103l-0.029,-0.102l-0.031,-0.102l-0.064,-0.2l-0.034,-0.1l-0.035,-0.098l-0.072,-0.196l-0.038,-0.097l-0.039,-0.096l-0.04,-0.095l-0.041,-0.095l-0.042,-0.094l-0.043,-0.094l-0.044,-0.093l-0.092,-0.184l-0.047,-0.092l-0.048,-0.09l-0.05,-0.091l-0.05,-0.089l-0.104,-0.178l-0.054,-0.087l-0.055,-0.088l-0.056,-0.087l-0.057,-0.086l-0.058,-0.086l-0.059,-0.085l-0.06,-0.085l-0.124,-0.168l-0.064,-0.083l-0.065,-0.083l-0.066,-0.083l-0.067,-0.081l-0.068,-0.082l-0.07,-0.081l-0.073,-0.083l-0.075,-0.084l-0.077,-0.085l-0.08,-0.086l-0.083,-0.087l-0.085,-0.088l-0.087,-0.088l-0.089,-0.09l-0.092,-0.09l-0.095,-0.092l-0.096,-0.092l-0.1,-0.093l-0.101,-0.093l-0.104,-0.095l-0.107,-0.095l-0.108,-0.096l-0.112,-0.097l-0.113,-0.098l-0.116,-0.098l-0.118,-0.1l-0.121,-0.099l-0.123,-0.101l-0.125,-0.101l-0.128,-0.103l-0.13,-0.102l-0.132,-0.104l-0.135,-0.104l-0.137,-0.105l-0.14,-0.105l-0.142,-0.107l-0.144,-0.107l-0.146,-0.107l-0.149,-0.108l-0.151,-0.109l-0.154,-0.11l-0.156,-0.11l-0.158,-0.111l-0.16,-0.111l-0.163,-0.113l-0.165,-0.112l-0.167,-0.114l-0.17,-0.114l-0.172,-0.115l-0.175,-0.115l-0.176,-0.116l-0.179,-0.116l-0.18,-0.117l-0.371,-0.237l-0.379,-0.238l-0.387,-0.241l-0.397,-0.244l-0.406,-0.246l-0.416,-0.248l-0.424,-0.251l-0.43,-0.25l-5.866,-3.338l-0.374,-0.216l-0.369,-0.215l-0.364,-0.214l-0.362,-0.215l-0.358,-0.214l-0.355,-0.213l-0.351,-0.214l-0.348,-0.213l-0.345,-0.213l-0.342,-0.213l-0.338,-0.213l-0.335,-0.212l-0.331,-0.213l-0.328,-0.212l-0.325,-0.212l-0.322,-0.211l-0.318,-0.212l-0.315,-0.211l-0.312,-0.211l-0.308,-0.211l-0.305,-0.21l-0.302,-0.211l-0.298,-0.21l-0.295,-0.21l-0.292,-0.21l-0.288,-0.21l-0.285,-0.21l-0.282,-0.209l-0.279,-0.209l-0.275,-0.209l-0.272,-0.209l-0.268,-0.209l-0.266,-0.209l-0.262,-0.208l-0.259,-0.208l-0.255,-0.208l-0.252,-0.208l-0.249,-0.208l-0.245,-0.208l-0.243,-0.208l-0.239,-0.207l-0.235,-0.208l-0.233,-0.207l-0.229,-0.207l-0.225,-0.207l-0.223,-0.207l-0.219,-0.207l-0.216,-0.207l-0.212,-0.206l-0.21,-0.207l-0.205,-0.207l-0.203,-0.206l-0.199,-0.207l-0.197,-0.206l-0.192,-0.207l-0.19,-0.206l-0.186,-0.206l-0.183,-0.207l-0.179,-0.206l-0.176,-0.206l-0.173,-0.206l-0.17,-0.207l-0.166,-0.206l-0.163,-0.207l-0.16,-0.207l-0.158,-0.208l-0.155,-0.209l-0.153,-0.211l-0.15,-0.212l-0.148,-0.212l-0.145,-0.215l-0.143,-0.215l-0.14,-0.216l-0.138,-0.218l-0.135,-0.218l-0.133,-0.22l-0.13,-0.221l-0.128,-0.222l-0.126,-0.224l-0.122,-0.224l-0.121,-0.226l-0.117,-0.226l-0.116,-0.228l-0.113,-0.229l-0.11,-0.23l-0.108,-0.231l-0.105,-0.233l-0.102,-0.233l-0.101,-0.234l-0.097,-0.236l-0.095,-0.237l-0.093,-0.237l-0.09,-0.239l-0.087,-0.24l-0.085,-0.241l-0.082,-0.242l-0.08,-0.243l-0.077,-0.244l-0.075,-0.245l-0.072,-0.246l-0.07,-0.247l-0.067,-0.248l-0.064,-0.249l-0.062,-0.25l-0.06,-0.252l-0.057,-0.252l-0.054,-0.253l-0.052,-0.254l-0.049,-0.255l-0.047,-0.256l-0.044,-0.258l-0.041,-0.258l-0.039,-0.259l-0.037,-0.26l-0.034,-0.261l-0.031,-0.262l-0.029,-0.263l-0.027,-0.263l-0.023,-0.265l-0.022,-0.266l-0.019,-0.266l-0.016,-0.268l-0.014,-0.269l-0.011,-0.269l-0.009,-0.27l-0.006,-0.272l-0.004,-0.272l-0.001,-0.272l0.001,-0.183l0.001,-0.181l0.003,-0.181l0.003,-0.18l0.005,-0.18l0.005,-0.179l0.007,-0.179l0.008,-0.179l0.008,-0.177l0.01,-0.178l0.011,-0.177l0.012,-0.176l0.013,-0.176l0.013,-0.175l0.015,-0.175l0.016,-0.175l0.017,-0.174l0.018,-0.173l0.019,-0.173l0.02,-0.173l0.021,-0.172l0.022,-0.171l0.048,-0.342l0.025,-0.17l0.026,-0.169l0.028,-0.17l0.028,-0.168l0.06,-0.336l0.032,-0.167l0.032,-0.166l0.068,-0.332l0.036,-0.165l0.037,-0.164l0.038,-0.164l0.078,-0.326l0.041,-0.163l0.042,-0.162l0.043,-0.161l0.09,-0.322l0.046,-0.159l0.047,-0.16l0.048,-0.158l0.05,-0.159l0.05,-0.157l0.052,-0.158l0.052,-0.156l0.108,-0.312l0.056,-0.155l0.057,-0.155l0.058,-0.154l0.058,-0.153l0.06,-0.153l0.061,-0.152l0.062,-0.152l0.063,-0.152l0.064,-0.15l0.132,-0.3l0.067,-0.149l0.068,-0.149l0.07,-0.148l0.07,-0.147l0.071,-0.147l0.146,-0.292l0.075,-0.145l0.076,-0.145l0.076,-0.144l0.078,-0.143l0.079,-0.143l0.16,-0.284l0.082,-0.141l0.083,-0.141l0.084,-0.14l0.085,-0.139l0.086,-0.139l0.087,-0.138l0.088,-0.138l0.09,-0.137l0.09,-0.136l0.091,-0.136l0.092,-0.136l0.188,-0.268l0.095,-0.134l0.096,-0.133l0.196,-0.264l0.2,-0.262l0.102,-0.13l0.102,-0.129l0.103,-0.129l0.105,-0.128l0.105,-0.127l0.107,-0.127l0.108,-0.127l0.108,-0.126l0.11,-0.125l0.11,-0.124l0.112,-0.124l0.112,-0.123l0.114,-0.123l0.114,-0.122l0.116,-0.122l0.117,-0.121l0.117,-0.12l0.119,-0.12l0.119,-0.119l0.242,-0.236l0.246,-0.234l0.125,-0.116l0.125,-0.115l0.127,-0.115l0.127,-0.114l0.129,-0.114l0.129,-0.113l0.13,-0.112l0.132,-0.112l0.132,-0.111l0.133,-0.11l0.133,-0.109l0.134,-0.108l0.135,-0.108l0.136,-0.107l0.136,-0.105l0.137,-0.105l0.137,-0.104l0.139,-0.104l0.138,-0.102l0.28,-0.202l0.141,-0.1l0.141,-0.098l0.142,-0.098l0.143,-0.097l0.144,-0.097l0.144,-0.095l0.144,-0.094l0.146,-0.094l0.292,-0.184l0.148,-0.091l0.148,-0.09l0.148,-0.089l0.15,-0.089l0.3,-0.174l0.151,-0.085l0.152,-0.085l0.153,-0.084l0.153,-0.083l0.153,-0.082l0.31,-0.162l0.312,-0.158l0.314,-0.154l0.158,-0.076l0.159,-0.075l0.16,-0.074l0.32,-0.146l0.324,-0.142l0.162,-0.07l0.163,-0.069l0.164,-0.068l0.165,-0.067l0.165,-0.066l0.165,-0.065l0.167,-0.065l0.334,-0.126l0.168,-0.062l0.169,-0.061l0.169,-0.06l0.17,-0.059l0.342,-0.116l0.344,-0.112l0.173,-0.055l0.174,-0.054l0.174,-0.053l0.175,-0.052l0.175,-0.051l0.176,-0.051l0.354,-0.098l0.178,-0.047l0.179,-0.047l0.358,-0.092l0.181,-0.044l0.18,-0.043l0.182,-0.043l0.182,-0.041l0.183,-0.041l0.183,-0.04l0.184,-0.039l0.184,-0.038l0.185,-0.038l0.372,-0.072l0.374,-0.068l0.188,-0.033l0.378,-0.064l0.19,-0.03l0.19,-0.029l0.191,-0.029l0.192,-0.028l0.192,-0.027l0.193,-0.026l0.193,-0.025l0.194,-0.024l0.195,-0.024l0.39,-0.044l0.197,-0.021l0.197,-0.02l0.197,-0.019l0.198,-0.019l0.398,-0.034l0.4,-0.03l0.201,-0.014l0.404,-0.026l0.406,-0.022l0.204,-0.01l0.205,-0.009l0.205,-0.008l0.206,-0.007l0.206,-0.006l0.207,-0.006l0.416,-0.008l0.208,-0.003l0.42,-0.004Z" style="fill:#555;"/><path d="M295.621,49.268l13.932,0l0,14.23l-13.932,0l0,31.218l0.001,0.183l0.001,0.18l0.003,0.178l0.004,0.177l0.005,0.175l0.006,0.173l0.008,0.171l0.008,0.17l0.01,0.168l0.01,0.167l0.012,0.165l0.013,0.163l0.014,0.162l0.015,0.159l0.016,0.158l0.017,0.157l0.018,0.155l0.02,0.153l0.02,0.151l0.022,0.15l0.022,0.148l0.024,0.147l0.024,0.145l0.026,0.143l0.027,0.141l0.028,0.14l0.028,0.138l0.03,0.136l0.031,0.134l0.032,0.133l0.032,0.132l0.034,0.129l0.035,0.128l0.035,0.126l0.037,0.125l0.076,0.244l0.04,0.119l0.04,0.118l0.041,0.116l0.043,0.114l0.043,0.113l0.044,0.111l0.045,0.11l0.046,0.108l0.046,0.106l0.048,0.105l0.049,0.103l0.049,0.101l0.05,0.1l0.051,0.098l0.052,0.096l0.053,0.096l0.053,0.093l0.055,0.092l0.055,0.09l0.056,0.089l0.057,0.088l0.057,0.085l0.059,0.085l0.059,0.083l0.06,0.081l0.061,0.08l0.062,0.079l0.063,0.077l0.063,0.076l0.064,0.075l0.065,0.073l0.066,0.071l0.067,0.071l0.068,0.069l0.068,0.068l0.07,0.067l0.07,0.065l0.071,0.064l0.072,0.063l0.073,0.061l0.074,0.061l0.075,0.059l0.076,0.058l0.077,0.057l0.077,0.055l0.079,0.055l0.08,0.053l0.081,0.052l0.082,0.051l0.083,0.05l0.084,0.049l0.085,0.048l0.087,0.047l0.087,0.045l0.089,0.044l0.09,0.044l0.091,0.042l0.092,0.041l0.094,0.04l0.095,0.038l0.096,0.038l0.097,0.036l0.098,0.036l0.1,0.034l0.101,0.033l0.103,0.032l0.104,0.031l0.105,0.03l0.106,0.028l0.108,0.027l0.109,0.026l0.111,0.025l0.112,0.024l0.113,0.023l0.115,0.021l0.116,0.02l0.117,0.019l0.119,0.017l0.121,0.017l0.122,0.015l0.123,0.014l0.124,0.012l0.126,0.011l0.128,0.01l0.129,0.009l0.13,0.007l0.132,0.006l0.133,0.005l0.135,0.003l0.136,0.002l0.136,0.001l0.125,-0.001l0.127,-0.002l0.128,-0.004l0.131,-0.005l0.133,-0.006l0.135,-0.009l0.137,-0.009l0.139,-0.012l0.141,-0.012l0.143,-0.015l0.146,-0.016l0.147,-0.017l0.15,-0.019l0.151,-0.021l0.154,-0.022l0.156,-0.024l0.158,-0.026l0.159,-0.027l0.162,-0.029l0.164,-0.03l0.165,-0.032l0.168,-0.033l0.17,-0.036l0.172,-0.037l0.173,-0.038l0.176,-0.04l0.177,-0.042l0.18,-0.044l0.181,-0.045l0.184,-0.046l0.185,-0.049l2.079,-0.556l0,14l-1.467,0.436l-0.392,0.114l-0.388,0.111l-0.382,0.107l-0.378,0.103l-0.372,0.1l-0.368,0.096l-0.363,0.092l-0.358,0.089l-0.353,0.085l-0.348,0.081l-0.343,0.078l-0.339,0.074l-0.333,0.07l-0.329,0.067l-0.324,0.063l-0.32,0.059l-0.314,0.056l-0.31,0.052l-0.306,0.048l-0.3,0.045l-0.296,0.04l-0.29,0.037l-0.146,0.017l-0.143,0.016l-0.142,0.016l-0.141,0.014l-0.139,0.013l-0.139,0.012l-0.137,0.012l-0.137,0.01l-0.135,0.01l-0.134,0.008l-0.133,0.007l-0.132,0.007l-0.131,0.005l-0.13,0.005l-0.129,0.003l-0.128,0.003l-0.126,0.002l-0.126,0l-0.367,-0.001l-0.363,-0.005l-0.362,-0.006l-0.359,-0.01l-0.356,-0.012l-0.353,-0.016l-0.351,-0.018l-0.348,-0.02l-0.346,-0.024l-0.343,-0.026l-0.341,-0.029l-0.338,-0.032l-0.335,-0.035l-0.333,-0.038l-0.328,-0.04l-0.166,-0.021l-0.164,-0.022l-0.163,-0.023l-0.162,-0.023l-0.161,-0.024l-0.161,-0.025l-0.32,-0.052l-0.159,-0.027l-0.316,-0.056l-0.157,-0.029l-0.312,-0.06l-0.155,-0.032l-0.308,-0.064l-0.306,-0.068l-0.152,-0.035l-0.151,-0.035l-0.15,-0.036l-0.15,-0.037l-0.149,-0.038l-0.149,-0.039l-0.148,-0.039l-0.147,-0.04l-0.147,-0.041l-0.146,-0.041l-0.145,-0.042l-0.145,-0.043l-0.144,-0.044l-0.143,-0.044l-0.143,-0.045l-0.142,-0.046l-0.141,-0.046l-0.141,-0.048l-0.14,-0.048l-0.139,-0.048l-0.139,-0.05l-0.138,-0.05l-0.137,-0.051l-0.137,-0.052l-0.136,-0.052l-0.136,-0.053l-0.134,-0.054l-0.134,-0.055l-0.134,-0.056l-0.133,-0.056l-0.132,-0.057l-0.262,-0.116l-0.13,-0.059l-0.129,-0.06l-0.129,-0.061l-0.128,-0.061l-0.254,-0.126l-0.126,-0.063l-0.25,-0.13l-0.124,-0.066l-0.246,-0.134l-0.121,-0.069l-0.122,-0.069l-0.12,-0.069l-0.12,-0.071l-0.119,-0.071l-0.118,-0.072l-0.118,-0.073l-0.117,-0.074l-0.116,-0.074l-0.116,-0.075l-0.114,-0.076l-0.115,-0.076l-0.226,-0.156l-0.112,-0.079l-0.111,-0.079l-0.111,-0.081l-0.109,-0.081l-0.218,-0.164l-0.214,-0.168l-0.106,-0.085l-0.106,-0.086l-0.105,-0.086l-0.103,-0.087l-0.104,-0.088l-0.204,-0.178l-0.101,-0.09l-0.1,-0.091l-0.1,-0.092l-0.098,-0.092l-0.098,-0.093l-0.098,-0.094l-0.096,-0.094l-0.096,-0.096l-0.095,-0.096l-0.094,-0.097l-0.093,-0.097l-0.093,-0.098l-0.092,-0.099l-0.182,-0.2l-0.089,-0.101l-0.089,-0.102l-0.088,-0.103l-0.087,-0.103l-0.087,-0.104l-0.086,-0.105l-0.085,-0.105l-0.084,-0.107l-0.083,-0.106l-0.083,-0.108l-0.082,-0.108l-0.081,-0.109l-0.16,-0.22l-0.078,-0.111l-0.078,-0.112l-0.154,-0.226l-0.15,-0.228l-0.074,-0.115l-0.073,-0.116l-0.073,-0.117l-0.072,-0.117l-0.07,-0.118l-0.14,-0.238l-0.068,-0.12l-0.068,-0.121l-0.067,-0.121l-0.066,-0.122l-0.065,-0.122l-0.065,-0.124l-0.064,-0.124l-0.063,-0.124l-0.124,-0.252l-0.06,-0.126l-0.06,-0.127l-0.059,-0.128l-0.116,-0.258l-0.057,-0.13l-0.056,-0.13l-0.055,-0.132l-0.054,-0.131l-0.054,-0.133l-0.052,-0.133l-0.053,-0.134l-0.051,-0.134l-0.1,-0.27l-0.049,-0.137l-0.048,-0.137l-0.047,-0.137l-0.047,-0.138l-0.046,-0.139l-0.045,-0.14l-0.088,-0.28l-0.043,-0.142l-0.042,-0.142l-0.041,-0.142l-0.04,-0.143l-0.04,-0.144l-0.039,-0.145l-0.038,-0.145l-0.037,-0.145l-0.037,-0.147l-0.036,-0.146l-0.035,-0.148l-0.034,-0.148l-0.034,-0.149l-0.033,-0.15l-0.032,-0.149l-0.062,-0.302l-0.03,-0.152l-0.029,-0.153l-0.028,-0.153l-0.054,-0.308l-0.026,-0.155l-0.026,-0.156l-0.024,-0.156l-0.024,-0.157l-0.023,-0.157l-0.022,-0.158l-0.022,-0.159l-0.021,-0.159l-0.02,-0.16l-0.019,-0.16l-0.019,-0.162l-0.018,-0.161l-0.017,-0.163l-0.032,-0.326l-0.015,-0.166l-0.028,-0.329l-0.024,-0.332l-0.022,-0.336l-0.019,-0.337l-0.016,-0.34l-0.013,-0.343l-0.01,-0.345l-0.007,-0.348l-0.005,-0.35l-0.001,-0.349l0,-33.59l-7.292,0l0,-14.23l7.292,0l0,-11.065l20.548,-2.417l0,13.482Z" style="fill:#555;"/><path d="M344.962,61.798l-0.308,0.001l-0.307,0.005l-0.307,0.007l-0.308,0.009l-0.307,0.013l-0.308,0.015l-0.308,0.018l-0.308,0.021l-0.308,0.024l-0.308,0.026l-0.308,0.029l-0.309,0.032l-0.309,0.035l-0.309,0.038l-0.309,0.04l-0.309,0.043l-0.309,0.046l-0.31,0.049l-0.31,0.052l-0.31,0.054l-0.31,0.057l-0.31,0.06l-0.311,0.063l-0.31,0.066l-0.311,0.068l-0.311,0.072l-0.312,0.074l-0.311,0.076l-0.312,0.08l-0.312,0.083l-0.312,0.085l-0.312,0.088l-0.313,0.091l-0.312,0.094l-0.313,0.097l-0.313,0.099l-0.314,0.102l-0.313,0.106l-0.314,0.108l-0.314,0.11l-0.314,0.114l-0.315,0.117l-0.315,0.119l-0.314,0.122l-0.316,0.125l-0.315,0.128l-0.315,0.131l-0.316,0.134l-0.316,0.136l-0.316,0.139l-0.317,0.143l-0.316,0.145l-0.317,0.148l-0.317,0.15l-0.318,0.154l-0.317,0.157l-0.318,0.159l-0.318,0.162l-0.318,0.166l-0.318,0.168l-0.319,0.171l-0.319,0.174l-0.319,0.176l-2.559,1.44l0,-15.979l1.338,-0.514l0.38,-0.143l0.379,-0.142l0.379,-0.139l0.38,-0.136l0.379,-0.135l0.379,-0.132l0.379,-0.13l0.379,-0.127l0.379,-0.126l0.379,-0.123l0.379,-0.12l0.379,-0.119l0.378,-0.116l0.379,-0.114l0.378,-0.112l0.379,-0.109l0.378,-0.107l0.379,-0.105l0.378,-0.102l0.378,-0.1l0.378,-0.098l0.378,-0.096l0.378,-0.093l0.378,-0.091l0.378,-0.089l0.377,-0.086l0.378,-0.084l0.377,-0.082l0.378,-0.079l0.377,-0.078l0.378,-0.075l0.377,-0.072l0.377,-0.071l0.377,-0.068l0.377,-0.065l0.377,-0.064l0.377,-0.061l0.376,-0.059l0.377,-0.056l0.377,-0.054l0.376,-0.052l0.376,-0.05l0.377,-0.047l0.376,-0.045l0.376,-0.043l0.376,-0.04l0.376,-0.038l0.376,-0.036l0.375,-0.034l0.376,-0.031l0.376,-0.029l0.375,-0.026l0.375,-0.025l0.376,-0.021l0.375,-0.02l0.375,-0.017l0.375,-0.015l0.375,-0.013l0.374,-0.011l0.375,-0.008l0.374,-0.005l0.375,-0.004l0.374,-0.001l0.407,0.001l0.405,0.004l0.401,0.007l0.398,0.009l0.396,0.012l0.392,0.014l0.39,0.017l0.386,0.02l0.384,0.022l0.381,0.025l0.377,0.027l0.375,0.03l0.372,0.033l0.369,0.036l0.366,0.038l0.363,0.04l0.36,0.044l0.357,0.046l0.354,0.049l0.352,0.051l0.346,0.054l0.175,0.028l0.173,0.029l0.342,0.06l0.17,0.03l0.17,0.032l0.168,0.032l0.168,0.033l0.167,0.033l0.167,0.034l0.166,0.035l0.165,0.036l0.164,0.036l0.164,0.037l0.162,0.038l0.163,0.038l0.322,0.078l0.159,0.041l0.16,0.041l0.158,0.041l0.158,0.043l0.157,0.043l0.312,0.088l0.154,0.045l0.154,0.046l0.154,0.047l0.152,0.047l0.152,0.048l0.151,0.049l0.15,0.049l0.15,0.05l0.149,0.051l0.148,0.051l0.148,0.052l0.146,0.053l0.146,0.054l0.145,0.054l0.145,0.055l0.144,0.056l0.143,0.056l0.142,0.057l0.141,0.058l0.141,0.059l0.14,0.059l0.278,0.12l0.138,0.062l0.136,0.062l0.137,0.063l0.135,0.063l0.135,0.065l0.134,0.065l0.133,0.065l0.133,0.067l0.132,0.067l0.13,0.068l0.131,0.068l0.258,0.14l0.128,0.07l0.127,0.072l0.126,0.072l0.126,0.073l0.125,0.074l0.124,0.074l0.123,0.075l0.123,0.076l0.122,0.077l0.121,0.077l0.12,0.078l0.238,0.158l0.118,0.08l0.117,0.081l0.232,0.164l0.114,0.083l0.114,0.084l0.226,0.17l0.111,0.086l0.111,0.087l0.11,0.087l0.109,0.089l0.216,0.178l0.212,0.182l0.105,0.092l0.104,0.092l0.104,0.094l0.103,0.094l0.101,0.094l0.101,0.096l0.1,0.096l0.1,0.097l0.098,0.097l0.098,0.099l0.096,0.099l0.192,0.2l0.094,0.101l0.093,0.102l0.093,0.103l0.092,0.103l0.091,0.104l0.09,0.105l0.089,0.105l0.088,0.106l0.088,0.107l0.086,0.107l0.086,0.109l0.085,0.109l0.084,0.109l0.083,0.11l0.083,0.111l0.162,0.224l0.08,0.113l0.079,0.114l0.078,0.114l0.077,0.115l0.152,0.232l0.074,0.117l0.074,0.118l0.073,0.118l0.072,0.119l0.071,0.12l0.07,0.12l0.069,0.121l0.069,0.122l0.067,0.122l0.067,0.123l0.066,0.124l0.065,0.124l0.064,0.125l0.063,0.125l0.063,0.127l0.061,0.126l0.061,0.128l0.059,0.128l0.059,0.129l0.058,0.129l0.114,0.26l0.055,0.132l0.108,0.264l0.053,0.133l0.052,0.134l0.051,0.134l0.05,0.135l0.049,0.135l0.048,0.137l0.048,0.136l0.047,0.138l0.09,0.276l0.044,0.139l0.044,0.14l0.042,0.14l0.041,0.142l0.041,0.141l0.04,0.142l0.039,0.143l0.038,0.143l0.037,0.144l0.072,0.29l0.068,0.292l0.033,0.147l0.032,0.147l0.031,0.149l0.03,0.148l0.03,0.15l0.029,0.149l0.054,0.302l0.026,0.151l0.026,0.153l0.024,0.152l0.024,0.154l0.044,0.308l0.021,0.155l0.04,0.312l0.036,0.314l0.017,0.158l0.016,0.159l0.015,0.159l0.015,0.16l0.013,0.16l0.013,0.161l0.012,0.162l0.011,0.162l0.01,0.162l0.01,0.164l0.008,0.163l0.008,0.165l0.007,0.165l0.006,0.165l0.005,0.166l0.005,0.167l0.003,0.167l0.003,0.168l0.004,0.337l0,29.668l0.001,0.232l0.004,0.223l0.005,0.22l0.008,0.214l0.01,0.211l0.012,0.206l0.014,0.202l0.017,0.197l0.018,0.193l0.021,0.189l0.023,0.183l0.024,0.18l0.028,0.178l0.013,0.083l0.03,0.168l0.015,0.082l0.016,0.081l0.017,0.081l0.034,0.156l0.018,0.077l0.018,0.075l0.019,0.075l0.019,0.073l0.019,0.072l0.02,0.071l0.02,0.069l0.021,0.069l0.021,0.067l0.021,0.066l0.022,0.066l0.022,0.063l0.023,0.063l0.023,0.062l0.023,0.06l0.023,0.059l0.024,0.059l0.024,0.057l0.025,0.056l0.024,0.054l0.025,0.054l0.051,0.104l0.026,0.05l0.026,0.049l0.026,0.048l0.027,0.047l0.026,0.046l0.027,0.045l0.027,0.044l0.028,0.043l0.027,0.042l0.056,0.08l0.028,0.039l0.028,0.038l0.028,0.037l0.029,0.035l0.028,0.035l0.058,0.068l0.059,0.063l0.059,0.061l0.03,0.029l0.03,0.028l0.031,0.028l0.03,0.026l0.062,0.052l0.062,0.048l0.032,0.024l0.032,0.023l0.032,0.022l0.066,0.042l0.034,0.021l0.033,0.019l0.034,0.02l0.035,0.018l0.035,0.019l0.108,0.051l0.037,0.016l0.038,0.016l0.038,0.015l0.039,0.015l0.039,0.014l0.04,0.013l0.082,0.026l0.042,0.012l0.043,0.012l0.044,0.01l0.044,0.011l0.045,0.01l0.046,0.009l0.047,0.009l0.047,0.008l0.049,0.008l0.049,0.007l0.1,0.012l0.052,0.005l0.106,0.008l0.054,0.003l0.055,0.003l0.056,0.002l0.057,0.001l0.056,0l0.091,-0.001l0.094,-0.002l0.1,-0.004l0.106,-0.006l0.111,-0.007l0.117,-0.009l0.122,-0.011l0.127,-0.013l0.132,-0.014l0.137,-0.017l0.142,-0.018l0.147,-0.02l0.152,-0.022l0.156,-0.024l0.162,-0.026l1.847,-0.309l0.533,12.938l-1.466,0.441l-0.354,0.104l-0.352,0.101l-0.35,0.098l-0.348,0.094l-0.345,0.091l-0.342,0.087l-0.341,0.084l-0.338,0.081l-0.336,0.078l-0.333,0.074l-0.331,0.07l-0.329,0.068l-0.327,0.063l-0.324,0.061l-0.322,0.057l-0.32,0.054l-0.318,0.05l-0.315,0.047l-0.313,0.044l-0.311,0.04l-0.307,0.036l-0.155,0.017l-0.153,0.017l-0.152,0.015l-0.304,0.028l-0.15,0.013l-0.15,0.012l-0.15,0.011l-0.149,0.01l-0.148,0.009l-0.296,0.016l-0.147,0.006l-0.146,0.006l-0.146,0.005l-0.145,0.004l-0.144,0.003l-0.288,0.004l-0.143,0l-0.178,-0.001l-0.176,-0.001l-0.176,-0.003l-0.175,-0.004l-0.175,-0.005l-0.173,-0.006l-0.173,-0.008l-0.172,-0.008l-0.17,-0.01l-0.171,-0.01l-0.169,-0.012l-0.168,-0.013l-0.168,-0.014l-0.167,-0.016l-0.166,-0.016l-0.165,-0.018l-0.164,-0.018l-0.164,-0.02l-0.162,-0.021l-0.162,-0.023l-0.161,-0.023l-0.16,-0.025l-0.318,-0.052l-0.314,-0.058l-0.156,-0.03l-0.155,-0.032l-0.154,-0.033l-0.154,-0.034l-0.152,-0.035l-0.152,-0.037l-0.151,-0.037l-0.15,-0.039l-0.149,-0.04l-0.148,-0.041l-0.148,-0.043l-0.292,-0.088l-0.145,-0.047l-0.144,-0.047l-0.143,-0.049l-0.142,-0.049l-0.142,-0.051l-0.28,-0.106l-0.138,-0.055l-0.138,-0.056l-0.137,-0.057l-0.136,-0.059l-0.135,-0.059l-0.134,-0.061l-0.134,-0.062l-0.132,-0.064l-0.131,-0.064l-0.131,-0.066l-0.258,-0.136l-0.127,-0.07l-0.127,-0.071l-0.126,-0.072l-0.124,-0.073l-0.124,-0.075l-0.123,-0.076l-0.122,-0.077l-0.121,-0.078l-0.119,-0.08l-0.119,-0.081l-0.118,-0.082l-0.117,-0.083l-0.23,-0.17l-0.114,-0.088l-0.112,-0.088l-0.112,-0.089l-0.111,-0.091l-0.109,-0.092l-0.109,-0.093l-0.107,-0.094l-0.107,-0.096l-0.105,-0.096l-0.104,-0.098l-0.103,-0.099l-0.102,-0.101l-0.101,-0.101l-0.1,-0.103l-0.099,-0.103l-0.194,-0.212l-0.095,-0.107l-0.095,-0.108l-0.093,-0.11l-0.092,-0.11l-0.091,-0.112l-0.09,-0.113l-0.089,-0.114l-0.174,-0.232l-0.085,-0.117l-0.168,-0.238l-0.082,-0.121l-0.16,-0.244l-0.079,-0.124l-0.077,-0.125l-0.077,-0.126l-0.075,-0.127l-0.074,-0.128l-0.073,-0.13l-0.072,-0.13l-0.071,-0.131l-0.069,-0.132l-0.069,-0.134l-0.067,-0.134l-0.067,-0.135l-0.063,-0.132l-0.089,0.082l-0.144,0.132l-0.288,0.26l-0.144,0.128l-0.144,0.127l-0.145,0.126l-0.145,0.125l-0.145,0.124l-0.145,0.123l-0.146,0.122l-0.146,0.121l-0.145,0.12l-0.147,0.118l-0.146,0.118l-0.146,0.117l-0.294,0.23l-0.147,0.113l-0.148,0.112l-0.147,0.112l-0.148,0.11l-0.148,0.109l-0.149,0.108l-0.148,0.107l-0.149,0.106l-0.149,0.105l-0.149,0.104l-0.149,0.103l-0.15,0.101l-0.149,0.101l-0.15,0.099l-0.151,0.099l-0.15,0.097l-0.302,0.192l-0.151,0.094l-0.151,0.093l-0.151,0.092l-0.152,0.091l-0.152,0.09l-0.152,0.088l-0.153,0.088l-0.152,0.086l-0.153,0.086l-0.306,0.168l-0.154,0.082l-0.153,0.081l-0.154,0.08l-0.154,0.079l-0.155,0.078l-0.154,0.076l-0.155,0.076l-0.155,0.075l-0.155,0.073l-0.155,0.072l-0.156,0.072l-0.156,0.07l-0.156,0.069l-0.156,0.068l-0.156,0.067l-0.157,0.066l-0.314,0.128l-0.157,0.062l-0.157,0.061l-0.158,0.061l-0.158,0.059l-0.158,0.058l-0.158,0.057l-0.158,0.055l-0.159,0.055l-0.159,0.054l-0.159,0.052l-0.318,0.102l-0.16,0.049l-0.16,0.048l-0.32,0.092l-0.16,0.045l-0.161,0.043l-0.322,0.084l-0.161,0.04l-0.161,0.039l-0.161,0.038l-0.324,0.072l-0.324,0.068l-0.162,0.032l-0.163,0.031l-0.163,0.03l-0.163,0.029l-0.326,0.054l-0.163,0.025l-0.164,0.025l-0.163,0.023l-0.164,0.022l-0.164,0.021l-0.164,0.02l-0.165,0.018l-0.164,0.018l-0.33,0.032l-0.165,0.014l-0.165,0.013l-0.165,0.012l-0.165,0.01l-0.166,0.01l-0.165,0.008l-0.166,0.008l-0.166,0.006l-0.166,0.005l-0.167,0.004l-0.166,0.003l-0.166,0.001l-0.168,0.001l-0.28,-0.001l-0.279,-0.004l-0.278,-0.007l-0.277,-0.01l-0.275,-0.012l-0.274,-0.016l-0.272,-0.018l-0.271,-0.02l-0.269,-0.024l-0.269,-0.026l-0.266,-0.03l-0.266,-0.032l-0.264,-0.034l-0.262,-0.038l-0.261,-0.04l-0.26,-0.044l-0.258,-0.046l-0.256,-0.049l-0.256,-0.052l-0.253,-0.054l-0.253,-0.058l-0.25,-0.06l-0.25,-0.063l-0.248,-0.066l-0.246,-0.069l-0.245,-0.072l-0.243,-0.074l-0.242,-0.078l-0.24,-0.08l-0.239,-0.084l-0.237,-0.086l-0.236,-0.089l-0.231,-0.091l-0.119,-0.048l-0.116,-0.047l-0.116,-0.049l-0.115,-0.049l-0.115,-0.05l-0.114,-0.05l-0.228,-0.104l-0.113,-0.052l-0.113,-0.054l-0.112,-0.054l-0.112,-0.055l-0.112,-0.056l-0.111,-0.056l-0.111,-0.057l-0.22,-0.116l-0.109,-0.059l-0.109,-0.06l-0.109,-0.061l-0.108,-0.061l-0.108,-0.062l-0.108,-0.063l-0.107,-0.063l-0.106,-0.065l-0.106,-0.064l-0.106,-0.066l-0.105,-0.066l-0.105,-0.067l-0.105,-0.068l-0.104,-0.068l-0.103,-0.069l-0.103,-0.07l-0.103,-0.071l-0.102,-0.071l-0.102,-0.072l-0.101,-0.072l-0.202,-0.148l-0.1,-0.074l-0.099,-0.076l-0.1,-0.076l-0.098,-0.077l-0.099,-0.077l-0.097,-0.078l-0.098,-0.079l-0.097,-0.08l-0.096,-0.08l-0.096,-0.081l-0.098,-0.083l-0.188,-0.164l-0.188,-0.168l-0.186,-0.171l-0.185,-0.173l-0.182,-0.176l-0.181,-0.179l-0.179,-0.181l-0.176,-0.183l-0.173,-0.184l-0.17,-0.187l-0.168,-0.188l-0.165,-0.19l-0.163,-0.191l-0.159,-0.194l-0.155,-0.193l-0.079,-0.1l-0.077,-0.099l-0.076,-0.099l-0.15,-0.2l-0.074,-0.1l-0.073,-0.101l-0.072,-0.101l-0.072,-0.102l-0.071,-0.103l-0.071,-0.102l-0.069,-0.103l-0.069,-0.104l-0.069,-0.103l-0.134,-0.21l-0.132,-0.21l-0.065,-0.106l-0.064,-0.107l-0.126,-0.214l-0.062,-0.108l-0.061,-0.108l-0.06,-0.108l-0.06,-0.109l-0.059,-0.109l-0.059,-0.11l-0.057,-0.11l-0.114,-0.222l-0.055,-0.111l-0.055,-0.112l-0.054,-0.112l-0.106,-0.226l-0.052,-0.113l-0.102,-0.228l-0.05,-0.115l-0.049,-0.115l-0.049,-0.117l-0.094,-0.23l-0.092,-0.234l-0.089,-0.235l-0.086,-0.236l-0.083,-0.239l-0.08,-0.239l-0.077,-0.241l-0.075,-0.243l-0.072,-0.244l-0.068,-0.246l-0.066,-0.247l-0.064,-0.249l-0.06,-0.25l-0.057,-0.251l-0.055,-0.253l-0.052,-0.255l-0.049,-0.256l-0.046,-0.257l-0.043,-0.259l-0.04,-0.26l-0.038,-0.262l-0.035,-0.263l-0.032,-0.264l-0.029,-0.266l-0.026,-0.267l-0.024,-0.269l-0.02,-0.269l-0.018,-0.272l-0.016,-0.273l-0.012,-0.274l-0.01,-0.275l-0.007,-0.277l-0.004,-0.278l-0.001,-0.279l0.001,-0.182l0.001,-0.181l0.003,-0.181l0.004,-0.18l0.005,-0.179l0.006,-0.179l0.007,-0.178l0.009,-0.177l0.009,-0.178l0.022,-0.352l0.013,-0.175l0.014,-0.175l0.015,-0.174l0.016,-0.174l0.036,-0.346l0.02,-0.172l0.042,-0.342l0.023,-0.171l0.024,-0.169l0.052,-0.338l0.028,-0.168l0.028,-0.167l0.03,-0.167l0.031,-0.167l0.032,-0.165l0.033,-0.166l0.07,-0.328l0.037,-0.164l0.038,-0.162l0.039,-0.163l0.04,-0.161l0.041,-0.161l0.043,-0.161l0.043,-0.16l0.045,-0.159l0.046,-0.158l0.047,-0.159l0.048,-0.157l0.049,-0.157l0.102,-0.312l0.053,-0.155l0.054,-0.154l0.055,-0.154l0.056,-0.153l0.058,-0.153l0.058,-0.152l0.06,-0.151l0.061,-0.151l0.062,-0.15l0.063,-0.149l0.064,-0.149l0.132,-0.296l0.068,-0.147l0.069,-0.146l0.07,-0.145l0.071,-0.145l0.072,-0.145l0.074,-0.143l0.15,-0.286l0.077,-0.141l0.078,-0.141l0.08,-0.141l0.08,-0.139l0.164,-0.278l0.084,-0.137l0.085,-0.137l0.086,-0.136l0.087,-0.136l0.088,-0.135l0.09,-0.134l0.091,-0.134l0.091,-0.133l0.093,-0.132l0.094,-0.132l0.095,-0.13l0.096,-0.13l0.098,-0.13l0.098,-0.129l0.1,-0.128l0.1,-0.127l0.102,-0.127l0.103,-0.126l0.104,-0.125l0.105,-0.124l0.106,-0.124l0.216,-0.246l0.22,-0.242l0.112,-0.121l0.113,-0.119l0.114,-0.119l0.115,-0.118l0.116,-0.118l0.117,-0.116l0.118,-0.116l0.119,-0.116l0.242,-0.228l0.246,-0.226l0.125,-0.111l0.126,-0.111l0.127,-0.111l0.256,-0.218l0.13,-0.108l0.132,-0.108l0.132,-0.106l0.133,-0.106l0.134,-0.105l0.135,-0.105l0.137,-0.104l0.137,-0.103l0.138,-0.102l0.14,-0.102l0.14,-0.101l0.284,-0.2l0.144,-0.099l0.145,-0.098l0.145,-0.097l0.146,-0.096l0.148,-0.096l0.148,-0.095l0.149,-0.094l0.15,-0.093l0.151,-0.092l0.152,-0.092l0.152,-0.091l0.154,-0.09l0.154,-0.089l0.312,-0.176l0.157,-0.086l0.158,-0.086l0.159,-0.085l0.16,-0.085l0.161,-0.083l0.162,-0.083l0.162,-0.082l0.164,-0.081l0.164,-0.08l0.165,-0.079l0.166,-0.079l0.167,-0.078l0.168,-0.077l0.338,-0.152l0.171,-0.075l0.171,-0.073l0.172,-0.073l0.173,-0.073l0.174,-0.071l0.175,-0.071l0.176,-0.07l0.177,-0.069l0.177,-0.068l0.179,-0.068l0.179,-0.067l0.18,-0.066l0.181,-0.065l0.182,-0.064l0.183,-0.064l0.183,-0.062l0.37,-0.124l0.186,-0.06l0.187,-0.06l0.188,-0.059l0.189,-0.058l0.19,-0.057l0.19,-0.056l0.192,-0.056l0.192,-0.055l0.193,-0.054l0.194,-0.054l0.195,-0.052l0.196,-0.052l0.394,-0.102l0.398,-0.098l0.2,-0.048l0.201,-0.047l0.202,-0.046l0.203,-0.046l0.203,-0.045l0.205,-0.044l0.205,-0.043l0.206,-0.043l0.207,-0.042l0.208,-0.041l0.209,-0.04l0.21,-0.04l0.21,-0.038l0.424,-0.076l0.213,-0.036l0.214,-0.036l0.215,-0.035l0.216,-0.034l0.216,-0.033l0.218,-0.033l0.218,-0.032l0.219,-0.031l0.22,-0.03l0.221,-0.03l0.222,-0.029l0.223,-0.028l0.223,-0.027l0.225,-0.027l0.225,-0.026l0.226,-0.025l0.227,-0.024l0.228,-0.024l0.458,-0.044l0.231,-0.022l0.231,-0.02l0.232,-0.02l0.234,-0.019l0.233,-0.018l0.235,-0.018l0.236,-0.017l0.237,-0.016l0.237,-0.015l0.238,-0.015l0.48,-0.026l0.241,-0.013l0.484,-0.022l0.244,-0.01l0.244,-0.009l0.246,-0.009l0.246,-0.008l0.247,-0.007l0.249,-0.006l0.497,-0.011l0.502,-0.007l0.506,-0.005l0.507,-0.001l3.185,0l0,-4.567l-0.001,-0.151l-0.002,-0.147l-0.003,-0.146l-0.004,-0.144l-0.006,-0.142l-0.007,-0.141l-0.008,-0.14l-0.01,-0.138l-0.011,-0.137l-0.012,-0.135l-0.013,-0.133l-0.015,-0.133l-0.015,-0.13l-0.017,-0.129l-0.019,-0.128l-0.019,-0.126l-0.021,-0.125l-0.021,-0.123l-0.023,-0.122l-0.024,-0.121l-0.026,-0.119l-0.026,-0.117l-0.028,-0.116l-0.028,-0.115l-0.03,-0.113l-0.031,-0.111l-0.032,-0.111l-0.033,-0.108l-0.034,-0.108l-0.036,-0.106l-0.036,-0.104l-0.038,-0.104l-0.038,-0.102l-0.04,-0.1l-0.041,-0.099l-0.042,-0.098l-0.042,-0.096l-0.044,-0.096l-0.045,-0.093l-0.046,-0.093l-0.047,-0.091l-0.048,-0.09l-0.05,-0.089l-0.05,-0.087l-0.051,-0.087l-0.052,-0.085l-0.053,-0.084l-0.055,-0.083l-0.055,-0.081l-0.057,-0.081l-0.057,-0.079l-0.059,-0.078l-0.06,-0.077l-0.061,-0.076l-0.062,-0.075l-0.063,-0.074l-0.064,-0.073l-0.065,-0.072l-0.066,-0.071l-0.068,-0.07l-0.069,-0.069l-0.07,-0.068l-0.071,-0.067l-0.072,-0.066l-0.074,-0.065l-0.075,-0.064l-0.076,-0.063l-0.077,-0.062l-0.079,-0.062l-0.08,-0.06l-0.081,-0.06l-0.083,-0.058l-0.084,-0.058l-0.085,-0.057l-0.087,-0.056l-0.088,-0.055l-0.089,-0.054l-0.091,-0.053l-0.092,-0.052l-0.094,-0.052l-0.095,-0.05l-0.097,-0.05l-0.098,-0.048l-0.1,-0.048l-0.101,-0.047l-0.103,-0.046l-0.104,-0.045l-0.106,-0.043l-0.107,-0.043l-0.109,-0.042l-0.11,-0.042l-0.112,-0.04l-0.114,-0.039l-0.115,-0.038l-0.116,-0.037l-0.119,-0.036l-0.119,-0.035l-0.122,-0.034l-0.123,-0.033l-0.124,-0.033l-0.127,-0.031l-0.127,-0.029l-0.13,-0.029l-0.131,-0.028l-0.132,-0.027l-0.135,-0.026l-0.135,-0.024l-0.138,-0.024l-0.139,-0.022l-0.14,-0.022l-0.143,-0.02l-0.144,-0.019l-0.145,-0.018l-0.147,-0.017l-0.149,-0.016l-0.15,-0.014l-0.152,-0.014l-0.153,-0.012l-0.155,-0.011l-0.157,-0.01l-0.158,-0.009l-0.16,-0.008l-0.161,-0.006l-0.163,-0.005l-0.165,-0.005l-0.166,-0.003l-0.336,-0.002Zm10.059,26.771l-2.648,0l-0.259,0.001l-0.255,0.002l-0.253,0.003l-0.251,0.004l-0.248,0.006l-0.246,0.007l-0.244,0.009l-0.242,0.009l-0.24,0.011l-0.237,0.012l-0.235,0.014l-0.233,0.015l-0.231,0.016l-0.228,0.017l-0.227,0.019l-0.224,0.019l-0.221,0.022l-0.22,0.022l-0.217,0.023l-0.215,0.025l-0.213,0.026l-0.211,0.028l-0.208,0.028l-0.206,0.03l-0.204,0.031l-0.202,0.032l-0.199,0.034l-0.197,0.034l-0.195,0.036l-0.192,0.037l-0.191,0.038l-0.188,0.04l-0.185,0.04l-0.184,0.042l-0.181,0.043l-0.179,0.044l-0.177,0.045l-0.174,0.047l-0.172,0.047l-0.17,0.049l-0.167,0.05l-0.166,0.051l-0.163,0.052l-0.16,0.053l-0.159,0.054l-0.156,0.055l-0.154,0.057l-0.151,0.057l-0.15,0.059l-0.147,0.059l-0.145,0.061l-0.142,0.062l-0.141,0.062l-0.138,0.064l-0.136,0.065l-0.133,0.065l-0.132,0.067l-0.129,0.068l-0.127,0.068l-0.125,0.07l-0.122,0.071l-0.121,0.071l-0.118,0.072l-0.116,0.074l-0.114,0.074l-0.112,0.075l-0.109,0.077l-0.108,0.077l-0.105,0.078l-0.104,0.079l-0.101,0.079l-0.099,0.081l-0.098,0.082l-0.095,0.082l-0.093,0.084l-0.091,0.084l-0.09,0.085l-0.087,0.086l-0.086,0.087l-0.083,0.088l-0.082,0.089l-0.08,0.09l-0.078,0.091l-0.076,0.092l-0.074,0.093l-0.073,0.094l-0.071,0.094l-0.069,0.096l-0.067,0.097l-0.066,0.098l-0.064,0.099l-0.062,0.1l-0.061,0.102l-0.059,0.102l-0.057,0.104l-0.055,0.104l-0.054,0.106l-0.052,0.108l-0.051,0.108l-0.049,0.11l-0.047,0.111l-0.046,0.112l-0.044,0.114l-0.042,0.115l-0.041,0.116l-0.039,0.118l-0.037,0.119l-0.036,0.121l-0.034,0.122l-0.033,0.123l-0.031,0.125l-0.029,0.127l-0.027,0.128l-0.026,0.129l-0.024,0.131l-0.023,0.133l-0.02,0.134l-0.019,0.136l-0.017,0.137l-0.016,0.139l-0.013,0.14l-0.012,0.142l-0.01,0.144l-0.008,0.145l-0.007,0.147l-0.004,0.148l-0.003,0.15l-0.001,0.153l0.002,0.198l0.006,0.196l0.005,0.097l0.006,0.096l0.006,0.095l0.008,0.095l0.009,0.094l0.009,0.093l0.011,0.093l0.012,0.092l0.012,0.091l0.014,0.091l0.014,0.09l0.032,0.178l0.018,0.088l0.018,0.087l0.02,0.087l0.02,0.086l0.044,0.17l0.023,0.084l0.025,0.084l0.025,0.083l0.026,0.082l0.027,0.082l0.028,0.082l0.029,0.08l0.03,0.081l0.031,0.079l0.032,0.08l0.033,0.078l0.034,0.079l0.034,0.077l0.036,0.078l0.037,0.076l0.038,0.077l0.038,0.075l0.04,0.076l0.041,0.075l0.084,0.148l0.044,0.074l0.045,0.073l0.046,0.073l0.046,0.072l0.048,0.072l0.049,0.072l0.05,0.071l0.051,0.071l0.052,0.07l0.053,0.07l0.11,0.14l0.056,0.069l0.058,0.068l0.058,0.069l0.06,0.068l0.061,0.067l0.062,0.068l0.063,0.066l0.064,0.067l0.065,0.066l0.065,0.064l0.066,0.064l0.066,0.062l0.066,0.061l0.067,0.06l0.067,0.059l0.067,0.057l0.068,0.057l0.068,0.055l0.068,0.054l0.068,0.053l0.069,0.052l0.069,0.051l0.07,0.05l0.07,0.049l0.07,0.047l0.071,0.047l0.071,0.046l0.071,0.044l0.144,0.086l0.073,0.041l0.146,0.08l0.074,0.038l0.074,0.037l0.15,0.072l0.075,0.034l0.076,0.033l0.077,0.033l0.077,0.031l0.077,0.03l0.078,0.03l0.079,0.028l0.158,0.054l0.08,0.025l0.081,0.025l0.081,0.023l0.082,0.023l0.082,0.021l0.083,0.021l0.083,0.02l0.085,0.018l0.084,0.018l0.086,0.017l0.172,0.03l0.088,0.014l0.088,0.013l0.088,0.011l0.09,0.011l0.09,0.01l0.09,0.009l0.184,0.014l0.092,0.006l0.094,0.005l0.094,0.003l0.095,0.003l0.096,0.001l0.094,0.001l0.171,-0.001l0.17,-0.004l0.17,-0.007l0.17,-0.009l0.17,-0.012l0.171,-0.015l0.171,-0.017l0.171,-0.02l0.171,-0.022l0.172,-0.025l0.172,-0.028l0.173,-0.031l0.173,-0.033l0.173,-0.036l0.173,-0.039l0.174,-0.041l0.175,-0.044l0.174,-0.047l0.175,-0.05l0.176,-0.052l0.176,-0.055l0.176,-0.058l0.177,-0.061l0.178,-0.064l0.177,-0.066l0.179,-0.069l0.178,-0.073l0.179,-0.074l0.18,-0.078l0.18,-0.081l0.18,-0.084l0.181,-0.086l0.181,-0.09l0.182,-0.092l0.182,-0.095l0.183,-0.098l0.183,-0.101l0.184,-0.104l0.184,-0.107l0.184,-0.11l0.185,-0.113l0.186,-0.116l0.185,-0.119l0.186,-0.122l0.187,-0.125l0.187,-0.127l0.187,-0.131l0.188,-0.134l0.188,-0.137l0.189,-0.14l0.189,-0.143l0.189,-0.146l0.19,-0.149l0.19,-0.151l0.191,-0.155l0.191,-0.158l0.191,-0.162l0.192,-0.164l0.192,-0.167l0.192,-0.17l0.193,-0.173l0.112,-0.103l0,-11.384Z" style="fill:#555;"/><path d="M419.497,47.764l0.26,-0.005l0.26,-0.004l0.261,-0.003l0.262,-0.001l0.263,-0.001l0.256,0.001l0.258,0.002l0.259,0.003l0.26,0.004l0.261,0.006l0.262,0.008l0.263,0.008l0.264,0.01l0.266,0.011l0.266,0.013l0.268,0.013l0.269,0.015l0.27,0.017l0.271,0.017l0.272,0.019l0.273,0.02l0.274,0.022l0.276,0.023l0.277,0.024l0.277,0.025l0.279,0.027l0.28,0.028l0.281,0.029l0.283,0.031l0.283,0.032l0.285,0.033l0.285,0.035l0.287,0.035l0.288,0.038l0.289,0.038l0.29,0.04l0.291,0.04l0.586,0.086l0.295,0.045l0.296,0.046l0.297,0.047l0.298,0.049l0.299,0.05l0.3,0.051l0.302,0.053l0.303,0.054l0.303,0.055l0.305,0.056l0.306,0.058l0.307,0.059l0.309,0.06l0.309,0.061l0.311,0.063l0.312,0.064l0.312,0.066l0.314,0.066l0.316,0.068l0.316,0.069l0.317,0.071l0.319,0.071l0.32,0.073l0.321,0.075l0.322,0.075l0.323,0.077l0.324,0.078l0.652,0.16l1.462,0.366l0,16.237l-2.305,-0.761l-0.33,-0.108l-0.327,-0.106l-0.326,-0.105l-0.323,-0.102l-0.322,-0.101l-0.319,-0.099l-0.316,-0.098l-0.315,-0.095l-0.313,-0.094l-0.31,-0.093l-0.308,-0.09l-0.306,-0.089l-0.304,-0.086l-0.301,-0.086l-0.299,-0.083l-0.298,-0.082l-0.295,-0.079l-0.292,-0.079l-0.291,-0.076l-0.288,-0.075l-0.286,-0.072l-0.284,-0.072l-0.282,-0.069l-0.279,-0.068l-0.277,-0.065l-0.275,-0.065l-0.273,-0.062l-0.271,-0.061l-0.268,-0.059l-0.266,-0.057l-0.264,-0.055l-0.261,-0.054l-0.26,-0.052l-0.257,-0.05l-0.255,-0.048l-0.252,-0.047l-0.251,-0.045l-0.248,-0.043l-0.246,-0.042l-0.243,-0.039l-0.241,-0.039l-0.239,-0.036l-0.237,-0.034l-0.235,-0.033l-0.232,-0.031l-0.23,-0.03l-0.227,-0.028l-0.226,-0.026l-0.222,-0.024l-0.221,-0.023l-0.218,-0.02l-0.216,-0.02l-0.214,-0.017l-0.212,-0.016l-0.209,-0.014l-0.206,-0.013l-0.205,-0.01l-0.202,-0.009l-0.199,-0.008l-0.197,-0.006l-0.195,-0.004l-0.193,-0.002l-0.191,-0.001l-0.113,0l-0.113,0.001l-0.113,0.002l-0.113,0.003l-0.112,0.003l-0.222,0.008l-0.111,0.005l-0.111,0.006l-0.109,0.007l-0.11,0.007l-0.109,0.008l-0.109,0.009l-0.108,0.009l-0.108,0.01l-0.214,0.022l-0.107,0.012l-0.106,0.013l-0.105,0.014l-0.106,0.014l-0.105,0.014l-0.208,0.032l-0.104,0.017l-0.103,0.017l-0.103,0.019l-0.102,0.018l-0.204,0.04l-0.101,0.021l-0.101,0.022l-0.1,0.022l-0.2,0.046l-0.099,0.025l-0.099,0.024l-0.098,0.026l-0.099,0.026l-0.097,0.027l-0.098,0.028l-0.096,0.028l-0.097,0.029l-0.192,0.06l-0.19,0.062l-0.095,0.033l-0.094,0.032l-0.188,0.068l-0.093,0.035l-0.093,0.036l-0.092,0.036l-0.092,0.037l-0.092,0.038l-0.091,0.038l-0.091,0.039l-0.091,0.04l-0.09,0.04l-0.09,0.041l-0.09,0.042l-0.089,0.042l-0.178,0.086l-0.176,0.09l-0.088,0.046l-0.087,0.046l-0.087,0.047l-0.087,0.048l-0.086,0.048l-0.086,0.049l-0.086,0.05l-0.17,0.102l-0.085,0.052l-0.084,0.052l-0.084,0.053l-0.084,0.054l-0.166,0.11l-0.083,0.056l-0.083,0.057l-0.164,0.116l-0.081,0.058l-0.082,0.06l-0.081,0.06l-0.081,0.061l-0.16,0.124l-0.08,0.063l-0.079,0.064l-0.158,0.13l-0.079,0.066l-0.078,0.066l-0.156,0.136l-0.154,0.138l-0.077,0.071l-0.076,0.071l-0.077,0.072l-0.076,0.072l-0.075,0.073l-0.076,0.074l-0.075,0.075l-0.074,0.075l-0.075,0.076l-0.074,0.077l-0.074,0.078l-0.073,0.078l-0.074,0.08l-0.073,0.08l-0.072,0.08l-0.073,0.082l-0.072,0.082l-0.072,0.083l-0.071,0.083l-0.072,0.085l-0.07,0.085l-0.071,0.086l-0.071,0.087l-0.07,0.087l-0.069,0.088l-0.07,0.089l-0.069,0.09l-0.136,0.18l-0.067,0.091l-0.134,0.184l-0.065,0.092l-0.066,0.093l-0.064,0.093l-0.065,0.094l-0.063,0.094l-0.126,0.19l-0.124,0.192l-0.061,0.096l-0.06,0.098l-0.06,0.097l-0.06,0.098l-0.058,0.099l-0.059,0.099l-0.058,0.099l-0.057,0.1l-0.057,0.101l-0.112,0.202l-0.055,0.102l-0.054,0.101l-0.108,0.208l-0.106,0.209l-0.104,0.21l-0.101,0.212l-0.099,0.215l-0.098,0.216l-0.095,0.218l-0.093,0.221l-0.09,0.222l-0.089,0.225l-0.087,0.226l-0.084,0.229l-0.083,0.23l-0.08,0.233l-0.078,0.235l-0.076,0.236l-0.074,0.239l-0.072,0.241l-0.069,0.243l-0.068,0.245l-0.065,0.247l-0.063,0.25l-0.061,0.251l-0.059,0.253l-0.056,0.256l-0.055,0.258l-0.052,0.259l-0.05,0.262l-0.048,0.264l-0.046,0.266l-0.043,0.269l-0.041,0.27l-0.039,0.272l-0.037,0.275l-0.035,0.277l-0.033,0.278l-0.03,0.281l-0.028,0.283l-0.026,0.286l-0.023,0.287l-0.022,0.289l-0.019,0.292l-0.017,0.294l-0.014,0.296l-0.013,0.297l-0.01,0.301l-0.008,0.302l-0.005,0.304l-0.004,0.306l-0.001,0.309l0.001,0.316l0.004,0.313l0.006,0.311l0.009,0.309l0.01,0.307l0.014,0.304l0.016,0.303l0.018,0.3l0.021,0.298l0.023,0.296l0.025,0.293l0.028,0.292l0.03,0.289l0.033,0.287l0.035,0.285l0.037,0.282l0.04,0.281l0.042,0.278l0.045,0.276l0.047,0.274l0.049,0.272l0.052,0.27l0.054,0.267l0.056,0.265l0.059,0.263l0.061,0.261l0.063,0.259l0.066,0.257l0.068,0.254l0.071,0.255l0.036,0.123l0.036,0.125l0.038,0.124l0.037,0.124l0.078,0.246l0.039,0.122l0.04,0.122l0.041,0.121l0.041,0.12l0.042,0.12l0.043,0.12l0.043,0.119l0.043,0.118l0.044,0.118l0.045,0.118l0.045,0.116l0.046,0.117l0.047,0.116l0.094,0.23l0.049,0.114l0.048,0.114l0.1,0.226l0.05,0.112l0.051,0.112l0.104,0.222l0.106,0.22l0.054,0.109l0.054,0.108l0.056,0.108l0.055,0.108l0.056,0.107l0.057,0.107l0.058,0.106l0.057,0.106l0.059,0.105l0.059,0.104l0.12,0.208l0.122,0.206l0.124,0.204l0.064,0.101l0.063,0.1l0.065,0.101l0.064,0.099l0.132,0.198l0.066,0.098l0.067,0.098l0.136,0.194l0.069,0.096l0.07,0.096l0.14,0.19l0.071,0.095l0.072,0.093l0.073,0.094l0.073,0.093l0.073,0.092l0.074,0.092l0.075,0.092l0.075,0.091l0.076,0.09l0.075,0.089l0.077,0.089l0.076,0.087l0.154,0.174l0.078,0.085l0.077,0.085l0.079,0.084l0.078,0.083l0.079,0.082l0.159,0.163l0.16,0.16l0.081,0.079l0.081,0.077l0.081,0.078l0.164,0.152l0.082,0.075l0.166,0.148l0.084,0.072l0.083,0.072l0.085,0.072l0.084,0.07l0.085,0.07l0.17,0.138l0.086,0.067l0.087,0.067l0.086,0.066l0.087,0.066l0.087,0.065l0.088,0.064l0.088,0.063l0.089,0.063l0.088,0.062l0.089,0.061l0.18,0.12l0.09,0.059l0.091,0.059l0.09,0.057l0.092,0.057l0.091,0.056l0.093,0.056l0.092,0.055l0.093,0.054l0.093,0.053l0.094,0.053l0.094,0.052l0.094,0.051l0.095,0.051l0.095,0.05l0.095,0.049l0.096,0.049l0.097,0.048l0.096,0.047l0.097,0.046l0.098,0.046l0.098,0.045l0.098,0.044l0.099,0.044l0.099,0.043l0.099,0.042l0.1,0.042l0.1,0.041l0.202,0.08l0.102,0.039l0.102,0.038l0.102,0.037l0.103,0.037l0.103,0.036l0.104,0.036l0.208,0.068l0.105,0.034l0.106,0.032l0.105,0.032l0.107,0.032l0.106,0.03l0.107,0.03l0.216,0.058l0.108,0.028l0.109,0.027l0.109,0.026l0.11,0.026l0.11,0.025l0.111,0.025l0.111,0.023l0.224,0.046l0.112,0.021l0.113,0.021l0.113,0.02l0.114,0.02l0.114,0.019l0.115,0.018l0.115,0.017l0.116,0.017l0.116,0.016l0.234,0.03l0.117,0.014l0.118,0.013l0.119,0.012l0.118,0.012l0.24,0.022l0.12,0.009l0.242,0.018l0.244,0.014l0.123,0.006l0.246,0.01l0.124,0.004l0.25,0.006l0.126,0.002l0.126,0.001l0.125,0l0.237,-0.001l0.236,-0.002l0.237,-0.004l0.237,-0.006l0.237,-0.008l0.237,-0.009l0.238,-0.01l0.237,-0.013l0.239,-0.014l0.238,-0.015l0.239,-0.018l0.238,-0.019l0.24,-0.02l0.239,-0.023l0.24,-0.024l0.24,-0.025l0.24,-0.027l0.241,-0.029l0.24,-0.031l0.241,-0.032l0.242,-0.034l0.241,-0.035l0.242,-0.038l0.243,-0.038l0.242,-0.041l0.243,-0.042l0.243,-0.044l0.243,-0.045l0.244,-0.048l0.244,-0.049l0.244,-0.05l0.244,-0.052l0.245,-0.054l0.245,-0.056l0.245,-0.057l0.246,-0.059l0.246,-0.06l0.246,-0.062l0.247,-0.064l0.246,-0.066l0.247,-0.067l0.248,-0.069l0.247,-0.071l0.248,-0.072l0.249,-0.074l0.248,-0.076l0.249,-0.077l0.249,-0.079l0.249,-0.081l0.25,-0.082l0.25,-0.084l0.25,-0.086l0.251,-0.087l0.502,-0.18l0.252,-0.093l0.251,-0.094l0.252,-0.096l0.253,-0.098l0.252,-0.099l0.253,-0.101l0.253,-0.103l0.254,-0.104l2.336,-0.977l0,15.846l-1.451,0.393l-0.345,0.092l-0.344,0.09l-0.343,0.09l-0.684,0.174l-0.341,0.084l-0.34,0.084l-0.34,0.081l-0.338,0.081l-0.338,0.079l-0.337,0.077l-0.337,0.076l-0.336,0.075l-0.335,0.073l-0.668,0.142l-0.332,0.068l-0.332,0.067l-0.332,0.066l-0.33,0.064l-0.33,0.063l-0.329,0.062l-0.656,0.118l-0.327,0.057l-0.326,0.055l-0.325,0.054l-0.325,0.053l-0.324,0.051l-0.323,0.049l-0.322,0.049l-0.322,0.046l-0.321,0.045l-0.32,0.044l-0.32,0.042l-0.318,0.041l-0.318,0.039l-0.318,0.038l-0.316,0.036l-0.316,0.035l-0.315,0.034l-0.628,0.062l-0.312,0.029l-0.313,0.027l-0.311,0.026l-0.31,0.025l-0.31,0.023l-0.309,0.021l-0.309,0.02l-0.307,0.019l-0.307,0.017l-0.306,0.016l-0.306,0.014l-0.608,0.024l-0.303,0.009l-0.303,0.008l-0.302,0.007l-0.301,0.005l-0.3,0.004l-0.299,0.002l-0.299,0.001l-0.5,-0.002l-0.249,-0.003l-0.248,-0.004l-0.247,-0.006l-0.246,-0.006l-0.246,-0.008l-0.245,-0.009l-0.244,-0.01l-0.244,-0.011l-0.243,-0.012l-0.242,-0.014l-0.241,-0.015l-0.24,-0.016l-0.24,-0.017l-0.239,-0.018l-0.476,-0.04l-0.236,-0.022l-0.472,-0.048l-0.234,-0.025l-0.234,-0.027l-0.233,-0.028l-0.232,-0.029l-0.231,-0.03l-0.231,-0.032l-0.23,-0.032l-0.229,-0.034l-0.228,-0.035l-0.228,-0.036l-0.227,-0.038l-0.226,-0.039l-0.225,-0.039l-0.225,-0.041l-0.446,-0.086l-0.223,-0.045l-0.221,-0.046l-0.221,-0.047l-0.22,-0.048l-0.438,-0.1l-0.217,-0.052l-0.217,-0.053l-0.432,-0.11l-0.214,-0.057l-0.214,-0.058l-0.213,-0.059l-0.212,-0.06l-0.212,-0.062l-0.21,-0.063l-0.21,-0.064l-0.209,-0.065l-0.209,-0.067l-0.207,-0.067l-0.207,-0.069l-0.206,-0.07l-0.41,-0.144l-0.203,-0.074l-0.203,-0.075l-0.202,-0.076l-0.202,-0.077l-0.2,-0.079l-0.2,-0.08l-0.199,-0.081l-0.198,-0.082l-0.197,-0.084l-0.196,-0.084l-0.196,-0.086l-0.195,-0.087l-0.194,-0.089l-0.193,-0.089l-0.193,-0.091l-0.191,-0.092l-0.191,-0.093l-0.19,-0.095l-0.189,-0.095l-0.189,-0.097l-0.187,-0.098l-0.187,-0.1l-0.186,-0.1l-0.185,-0.102l-0.185,-0.103l-0.183,-0.104l-0.183,-0.105l-0.182,-0.107l-0.181,-0.108l-0.18,-0.109l-0.179,-0.11l-0.179,-0.111l-0.177,-0.113l-0.177,-0.114l-0.176,-0.115l-0.175,-0.116l-0.175,-0.118l-0.173,-0.118l-0.173,-0.12l-0.172,-0.122l-0.171,-0.122l-0.17,-0.123l-0.169,-0.125l-0.169,-0.126l-0.167,-0.127l-0.167,-0.128l-0.166,-0.13l-0.165,-0.131l-0.164,-0.131l-0.164,-0.134l-0.162,-0.134l-0.162,-0.135l-0.16,-0.137l-0.16,-0.138l-0.159,-0.139l-0.159,-0.14l-0.157,-0.142l-0.156,-0.142l-0.156,-0.144l-0.155,-0.145l-0.154,-0.146l-0.153,-0.148l-0.152,-0.148l-0.151,-0.15l-0.151,-0.151l-0.149,-0.152l-0.149,-0.153l-0.148,-0.154l-0.146,-0.155l-0.146,-0.156l-0.144,-0.157l-0.143,-0.158l-0.142,-0.159l-0.141,-0.159l-0.278,-0.322l-0.137,-0.162l-0.137,-0.163l-0.135,-0.164l-0.134,-0.165l-0.264,-0.332l-0.26,-0.336l-0.128,-0.169l-0.127,-0.17l-0.126,-0.171l-0.248,-0.344l-0.122,-0.174l-0.121,-0.174l-0.12,-0.175l-0.119,-0.177l-0.118,-0.177l-0.116,-0.177l-0.116,-0.179l-0.114,-0.179l-0.113,-0.181l-0.112,-0.181l-0.11,-0.182l-0.11,-0.183l-0.108,-0.184l-0.107,-0.184l-0.106,-0.186l-0.105,-0.186l-0.104,-0.187l-0.102,-0.188l-0.101,-0.189l-0.101,-0.19l-0.099,-0.19l-0.194,-0.384l-0.095,-0.193l-0.095,-0.194l-0.093,-0.194l-0.092,-0.196l-0.09,-0.196l-0.09,-0.197l-0.088,-0.198l-0.088,-0.199l-0.086,-0.2l-0.084,-0.2l-0.084,-0.202l-0.083,-0.202l-0.081,-0.203l-0.08,-0.203l-0.079,-0.205l-0.078,-0.205l-0.077,-0.206l-0.075,-0.207l-0.075,-0.208l-0.073,-0.209l-0.072,-0.209l-0.071,-0.21l-0.069,-0.212l-0.069,-0.211l-0.067,-0.213l-0.066,-0.214l-0.065,-0.214l-0.064,-0.215l-0.063,-0.216l-0.122,-0.434l-0.059,-0.218l-0.058,-0.219l-0.056,-0.22l-0.056,-0.221l-0.055,-0.221l-0.053,-0.223l-0.052,-0.223l-0.051,-0.224l-0.05,-0.224l-0.049,-0.226l-0.047,-0.226l-0.047,-0.227l-0.045,-0.228l-0.044,-0.228l-0.043,-0.23l-0.042,-0.23l-0.04,-0.231l-0.04,-0.232l-0.038,-0.232l-0.037,-0.234l-0.036,-0.234l-0.035,-0.235l-0.066,-0.472l-0.031,-0.237l-0.031,-0.238l-0.029,-0.239l-0.028,-0.24l-0.026,-0.24l-0.026,-0.242l-0.048,-0.484l-0.022,-0.244l-0.021,-0.244l-0.02,-0.246l-0.019,-0.245l-0.017,-0.247l-0.017,-0.248l-0.015,-0.248l-0.014,-0.249l-0.013,-0.25l-0.012,-0.251l-0.011,-0.251l-0.01,-0.252l-0.008,-0.253l-0.008,-0.254l-0.006,-0.255l-0.005,-0.255l-0.004,-0.256l-0.003,-0.257l-0.002,-0.516l0.002,-0.522l0.003,-0.26l0.004,-0.259l0.006,-0.258l0.006,-0.257l0.008,-0.257l0.008,-0.255l0.01,-0.255l0.011,-0.254l0.013,-0.254l0.013,-0.252l0.015,-0.251l0.016,-0.251l0.017,-0.25l0.018,-0.249l0.019,-0.248l0.02,-0.248l0.022,-0.247l0.023,-0.245l0.024,-0.245l0.025,-0.245l0.027,-0.243l0.027,-0.242l0.029,-0.242l0.03,-0.241l0.031,-0.24l0.032,-0.239l0.034,-0.239l0.035,-0.237l0.036,-0.237l0.037,-0.236l0.038,-0.235l0.039,-0.234l0.041,-0.234l0.042,-0.232l0.043,-0.232l0.044,-0.231l0.045,-0.23l0.047,-0.229l0.048,-0.229l0.049,-0.228l0.05,-0.226l0.051,-0.226l0.106,-0.45l0.055,-0.223l0.057,-0.223l0.057,-0.222l0.058,-0.221l0.06,-0.22l0.061,-0.219l0.062,-0.218l0.064,-0.218l0.064,-0.217l0.066,-0.216l0.067,-0.215l0.068,-0.214l0.14,-0.426l0.072,-0.212l0.073,-0.21l0.074,-0.21l0.076,-0.21l0.076,-0.208l0.078,-0.207l0.079,-0.207l0.08,-0.206l0.082,-0.204l0.082,-0.205l0.084,-0.203l0.085,-0.202l0.174,-0.402l0.089,-0.2l0.09,-0.199l0.091,-0.197l0.092,-0.197l0.094,-0.197l0.095,-0.195l0.096,-0.195l0.097,-0.193l0.098,-0.193l0.1,-0.192l0.1,-0.191l0.103,-0.19l0.103,-0.189l0.104,-0.188l0.106,-0.188l0.107,-0.186l0.108,-0.186l0.109,-0.185l0.11,-0.184l0.112,-0.183l0.113,-0.182l0.114,-0.181l0.115,-0.18l0.117,-0.18l0.118,-0.178l0.119,-0.178l0.12,-0.177l0.121,-0.176l0.123,-0.175l0.123,-0.174l0.125,-0.173l0.126,-0.172l0.256,-0.342l0.13,-0.169l0.131,-0.169l0.132,-0.167l0.133,-0.167l0.135,-0.166l0.135,-0.165l0.137,-0.164l0.138,-0.163l0.139,-0.162l0.141,-0.161l0.141,-0.16l0.143,-0.16l0.144,-0.158l0.145,-0.158l0.294,-0.312l0.149,-0.155l0.15,-0.154l0.151,-0.152l0.152,-0.152l0.153,-0.151l0.154,-0.15l0.155,-0.148l0.156,-0.148l0.157,-0.146l0.158,-0.145l0.159,-0.144l0.32,-0.284l0.162,-0.14l0.162,-0.139l0.164,-0.138l0.164,-0.137l0.165,-0.136l0.334,-0.268l0.168,-0.132l0.169,-0.131l0.34,-0.258l0.172,-0.127l0.172,-0.126l0.174,-0.125l0.174,-0.124l0.176,-0.123l0.176,-0.121l0.177,-0.12l0.178,-0.119l0.179,-0.118l0.18,-0.117l0.18,-0.115l0.182,-0.114l0.182,-0.113l0.184,-0.112l0.184,-0.111l0.185,-0.109l0.186,-0.108l0.187,-0.108l0.188,-0.105l0.189,-0.105l0.189,-0.103l0.191,-0.103l0.191,-0.101l0.192,-0.1l0.193,-0.098l0.194,-0.098l0.195,-0.096l0.196,-0.095l0.197,-0.094l0.197,-0.093l0.198,-0.091l0.4,-0.18l0.402,-0.174l0.203,-0.086l0.204,-0.084l0.204,-0.083l0.205,-0.082l0.206,-0.08l0.207,-0.08l0.208,-0.078l0.209,-0.077l0.209,-0.076l0.211,-0.075l0.211,-0.073l0.212,-0.073l0.213,-0.071l0.214,-0.07l0.214,-0.068l0.216,-0.068l0.216,-0.066l0.217,-0.065l0.218,-0.064l0.219,-0.063l0.22,-0.062l0.22,-0.06l0.222,-0.059l0.222,-0.058l0.223,-0.057l0.224,-0.056l0.225,-0.054l0.225,-0.053l0.227,-0.053l0.227,-0.05l0.228,-0.05l0.229,-0.049l0.23,-0.047l0.23,-0.046l0.231,-0.045l0.233,-0.044l0.233,-0.042l0.234,-0.042l0.234,-0.04l0.236,-0.039l0.236,-0.038l0.237,-0.037l0.238,-0.035l0.239,-0.035l0.24,-0.033l0.241,-0.032l0.241,-0.031l0.242,-0.029l0.243,-0.029l0.244,-0.027l0.244,-0.026l0.246,-0.025l0.246,-0.024l0.247,-0.023l0.248,-0.021l0.249,-0.021l0.25,-0.019l0.25,-0.018l0.251,-0.017l0.252,-0.015l0.253,-0.015l0.254,-0.013l0.254,-0.012l0.256,-0.011l0.256,-0.01l0.257,-0.009l0.516,-0.014Z" style="fill:#555;"/><path d="M469.767,118.921l-20.549,0l0,-92.787l20.549,0l0,52.758l22.065,-28.84l18.376,0l-22.574,29.267l29.191,39.602l-25.096,0l-21.962,-31.656l0,31.656Z" style="fill:#555;"/><path d="M582.077,41.402l-36.579,0l0,22.071l29.998,0l0,15.019l-29.998,0l0,24.682l39.365,0l0,15.748l-60.624,0l0,-92.844l57.838,0l0,15.324Z" style="fill:#555;"/><path d="M655.429,118.921l-20.607,0l0,-8.529l-0.089,0.125l-0.136,0.188l-0.137,0.186l-0.138,0.184l-0.139,0.183l-0.282,0.36l-0.143,0.177l-0.143,0.176l-0.145,0.174l-0.145,0.172l-0.147,0.171l-0.148,0.169l-0.149,0.167l-0.15,0.165l-0.151,0.164l-0.153,0.162l-0.153,0.16l-0.154,0.159l-0.156,0.156l-0.156,0.155l-0.158,0.153l-0.159,0.152l-0.16,0.149l-0.161,0.148l-0.162,0.146l-0.163,0.145l-0.164,0.142l-0.165,0.141l-0.166,0.139l-0.168,0.137l-0.168,0.135l-0.17,0.134l-0.17,0.132l-0.172,0.13l-0.173,0.128l-0.174,0.126l-0.175,0.125l-0.175,0.122l-0.178,0.121l-0.177,0.119l-0.18,0.117l-0.18,0.116l-0.181,0.113l-0.182,0.112l-0.183,0.11l-0.185,0.108l-0.185,0.106l-0.186,0.105l-0.187,0.102l-0.189,0.101l-0.189,0.099l-0.191,0.097l-0.191,0.095l-0.192,0.093l-0.194,0.091l-0.194,0.09l-0.195,0.088l-0.197,0.086l-0.197,0.083l-0.198,0.083l-0.199,0.08l-0.201,0.078l-0.201,0.077l-0.202,0.074l-0.203,0.073l-0.204,0.071l-0.205,0.069l-0.206,0.067l-0.207,0.066l-0.208,0.063l-0.208,0.062l-0.21,0.059l-0.211,0.058l-0.211,0.056l-0.213,0.054l-0.213,0.053l-0.214,0.05l-0.215,0.049l-0.216,0.046l-0.217,0.045l-0.218,0.043l-0.219,0.041l-0.22,0.04l-0.22,0.037l-0.222,0.036l-0.222,0.033l-0.223,0.032l-0.224,0.03l-0.225,0.029l-0.226,0.026l-0.227,0.025l-0.227,0.022l-0.229,0.021l-0.229,0.019l-0.23,0.018l-0.231,0.015l-0.232,0.014l-0.233,0.011l-0.233,0.01l-0.235,0.009l-0.235,0.006l-0.236,0.004l-0.237,0.003l-0.237,0.001l-0.193,-0.001l-0.191,-0.001l-0.191,-0.003l-0.19,-0.004l-0.19,-0.005l-0.189,-0.006l-0.189,-0.008l-0.188,-0.008l-0.374,-0.02l-0.187,-0.012l-0.185,-0.013l-0.186,-0.015l-0.184,-0.015l-0.184,-0.016l-0.184,-0.018l-0.183,-0.019l-0.182,-0.019l-0.182,-0.021l-0.362,-0.046l-0.18,-0.024l-0.18,-0.026l-0.179,-0.027l-0.178,-0.028l-0.178,-0.029l-0.177,-0.03l-0.177,-0.031l-0.352,-0.066l-0.174,-0.035l-0.175,-0.036l-0.174,-0.037l-0.173,-0.039l-0.172,-0.039l-0.344,-0.082l-0.171,-0.043l-0.17,-0.044l-0.17,-0.046l-0.169,-0.046l-0.336,-0.096l-0.167,-0.05l-0.167,-0.051l-0.166,-0.053l-0.165,-0.053l-0.165,-0.055l-0.164,-0.055l-0.164,-0.057l-0.163,-0.058l-0.162,-0.059l-0.162,-0.061l-0.161,-0.061l-0.161,-0.063l-0.16,-0.064l-0.159,-0.065l-0.159,-0.066l-0.158,-0.068l-0.157,-0.068l-0.157,-0.07l-0.156,-0.071l-0.155,-0.072l-0.155,-0.073l-0.154,-0.074l-0.154,-0.076l-0.153,-0.076l-0.152,-0.078l-0.152,-0.079l-0.151,-0.08l-0.3,-0.164l-0.149,-0.084l-0.148,-0.084l-0.148,-0.086l-0.147,-0.087l-0.292,-0.178l-0.145,-0.09l-0.144,-0.092l-0.144,-0.093l-0.143,-0.094l-0.142,-0.095l-0.142,-0.096l-0.141,-0.098l-0.14,-0.098l-0.14,-0.1l-0.138,-0.1l-0.139,-0.102l-0.274,-0.208l-0.136,-0.105l-0.136,-0.107l-0.134,-0.107l-0.135,-0.109l-0.266,-0.22l-0.132,-0.113l-0.131,-0.113l-0.131,-0.114l-0.13,-0.116l-0.129,-0.116l-0.129,-0.118l-0.128,-0.118l-0.127,-0.12l-0.126,-0.121l-0.126,-0.122l-0.125,-0.123l-0.248,-0.25l-0.123,-0.126l-0.122,-0.128l-0.122,-0.129l-0.12,-0.129l-0.121,-0.131l-0.119,-0.132l-0.119,-0.133l-0.118,-0.134l-0.234,-0.272l-0.116,-0.137l-0.115,-0.138l-0.115,-0.14l-0.226,-0.282l-0.113,-0.143l-0.112,-0.144l-0.111,-0.145l-0.11,-0.145l-0.218,-0.294l-0.214,-0.298l-0.106,-0.15l-0.105,-0.151l-0.104,-0.151l-0.103,-0.153l-0.102,-0.153l-0.102,-0.154l-0.1,-0.155l-0.1,-0.156l-0.099,-0.156l-0.194,-0.316l-0.096,-0.159l-0.096,-0.16l-0.094,-0.16l-0.186,-0.324l-0.092,-0.163l-0.09,-0.164l-0.09,-0.165l-0.089,-0.165l-0.089,-0.166l-0.087,-0.167l-0.086,-0.168l-0.086,-0.169l-0.168,-0.34l-0.083,-0.171l-0.082,-0.172l-0.081,-0.172l-0.08,-0.174l-0.079,-0.174l-0.079,-0.175l-0.077,-0.176l-0.077,-0.177l-0.076,-0.177l-0.075,-0.178l-0.074,-0.179l-0.073,-0.18l-0.144,-0.362l-0.07,-0.182l-0.07,-0.183l-0.069,-0.184l-0.134,-0.37l-0.067,-0.186l-0.065,-0.187l-0.128,-0.376l-0.062,-0.189l-0.062,-0.19l-0.061,-0.191l-0.06,-0.192l-0.059,-0.192l-0.059,-0.193l-0.057,-0.194l-0.112,-0.39l-0.055,-0.196l-0.054,-0.197l-0.053,-0.198l-0.104,-0.398l-0.05,-0.2l-0.05,-0.201l-0.096,-0.404l-0.047,-0.203l-0.046,-0.204l-0.046,-0.205l-0.088,-0.412l-0.043,-0.207l-0.082,-0.416l-0.041,-0.21l-0.039,-0.21l-0.038,-0.211l-0.038,-0.212l-0.037,-0.212l-0.035,-0.213l-0.036,-0.214l-0.034,-0.215l-0.033,-0.216l-0.032,-0.216l-0.032,-0.217l-0.031,-0.218l-0.03,-0.218l-0.029,-0.22l-0.028,-0.22l-0.027,-0.221l-0.027,-0.222l-0.025,-0.222l-0.025,-0.223l-0.024,-0.224l-0.023,-0.225l-0.023,-0.226l-0.021,-0.226l-0.021,-0.227l-0.019,-0.228l-0.019,-0.229l-0.018,-0.229l-0.017,-0.23l-0.017,-0.231l-0.03,-0.464l-0.014,-0.234l-0.013,-0.234l-0.012,-0.235l-0.011,-0.235l-0.011,-0.237l-0.018,-0.474l-0.008,-0.239l-0.014,-0.48l-0.005,-0.241l-0.005,-0.242l-0.003,-0.242l-0.003,-0.243l-0.002,-0.245l-0.002,-0.244l0,-0.513l0.002,-0.266l0.002,-0.265l0.008,-0.528l0.005,-0.262l0.006,-0.262l0.007,-0.261l0.008,-0.261l0.009,-0.259l0.01,-0.259l0.011,-0.258l0.012,-0.257l0.012,-0.256l0.014,-0.256l0.03,-0.508l0.017,-0.254l0.017,-0.252l0.019,-0.252l0.019,-0.25l0.02,-0.25l0.044,-0.498l0.023,-0.247l0.024,-0.247l0.025,-0.246l0.026,-0.245l0.027,-0.245l0.028,-0.243l0.029,-0.243l0.03,-0.242l0.031,-0.241l0.032,-0.241l0.032,-0.24l0.034,-0.238l0.035,-0.239l0.035,-0.237l0.074,-0.472l0.039,-0.235l0.039,-0.234l0.082,-0.466l0.042,-0.231l0.044,-0.231l0.044,-0.23l0.045,-0.23l0.046,-0.228l0.047,-0.228l0.048,-0.227l0.049,-0.226l0.05,-0.225l0.051,-0.225l0.052,-0.223l0.053,-0.223l0.054,-0.222l0.055,-0.222l0.056,-0.22l0.057,-0.22l0.057,-0.219l0.059,-0.218l0.06,-0.217l0.06,-0.216l0.062,-0.216l0.063,-0.215l0.063,-0.214l0.13,-0.426l0.067,-0.212l0.067,-0.21l0.138,-0.42l0.142,-0.416l0.072,-0.207l0.074,-0.206l0.074,-0.205l0.075,-0.204l0.077,-0.204l0.077,-0.202l0.078,-0.202l0.079,-0.202l0.08,-0.2l0.164,-0.398l0.083,-0.198l0.084,-0.197l0.085,-0.196l0.086,-0.195l0.087,-0.195l0.088,-0.194l0.089,-0.193l0.09,-0.192l0.091,-0.191l0.092,-0.191l0.093,-0.189l0.094,-0.189l0.095,-0.188l0.096,-0.187l0.097,-0.187l0.097,-0.185l0.099,-0.185l0.1,-0.184l0.101,-0.182l0.102,-0.183l0.102,-0.181l0.104,-0.181l0.105,-0.179l0.106,-0.179l0.106,-0.178l0.108,-0.177l0.218,-0.352l0.111,-0.174l0.112,-0.174l0.112,-0.173l0.114,-0.172l0.114,-0.171l0.116,-0.171l0.116,-0.169l0.118,-0.169l0.118,-0.168l0.12,-0.167l0.12,-0.166l0.244,-0.33l0.123,-0.163l0.125,-0.163l0.124,-0.161l0.126,-0.16l0.127,-0.159l0.127,-0.158l0.127,-0.156l0.129,-0.155l0.129,-0.154l0.13,-0.153l0.131,-0.152l0.131,-0.15l0.132,-0.15l0.133,-0.147l0.134,-0.147l0.134,-0.146l0.135,-0.144l0.136,-0.143l0.136,-0.142l0.137,-0.141l0.138,-0.139l0.139,-0.138l0.139,-0.137l0.14,-0.136l0.141,-0.134l0.141,-0.133l0.143,-0.132l0.143,-0.131l0.143,-0.129l0.144,-0.128l0.145,-0.127l0.146,-0.126l0.147,-0.125l0.147,-0.123l0.148,-0.122l0.298,-0.24l0.15,-0.118l0.151,-0.117l0.151,-0.115l0.152,-0.115l0.153,-0.113l0.154,-0.112l0.154,-0.11l0.155,-0.11l0.312,-0.214l0.157,-0.106l0.158,-0.104l0.159,-0.103l0.159,-0.101l0.16,-0.101l0.16,-0.099l0.161,-0.098l0.162,-0.096l0.163,-0.095l0.163,-0.094l0.164,-0.093l0.165,-0.091l0.165,-0.09l0.166,-0.089l0.167,-0.087l0.168,-0.086l0.168,-0.085l0.168,-0.084l0.17,-0.082l0.17,-0.081l0.171,-0.08l0.171,-0.078l0.172,-0.077l0.173,-0.076l0.173,-0.074l0.174,-0.073l0.175,-0.072l0.175,-0.071l0.176,-0.069l0.177,-0.068l0.177,-0.067l0.178,-0.065l0.179,-0.064l0.179,-0.063l0.18,-0.061l0.18,-0.06l0.181,-0.059l0.182,-0.057l0.183,-0.057l0.182,-0.054l0.184,-0.054l0.184,-0.052l0.185,-0.051l0.186,-0.05l0.186,-0.048l0.186,-0.047l0.188,-0.046l0.188,-0.045l0.188,-0.043l0.19,-0.042l0.189,-0.04l0.191,-0.039l0.191,-0.038l0.191,-0.037l0.192,-0.035l0.193,-0.034l0.194,-0.033l0.388,-0.062l0.195,-0.029l0.196,-0.027l0.197,-0.026l0.197,-0.025l0.197,-0.024l0.198,-0.022l0.199,-0.022l0.199,-0.019l0.2,-0.019l0.201,-0.017l0.201,-0.016l0.202,-0.015l0.202,-0.013l0.203,-0.012l0.203,-0.011l0.204,-0.01l0.205,-0.008l0.205,-0.007l0.205,-0.006l0.207,-0.004l0.206,-0.003l0.208,-0.002l0.208,-0.001l0.337,0.002l0.169,0.003l0.336,0.008l0.167,0.006l0.168,0.007l0.167,0.008l0.167,0.009l0.167,0.01l0.167,0.012l0.166,0.012l0.167,0.013l0.166,0.015l0.165,0.015l0.166,0.017l0.165,0.018l0.166,0.018l0.165,0.02l0.164,0.021l0.165,0.022l0.164,0.023l0.164,0.024l0.164,0.025l0.164,0.027l0.163,0.027l0.163,0.028l0.326,0.06l0.162,0.032l0.163,0.033l0.162,0.034l0.161,0.034l0.162,0.036l0.161,0.037l0.161,0.038l0.322,0.08l0.16,0.041l0.16,0.042l0.16,0.044l0.159,0.044l0.16,0.046l0.318,0.094l0.158,0.049l0.159,0.05l0.158,0.051l0.158,0.052l0.157,0.053l0.157,0.054l0.157,0.055l0.157,0.056l0.157,0.057l0.312,0.118l0.156,0.061l0.155,0.061l0.31,0.126l0.155,0.065l0.154,0.066l0.154,0.067l0.308,0.136l0.153,0.07l0.153,0.071l0.153,0.072l0.152,0.074l0.153,0.074l0.152,0.075l0.151,0.076l0.152,0.078l0.151,0.078l0.15,0.079l0.151,0.081l0.15,0.081l0.3,0.166l0.149,0.085l0.298,0.172l0.149,0.088l0.148,0.089l0.296,0.18l0.147,0.092l0.147,0.093l0.147,0.094l0.147,0.095l0.146,0.096l0.146,0.097l0.146,0.098l0.146,0.099l0.145,0.1l0.144,0.101l0.29,0.206l0.144,0.104l0.143,0.105l0.144,0.106l0.286,0.216l0.142,0.109l0.143,0.11l0.284,0.224l0.282,0.228l0.075,0.061l0,-27.838l20.607,0l0,92.624Zm-32.772,-56.516l-0.089,0.001l-0.088,0.002l-0.089,0.003l-0.174,0.006l-0.174,0.01l-0.172,0.012l-0.085,0.007l-0.085,0.008l-0.085,0.009l-0.084,0.009l-0.168,0.02l-0.083,0.011l-0.083,0.012l-0.164,0.026l-0.082,0.014l-0.081,0.014l-0.082,0.015l-0.08,0.016l-0.081,0.016l-0.08,0.018l-0.08,0.017l-0.158,0.038l-0.079,0.02l-0.078,0.02l-0.078,0.021l-0.156,0.044l-0.077,0.023l-0.077,0.024l-0.076,0.024l-0.076,0.025l-0.152,0.052l-0.075,0.027l-0.075,0.028l-0.076,0.028l-0.074,0.029l-0.148,0.06l-0.074,0.031l-0.073,0.031l-0.074,0.033l-0.073,0.033l-0.072,0.033l-0.073,0.035l-0.144,0.07l-0.071,0.037l-0.072,0.037l-0.071,0.037l-0.142,0.078l-0.14,0.08l-0.07,0.041l-0.07,0.042l-0.07,0.043l-0.069,0.043l-0.138,0.088l-0.069,0.046l-0.068,0.046l-0.136,0.094l-0.068,0.049l-0.067,0.048l-0.068,0.05l-0.067,0.05l-0.067,0.051l-0.067,0.052l-0.132,0.106l-0.067,0.054l-0.066,0.055l-0.065,0.055l-0.066,0.057l-0.065,0.057l-0.13,0.116l-0.065,0.059l-0.064,0.06l-0.064,0.061l-0.128,0.124l-0.064,0.063l-0.063,0.064l-0.126,0.13l-0.064,0.066l-0.062,0.067l-0.063,0.068l-0.062,0.068l-0.062,0.069l-0.062,0.071l-0.06,0.069l-0.124,0.146l-0.121,0.147l-0.121,0.15l-0.12,0.154l-0.119,0.157l-0.119,0.16l-0.117,0.163l-0.117,0.166l-0.115,0.17l-0.115,0.173l-0.114,0.176l-0.112,0.179l-0.112,0.183l-0.111,0.185l-0.109,0.188l-0.107,0.189l-0.106,0.192l-0.104,0.194l-0.102,0.196l-0.101,0.198l-0.099,0.201l-0.097,0.202l-0.096,0.205l-0.094,0.207l-0.092,0.21l-0.091,0.211l-0.089,0.214l-0.087,0.215l-0.086,0.219l-0.084,0.22l-0.082,0.223l-0.081,0.224l-0.079,0.227l-0.077,0.23l-0.075,0.231l-0.074,0.234l-0.072,0.236l-0.071,0.238l-0.068,0.241l-0.067,0.243l-0.066,0.245l-0.063,0.247l-0.062,0.249l-0.06,0.252l-0.058,0.254l-0.057,0.256l-0.055,0.259l-0.053,0.261l-0.051,0.263l-0.05,0.265l-0.047,0.268l-0.046,0.27l-0.045,0.272l-0.042,0.275l-0.041,0.276l-0.039,0.279l-0.037,0.281l-0.035,0.284l-0.034,0.285l-0.032,0.288l-0.03,0.291l-0.028,0.292l-0.026,0.295l-0.025,0.297l-0.023,0.299l-0.02,0.302l-0.02,0.304l-0.017,0.305l-0.015,0.309l-0.014,0.31l-0.012,0.313l-0.01,0.315l-0.008,0.317l-0.007,0.32l-0.004,0.322l-0.003,0.324l-0.001,0.326l0.001,0.311l0.002,0.308l0.004,0.306l0.005,0.303l0.007,0.301l0.008,0.298l0.01,0.295l0.012,0.293l0.013,0.29l0.014,0.287l0.016,0.285l0.017,0.282l0.019,0.28l0.021,0.276l0.022,0.275l0.023,0.271l0.025,0.269l0.026,0.266l0.028,0.264l0.03,0.261l0.031,0.258l0.032,0.256l0.034,0.253l0.035,0.25l0.036,0.248l0.039,0.245l0.039,0.242l0.041,0.24l0.043,0.236l0.044,0.235l0.045,0.231l0.047,0.229l0.048,0.226l0.049,0.224l0.051,0.221l0.053,0.218l0.054,0.215l0.055,0.212l0.056,0.211l0.058,0.207l0.06,0.205l0.06,0.201l0.062,0.2l0.063,0.196l0.065,0.194l0.066,0.191l0.067,0.189l0.069,0.185l0.07,0.183l0.071,0.181l0.072,0.177l0.074,0.175l0.075,0.172l0.076,0.17l0.078,0.167l0.079,0.164l0.08,0.162l0.081,0.159l0.082,0.156l0.084,0.154l0.084,0.151l0.086,0.148l0.087,0.146l0.089,0.144l0.089,0.14l0.091,0.138l0.091,0.136l0.093,0.133l0.094,0.13l0.096,0.128l0.096,0.126l0.097,0.123l0.099,0.12l0.099,0.118l0.101,0.116l0.102,0.113l0.103,0.111l0.104,0.108l0.105,0.106l0.107,0.104l0.108,0.102l0.108,0.099l0.11,0.097l0.111,0.094l0.113,0.093l0.113,0.09l0.115,0.088l0.116,0.085l0.117,0.084l0.118,0.081l0.12,0.08l0.121,0.077l0.123,0.075l0.123,0.073l0.125,0.071l0.127,0.068l0.128,0.067l0.129,0.065l0.131,0.062l0.132,0.061l0.134,0.058l0.135,0.057l0.137,0.054l0.138,0.052l0.14,0.051l0.142,0.048l0.143,0.046l0.145,0.044l0.146,0.042l0.148,0.04l0.15,0.038l0.152,0.036l0.153,0.034l0.155,0.031l0.157,0.03l0.158,0.027l0.161,0.026l0.162,0.023l0.164,0.021l0.165,0.018l0.168,0.017l0.169,0.015l0.171,0.012l0.173,0.01l0.175,0.008l0.177,0.005l0.179,0.004l0.181,0.001l0.106,-0.001l0.107,-0.001l0.106,-0.003l0.107,-0.004l0.106,-0.005l0.107,-0.006l0.106,-0.007l0.106,-0.008l0.106,-0.009l0.107,-0.011l0.106,-0.011l0.212,-0.026l0.105,-0.015l0.106,-0.016l0.106,-0.017l0.106,-0.018l0.106,-0.019l0.105,-0.021l0.106,-0.021l0.106,-0.023l0.105,-0.023l0.106,-0.025l0.106,-0.026l0.106,-0.027l0.105,-0.028l0.106,-0.029l0.106,-0.031l0.105,-0.031l0.212,-0.066l0.106,-0.035l0.105,-0.036l0.212,-0.076l0.106,-0.039l0.106,-0.041l0.106,-0.042l0.106,-0.043l0.106,-0.044l0.106,-0.045l0.212,-0.094l0.107,-0.049l0.106,-0.05l0.106,-0.052l0.107,-0.052l0.106,-0.053l0.106,-0.055l0.107,-0.056l0.107,-0.057l0.106,-0.059l0.107,-0.059l0.107,-0.061l0.107,-0.062l0.106,-0.063l0.107,-0.065l0.214,-0.132l0.214,-0.138l0.108,-0.071l0.107,-0.071l0.107,-0.073l0.107,-0.075l0.108,-0.075l0.107,-0.077l0.107,-0.078l0.108,-0.079l0.107,-0.081l0.108,-0.081l0.108,-0.083l0.107,-0.085l0.108,-0.085l0.108,-0.087l0.107,-0.088l0.108,-0.089l0.108,-0.091l0.108,-0.092l0.108,-0.093l0.108,-0.094l0.108,-0.096l0.107,-0.097l0.108,-0.098l0.108,-0.099l0.109,-0.101l0.108,-0.102l0.108,-0.103l0.108,-0.105l0.108,-0.106l0.108,-0.107l0.108,-0.108l0.108,-0.11l0.108,-0.111l0.109,-0.112l0.108,-0.113l0.108,-0.115l0.108,-0.116l0.216,-0.236l0.109,-0.12l0.216,-0.244l0.108,-0.124l0.108,-0.125l0.109,-0.126l0.108,-0.128l0.108,-0.129l0.108,-0.13l0.108,-0.131l0.108,-0.133l0.108,-0.134l0.109,-0.136l0.108,-0.136l0.108,-0.138l0.216,-0.28l0.108,-0.142l0.108,-0.143l0.108,-0.144l0.108,-0.146l0.108,-0.147l0.107,-0.148l0.108,-0.15l0.108,-0.151l0.056,-0.078l0,-25.365l-0.011,-0.012l-0.19,-0.209l-0.19,-0.205l-0.19,-0.201l-0.191,-0.198l-0.191,-0.194l-0.191,-0.19l-0.191,-0.187l-0.191,-0.183l-0.192,-0.18l-0.191,-0.176l-0.192,-0.172l-0.192,-0.169l-0.193,-0.167l-0.095,-0.08l-0.192,-0.16l-0.192,-0.156l-0.096,-0.077l-0.097,-0.076l-0.096,-0.075l-0.096,-0.074l-0.097,-0.073l-0.096,-0.073l-0.096,-0.071l-0.097,-0.071l-0.096,-0.07l-0.097,-0.069l-0.096,-0.068l-0.096,-0.067l-0.097,-0.066l-0.097,-0.065l-0.096,-0.065l-0.097,-0.063l-0.096,-0.063l-0.097,-0.062l-0.097,-0.061l-0.096,-0.06l-0.097,-0.06l-0.097,-0.058l-0.096,-0.058l-0.194,-0.112l-0.097,-0.055l-0.097,-0.054l-0.096,-0.054l-0.097,-0.052l-0.097,-0.052l-0.194,-0.1l-0.097,-0.049l-0.194,-0.096l-0.194,-0.092l-0.097,-0.045l-0.097,-0.044l-0.098,-0.043l-0.194,-0.084l-0.097,-0.04l-0.098,-0.04l-0.097,-0.039l-0.098,-0.038l-0.194,-0.074l-0.098,-0.036l-0.097,-0.034l-0.196,-0.068l-0.097,-0.032l-0.098,-0.032l-0.196,-0.06l-0.196,-0.058l-0.196,-0.054l-0.098,-0.026l-0.098,-0.025l-0.196,-0.048l-0.099,-0.022l-0.098,-0.022l-0.099,-0.021l-0.098,-0.021l-0.198,-0.038l-0.098,-0.018l-0.099,-0.017l-0.198,-0.032l-0.099,-0.014l-0.1,-0.014l-0.099,-0.013l-0.1,-0.013l-0.099,-0.011l-0.1,-0.011l-0.099,-0.01l-0.1,-0.009l-0.2,-0.016l-0.1,-0.007l-0.101,-0.005l-0.1,-0.006l-0.101,-0.004l-0.1,-0.004l-0.303,-0.006l-0.19,0l0,0Z" style="fill:#555;"/><path d="M688.572,118.921l-20.548,0l0,-67.895l20.548,0l0,67.895Zm0,-77.641l-20.548,0l0,-14.879l20.548,0l0,14.879Z" style="fill:#555;"/><path d="M726.328,49.268l13.932,0l0,14.23l-13.932,0l0,31.218l0.001,0.184l0.001,0.179l0.003,0.178l0.004,0.177l0.005,0.175l0.006,0.173l0.008,0.171l0.008,0.17l0.01,0.168l0.01,0.167l0.012,0.165l0.013,0.163l0.014,0.162l0.015,0.159l0.016,0.158l0.017,0.157l0.018,0.155l0.02,0.153l0.02,0.151l0.022,0.15l0.022,0.148l0.024,0.147l0.024,0.145l0.026,0.142l0.027,0.142l0.028,0.14l0.028,0.138l0.03,0.136l0.031,0.134l0.032,0.133l0.032,0.132l0.034,0.129l0.035,0.128l0.035,0.126l0.037,0.125l0.038,0.122l0.038,0.121l0.04,0.12l0.04,0.118l0.041,0.116l0.043,0.114l0.043,0.113l0.044,0.111l0.045,0.11l0.046,0.108l0.047,0.106l0.047,0.105l0.049,0.103l0.049,0.101l0.05,0.1l0.051,0.098l0.052,0.096l0.053,0.096l0.053,0.093l0.055,0.092l0.055,0.09l0.056,0.089l0.057,0.088l0.057,0.085l0.059,0.085l0.059,0.083l0.061,0.081l0.06,0.08l0.062,0.079l0.063,0.077l0.063,0.076l0.064,0.075l0.065,0.073l0.066,0.071l0.067,0.071l0.068,0.069l0.068,0.068l0.07,0.067l0.07,0.065l0.071,0.064l0.072,0.063l0.073,0.061l0.074,0.061l0.075,0.059l0.076,0.058l0.077,0.057l0.077,0.055l0.079,0.055l0.08,0.053l0.081,0.052l0.082,0.051l0.083,0.05l0.084,0.049l0.085,0.048l0.087,0.047l0.087,0.045l0.089,0.044l0.09,0.044l0.091,0.042l0.092,0.041l0.094,0.04l0.19,0.076l0.196,0.072l0.1,0.034l0.101,0.033l0.103,0.032l0.104,0.031l0.105,0.03l0.106,0.028l0.108,0.027l0.109,0.026l0.111,0.025l0.112,0.024l0.113,0.023l0.115,0.021l0.116,0.02l0.117,0.019l0.119,0.017l0.121,0.017l0.122,0.015l0.123,0.014l0.124,0.012l0.126,0.011l0.128,0.01l0.129,0.009l0.13,0.007l0.132,0.006l0.133,0.005l0.135,0.003l0.136,0.002l0.136,0.001l0.125,-0.001l0.127,-0.002l0.128,-0.004l0.131,-0.005l0.133,-0.006l0.135,-0.009l0.137,-0.009l0.139,-0.012l0.141,-0.012l0.143,-0.015l0.146,-0.016l0.147,-0.017l0.15,-0.019l0.151,-0.021l0.154,-0.022l0.156,-0.024l0.158,-0.026l0.159,-0.027l0.162,-0.029l0.164,-0.03l0.165,-0.032l0.168,-0.033l0.17,-0.036l0.172,-0.037l0.173,-0.038l0.176,-0.04l0.177,-0.042l0.18,-0.044l0.181,-0.045l0.184,-0.046l0.185,-0.049l2.079,-0.556l0,14l-1.467,0.436l-0.392,0.114l-0.388,0.111l-0.382,0.107l-0.378,0.103l-0.372,0.1l-0.368,0.096l-0.363,0.092l-0.358,0.089l-0.353,0.085l-0.348,0.081l-0.343,0.078l-0.339,0.074l-0.333,0.07l-0.329,0.067l-0.324,0.063l-0.32,0.059l-0.314,0.056l-0.31,0.052l-0.306,0.048l-0.3,0.045l-0.296,0.04l-0.29,0.037l-0.146,0.017l-0.143,0.016l-0.142,0.016l-0.141,0.014l-0.139,0.013l-0.139,0.012l-0.137,0.012l-0.137,0.01l-0.135,0.01l-0.134,0.008l-0.133,0.007l-0.132,0.007l-0.131,0.005l-0.13,0.005l-0.129,0.003l-0.128,0.003l-0.126,0.002l-0.126,0l-0.367,-0.001l-0.363,-0.005l-0.362,-0.006l-0.359,-0.01l-0.356,-0.012l-0.353,-0.016l-0.351,-0.018l-0.348,-0.02l-0.346,-0.024l-0.343,-0.026l-0.341,-0.029l-0.338,-0.032l-0.335,-0.035l-0.333,-0.038l-0.328,-0.04l-0.166,-0.021l-0.164,-0.022l-0.162,-0.023l-0.163,-0.023l-0.161,-0.024l-0.161,-0.025l-0.32,-0.052l-0.159,-0.027l-0.316,-0.056l-0.157,-0.029l-0.312,-0.06l-0.155,-0.032l-0.308,-0.064l-0.306,-0.068l-0.151,-0.035l-0.152,-0.035l-0.15,-0.036l-0.15,-0.037l-0.149,-0.038l-0.149,-0.039l-0.148,-0.039l-0.147,-0.04l-0.147,-0.041l-0.146,-0.041l-0.145,-0.042l-0.145,-0.043l-0.144,-0.043l-0.286,-0.09l-0.142,-0.046l-0.141,-0.046l-0.141,-0.048l-0.14,-0.048l-0.139,-0.048l-0.139,-0.05l-0.138,-0.05l-0.137,-0.051l-0.137,-0.052l-0.136,-0.052l-0.136,-0.054l-0.134,-0.053l-0.134,-0.055l-0.134,-0.056l-0.133,-0.056l-0.132,-0.057l-0.131,-0.057l-0.131,-0.059l-0.13,-0.059l-0.129,-0.06l-0.129,-0.061l-0.128,-0.061l-0.254,-0.126l-0.126,-0.063l-0.25,-0.13l-0.124,-0.066l-0.246,-0.134l-0.121,-0.069l-0.122,-0.069l-0.12,-0.069l-0.12,-0.071l-0.119,-0.071l-0.118,-0.072l-0.118,-0.073l-0.117,-0.074l-0.116,-0.074l-0.116,-0.075l-0.115,-0.076l-0.114,-0.076l-0.226,-0.156l-0.112,-0.079l-0.111,-0.079l-0.22,-0.162l-0.218,-0.164l-0.214,-0.168l-0.212,-0.17l-0.105,-0.087l-0.103,-0.087l-0.104,-0.088l-0.204,-0.178l-0.101,-0.09l-0.1,-0.091l-0.1,-0.092l-0.098,-0.092l-0.098,-0.093l-0.098,-0.094l-0.096,-0.094l-0.096,-0.096l-0.095,-0.096l-0.094,-0.096l-0.094,-0.098l-0.092,-0.098l-0.092,-0.099l-0.182,-0.2l-0.089,-0.101l-0.089,-0.102l-0.088,-0.103l-0.087,-0.103l-0.087,-0.104l-0.086,-0.105l-0.085,-0.105l-0.084,-0.107l-0.166,-0.214l-0.082,-0.108l-0.081,-0.109l-0.16,-0.22l-0.078,-0.111l-0.078,-0.112l-0.077,-0.112l-0.077,-0.114l-0.15,-0.228l-0.074,-0.115l-0.073,-0.116l-0.073,-0.117l-0.072,-0.117l-0.07,-0.118l-0.14,-0.238l-0.068,-0.12l-0.068,-0.121l-0.067,-0.121l-0.066,-0.122l-0.065,-0.122l-0.065,-0.124l-0.064,-0.124l-0.063,-0.124l-0.124,-0.252l-0.06,-0.126l-0.06,-0.127l-0.059,-0.128l-0.116,-0.258l-0.057,-0.13l-0.056,-0.13l-0.055,-0.132l-0.108,-0.264l-0.052,-0.133l-0.053,-0.134l-0.051,-0.134l-0.1,-0.27l-0.049,-0.137l-0.048,-0.137l-0.047,-0.137l-0.047,-0.138l-0.046,-0.139l-0.045,-0.139l-0.088,-0.282l-0.043,-0.141l-0.042,-0.142l-0.041,-0.142l-0.04,-0.143l-0.04,-0.144l-0.039,-0.145l-0.038,-0.144l-0.037,-0.146l-0.037,-0.147l-0.036,-0.146l-0.035,-0.148l-0.034,-0.148l-0.034,-0.149l-0.033,-0.15l-0.032,-0.15l-0.031,-0.15l-0.031,-0.151l-0.029,-0.152l-0.03,-0.153l-0.028,-0.153l-0.054,-0.308l-0.026,-0.155l-0.026,-0.156l-0.024,-0.156l-0.024,-0.157l-0.023,-0.157l-0.022,-0.158l-0.022,-0.159l-0.021,-0.159l-0.02,-0.16l-0.019,-0.16l-0.019,-0.162l-0.018,-0.161l-0.017,-0.163l-0.032,-0.326l-0.015,-0.166l-0.028,-0.329l-0.024,-0.332l-0.022,-0.336l-0.019,-0.337l-0.016,-0.34l-0.013,-0.343l-0.01,-0.345l-0.007,-0.348l-0.005,-0.349l-0.001,-0.35l0,-33.59l-7.292,0l0,-14.23l7.292,0l0,-11.065l20.548,-2.417l0,13.482Z" style="fill:#555;"/></g></svg>
