<?xml version="1.0" encoding="UTF-8"?>
<!DOCTYPE svg PUBLIC "-//W3C//DTD SVG 1.1//EN" "http://www.w3.org/Graphics/SVG/1.1/DTD/svg11.dtd">
<svg version="1.1" xmlns="http://www.w3.org/2000/svg" xmlns:xlink="http://www.w3.org/1999/xlink" x="0px" y="0px" width="192" height="192" viewBox="0, 0, 192, 192">
  <g id="Layer 4">
    <path d="M157.714,12 C165.803,11.992 173.176,14.746 179.523,19.34 C180.39,19.967 181.072,20.792 181.847,21.518 L96,102 L10.153,21.518 C17.006,14.843 24.608,12.458 34.286,12 z" fill="#FFD900"/>
    <path d="M10.153,21.518 L96,102 L10.153,182.482 C3.033,176.056 0.488,168.93 -0,159.857 L-0,44.143 C0.045,38.796 1.413,33.541 4.138,28.822 C5.185,27.009 6.599,25.405 7.829,23.697 z" fill="#8DC213"/>
    <path d="M96,102 L181.847,182.482 C174.993,189.157 167.392,191.542 157.714,192 L34.286,192 C26.197,192.008 18.824,189.254 12.477,184.66 C11.61,184.032 10.928,183.208 10.153,182.482 z" fill="#FF610D"/>
    <path d="M181.847,21.518 C188.968,27.944 191.511,35.07 192,44.143 L192,159.857 C192.008,167.441 189.071,174.353 184.171,180.303 C183.501,181.116 182.622,181.755 181.847,182.482 L96,102 z" fill="#3399FF"/>
  </g>
  <g id="Layer 2" display="none">
    <g>
      <path d="M38.9,62.694 L68.199,62.694 L76.19,24.5 L94.169,24.5 L86.179,62.694 L119.949,62.694 L127.75,24.5 L145.729,24.5 L137.928,62.694 L154.1,62.694 L154.1,81.542 L134.504,81.542 L128.511,111.758 L154.1,111.758 L154.1,130.605 L125.086,130.605 L117.285,168.5 L99.211,168.5 L107.107,130.605 L72.956,130.605 L65.536,168.5 L47.366,168.5 L55.072,130.605 L38.9,130.605 L38.9,111.758 L58.782,111.758 L64.775,81.542 L38.9,81.542 z M82.754,81.542 L76.761,111.658 L110.627,111.658 L116.524,81.542 z" fill="#737373"/>
      <path d="M38.9,62.694 L68.199,62.694 L76.19,24.5 L94.169,24.5 L86.179,62.694 L119.949,62.694 L127.75,24.5 L145.729,24.5 L137.928,62.694 L154.1,62.694 L154.1,81.542 L134.504,81.542 L128.511,111.758 L154.1,111.758 L154.1,130.605 L125.086,130.605 L117.285,168.5 L99.211,168.5 L107.107,130.605 L72.956,130.605 L65.536,168.5 L47.366,168.5 L55.072,130.605 L38.9,130.605 L38.9,111.758 L58.782,111.758 L64.775,81.542 L38.9,81.542 z M82.754,81.542 L76.761,111.658 L110.627,111.658 L116.524,81.542 z" fill-opacity="0" stroke="#737373" stroke-width="3"/>
    </g>
  </g>
  <g id="Layer 5">
    <path d="M46.5,36 L145.5,36 C157.926,36 168,45.234 168,56.625 L168,147.375 C168,158.766 157.926,168 145.5,168 L46.5,168 C34.074,168 24,158.766 24,147.375 L24,56.625 C24,45.234 34.074,36 46.5,36 z" fill="#FFFFFF"/>
    <path d="M60,48 C60,48 60,60 60,60 C60,60 72,60 72,60 L72,48 L84,48 L84,60 L96,60 L96,72 L84,72 L84,84 L96,84 L96,96 L84,96 L84,108 L72,108 L72,96 L60,96 L60,108 L48,108 L48,96 L36,96 L36,84 C36,84 48,84 48,84 C48,84 48,72 48,72 L36,72 L36,60 L48,60 L48,48 z M72,72 C72,72 60,72 60,72 L60,84 L72,84 C72,84 72,72 72,72 z z" fill="#A8A8A8"/>
  </g>
  <defs/>
</svg>
