<?xml version="1.0" encoding="UTF-8"?>
<!DOCTYPE svg PUBLIC "-//W3C//DTD SVG 1.1//EN" "http://www.w3.org/Graphics/SVG/1.1/DTD/svg11.dtd">
<svg version="1.1" xmlns="http://www.w3.org/2000/svg" xmlns:xlink="http://www.w3.org/1999/xlink" x="0px" y="0px" width="912" height="192" viewBox="0, 0, 912, 192">
  <g id="Layer 1">
    <path d="M161.998,-1 C166.989,-0.961 171.893,0.237 176.298,2.621 C177.982,3.532 179.472,4.765 181.06,5.836 L95.998,71 L10.936,5.836 C17.447,0.982 21.94,-0.593 29.998,-1 z" fill="#FFD900"/>
    <path d="M181.06,5.836 L181.081,5.85 C188.441,12.552 191.497,19.084 191.998,29 L191.998,161 C192.055,166.392 190.865,169.411 188.853,174.173 L95.998,71 z" fill="#3399FF"/>
    <path d="M95.998,71 L188.853,174.173 C185.602,181.567 178.576,187.289 170.919,189.651 C166.842,190.909 165.625,190.817 161.998,191 L29.998,191 C22.984,190.954 16.383,188.529 10.915,184.149 C9.804,183.259 8.902,182.136 7.895,181.129 z" fill="#FF610D"/>
    <path d="M10.936,5.836 L95.998,71 L7.895,181.129 C2.392,175.671 0.377,168.517 -0.002,161 L-0.002,29 C0.084,22.039 2.399,15.314 6.849,9.917 C8.068,8.438 9.56,7.206 10.915,5.851 z" fill="#8DC213"/>
  </g>
  <g id="Layer 3">
    <path d="M46.5,12 L145.5,12 C157.926,12 168,22.074 168,34.5 L168,133.5 C168,145.926 157.926,156 145.5,156 L46.5,156 C34.074,156 24,145.926 24,133.5 L24,34.5 C24,22.074 34.074,12 46.5,12 z" fill="#FFFFFF"/>
    <g>
      <path d="M41.66,48.557 L56.13,48.557 L60.077,29.694 L68.956,29.694 L65.01,48.557 L81.688,48.557 L85.541,29.694 L94.42,29.694 L90.568,48.557 L98.555,48.557 L98.555,57.865 L88.876,57.865 L85.917,72.789 L98.555,72.789 L98.555,82.097 L84.225,82.097 L80.373,100.812 L71.446,100.812 L75.346,82.097 L58.479,82.097 L54.815,100.812 L45.841,100.812 L49.647,82.097 L41.66,82.097 L41.66,72.789 L51.479,72.789 L54.439,57.865 L41.66,57.865 z M63.318,57.865 L60.358,72.739 L77.084,72.739 L79.997,57.865 z" fill="#737373"/>
      <path d="M41.66,48.557 L56.13,48.557 L60.077,29.694 L68.956,29.694 L65.01,48.557 L81.688,48.557 L85.541,29.694 L94.42,29.694 L90.568,48.557 L98.555,48.557 L98.555,57.865 L88.876,57.865 L85.917,72.789 L98.555,72.789 L98.555,82.097 L84.225,82.097 L80.373,100.812 L71.446,100.812 L75.346,82.097 L58.479,82.097 L54.815,100.812 L45.841,100.812 L49.647,82.097 L41.66,82.097 L41.66,72.789 L51.479,72.789 L54.439,57.865 L41.66,57.865 z M63.318,57.865 L60.358,72.739 L77.084,72.739 L79.997,57.865 z" fill-opacity="0" stroke="#737373" stroke-width="2"/>
    </g>
    <g>
      <g>
        <text transform="matrix(1, 0, 0, 1, 414.373, 84)">
          <tspan x="-189.727" y="55.5" font-family="Charter-Bold" font-size="160" fill="#4D4D4D">S</tspan>
          <tspan x="-98.867" y="55.5" font-family="Charter-Roman" font-size="160" fill="#4D4D4D">tack</tspan>
        </text>
        <path d="M234.099,135.984 L234.099,107 L246.209,107 L248.787,126.219 L250.896,128.641 Q254.412,129.734 257.888,130.281 Q261.365,130.828 264.959,130.828 Q274.334,130.828 279.959,126.687 Q285.584,122.547 285.584,115.672 Q285.584,109.578 281.638,104.852 Q277.693,100.125 268.474,95.516 Q266.99,94.734 263.943,93.328 Q253.006,88.25 247.537,83.641 Q242.146,79.109 239.256,73.406 Q236.365,67.703 236.365,61.766 Q236.365,48.016 246.873,39.109 Q257.381,30.203 274.099,30.203 Q281.365,30.203 288.865,31.57 Q296.365,32.937 304.177,35.672 L304.177,61.609 L292.615,61.609 L289.959,44.969 L287.693,42.703 Q285.427,41.531 282.537,40.984 Q279.646,40.437 275.974,40.437 Q267.459,40.437 262.302,44.656 Q257.146,48.875 257.146,55.672 Q257.146,60.672 260.076,64.695 Q263.006,68.719 270.115,72.937 Q271.834,74.031 279.685,77.508 Q287.537,80.984 292.927,84.422 Q299.881,88.875 303.631,95.125 Q307.381,101.375 307.381,108.484 Q307.381,123.172 295.74,132.234 Q284.099,141.297 264.959,141.297 Q257.146,141.297 249.256,139.93 Q241.365,138.562 234.099,135.984 z M329.568,72.156 L319.49,72.156 L319.49,67.156 L330.037,62.547 L336.912,47.625 L342.849,47.625 L342.849,64.656 L367.224,64.656 L367.224,72.156 L342.849,72.156 L342.849,114.344 Q342.849,124.734 345.74,128.289 Q348.631,131.844 356.131,131.844 Q358.709,131.844 361.482,131.531 Q364.256,131.219 367.224,130.516 L367.224,136.453 Q361.756,138.172 356.443,139.07 Q351.131,139.969 346.209,139.969 Q336.99,139.969 333.279,136.492 Q329.568,133.016 329.568,123.797 z M422.381,124.812 L422.381,96.609 Q402.302,102.156 396.013,106.766 Q389.724,111.375 389.724,118.875 Q389.724,124.891 393.201,128.445 Q396.677,132 402.537,132 Q406.287,132 411.17,130.203 Q416.052,128.406 422.381,124.812 z M422.381,130.203 Q414.646,135.516 408.201,138.055 Q401.756,140.594 396.131,140.594 Q386.834,140.594 381.248,134.969 Q375.662,129.344 375.662,120.125 Q375.662,109.891 384.06,104.031 Q392.459,98.172 422.381,90.984 L422.381,85.906 Q422.381,75.828 419.099,71.922 Q415.818,68.016 407.693,68.016 Q404.646,68.016 401.677,68.641 Q398.709,69.266 395.506,70.516 L395.506,83.953 L384.49,83.953 Q381.599,83.953 380.545,82.898 Q379.49,81.844 379.49,79.031 Q379.49,71.219 388.513,66.062 Q397.537,60.906 411.834,60.906 Q424.412,60.906 430.115,66.375 Q435.818,71.844 435.818,83.953 L435.818,130.359 L438.552,132.938 L446.99,133.719 L446.99,139.5 L424.49,139.5 z M518.006,132.781 Q511.287,136.688 504.802,138.641 Q498.318,140.594 491.99,140.594 Q475.74,140.594 465.857,129.695 Q455.974,118.797 455.974,100.906 Q455.974,83.172 466.482,72.039 Q476.99,60.906 493.865,60.906 Q505.037,60.906 511.443,65.164 Q517.849,69.422 517.849,76.609 Q517.849,80.437 515.427,82.781 Q513.006,85.125 508.943,85.125 Q507.146,85.125 505.349,84.5 Q503.552,83.875 501.756,82.703 L501.756,69.578 Q499.881,68.484 497.927,67.898 Q495.974,67.312 494.021,67.312 Q483.396,67.312 476.951,76.18 Q470.506,85.047 470.506,99.812 Q470.506,114.422 477.81,122.82 Q485.115,131.219 497.693,131.219 Q502.927,131.219 507.927,129.539 Q512.927,127.859 518.006,124.422 z M525.349,139.5 L525.349,133.719 L534.021,132.938 L536.756,130.359 L536.756,32.469 L524.412,32.469 L524.412,27.469 L543.943,21.766 L550.037,21.766 L550.037,98.719 L553.084,98.719 L577.537,71.375 L576.443,69.109 L569.177,68.484 L569.177,62.547 L599.568,62.547 L599.568,68.484 L589.334,69.734 L567.459,92.937 L595.584,132.625 L605.818,133.406 L605.818,139.5 L580.896,139.5 L580.896,134.188 L559.256,103.172 L550.037,103.172 L550.037,130.359 L552.849,132.938 L560.427,133.719 L560.427,139.5 z" fill-opacity="0" stroke="#4D4D4D" stroke-width="1"/>
      </g>
      <g>
        <text transform="matrix(1, 0, 0, 1, 757.367, 84)">
          <tspan x="-141.992" y="55.5" font-family="Charter-Bold" font-size="160" fill="#4D4D4D">E</tspan>
          <tspan x="-46.602" y="55.5" font-family="Charter-Roman" font-size="160" fill="#4D4D4D">dit</tspan>
        </text>
        <path d="M619.984,139.5 L619.984,131.688 L629.75,130.828 L632.328,128.328 L632.328,43.016 L629.75,40.75 L619.984,39.969 L619.984,32.156 L700.687,32.156 L700.687,57.234 L689.593,57.234 L686.859,43.172 L685.14,41.063 L653.109,41.063 L653.109,79.188 L673.968,79.188 L676.156,76.922 L677.797,65.438 L687.25,65.438 L687.25,102.547 L677.797,102.547 L676.156,90.984 L673.968,88.797 L653.109,88.797 L653.109,130.359 L690.453,130.359 L692.328,127.781 L694.906,110.828 L705.922,110.828 L705.922,139.5 z M772.015,125.281 L772.015,70.359 Q767.64,69.109 764.164,68.445 Q760.687,67.781 757.953,67.781 Q745.687,67.781 738.148,76.844 Q730.609,85.906 730.609,100.75 Q730.609,114.578 737.132,122.703 Q743.656,130.828 754.593,130.828 Q758.812,130.828 763.148,129.461 Q767.484,128.094 772.015,125.281 z M772.015,32.469 L759.75,32.469 L759.75,27.469 L779.281,21.766 L785.297,21.766 L785.297,130.359 L788.031,132.938 L795.687,133.719 L795.687,139.5 L772.015,139.5 L772.015,131.219 Q765.765,136.219 759.828,138.562 Q753.89,140.906 747.406,140.906 Q733.968,140.906 725.257,130.398 Q716.547,119.891 716.547,103.484 Q716.547,84.422 727.992,72.586 Q739.437,60.75 757.797,60.75 Q761,60.75 764.593,61.219 Q768.187,61.688 772.015,62.547 z M825.14,61.766 L831.39,61.766 L831.39,130.359 L834.125,132.938 L842.718,133.719 L842.718,139.5 L806.781,139.5 L806.781,133.719 L815.218,132.938 L817.953,130.359 L817.953,72.469 L806.781,72.469 L806.781,67.469 z M825.765,26.219 Q829.672,26.219 832.367,28.953 Q835.062,31.688 835.062,35.516 Q835.062,39.344 832.367,42 Q829.672,44.656 825.765,44.656 Q821.937,44.656 819.242,42 Q816.547,39.344 816.547,35.516 Q816.547,31.609 819.242,28.914 Q821.937,26.219 825.765,26.219 z M859.984,72.156 L849.906,72.156 L849.906,67.156 L860.453,62.547 L867.328,47.625 L873.265,47.625 L873.265,64.656 L897.64,64.656 L897.64,72.156 L873.265,72.156 L873.265,114.344 Q873.265,124.734 876.156,128.289 Q879.047,131.844 886.547,131.844 Q889.125,131.844 891.898,131.531 Q894.672,131.219 897.64,130.516 L897.64,136.453 Q892.172,138.172 886.859,139.07 Q881.547,139.969 876.625,139.969 Q867.406,139.969 863.695,136.492 Q859.984,133.016 859.984,123.797 z" fill-opacity="0" stroke="#4D4D4D" stroke-width="1"/>
      </g>
    </g>
  </g>
  <defs/>
</svg>
