<?xml version="1.0" encoding="UTF-8"?>
<!DOCTYPE svg PUBLIC "-//W3C//DTD SVG 1.1//EN" "http://www.w3.org/Graphics/SVG/1.1/DTD/svg11.dtd">
<svg version="1.1" xmlns="http://www.w3.org/2000/svg" xmlns:xlink="http://www.w3.org/1999/xlink" x="0px" y="0px" width="192" height="192" viewBox="0, 0, 192, 192">
  <g id="Layer 1">
    <path d="M161.999,-0 C166.99,0.039 171.894,1.237 176.299,3.621 C177.983,4.532 179.473,5.765 181.061,6.836 L95.999,72 L10.937,6.836 C17.448,1.982 21.941,0.407 29.999,-0 z" fill="#FFD900"/>
    <path d="M181.061,6.836 L181.082,6.85 C188.442,13.552 191.498,20.084 191.999,30 L191.999,162 C192.056,167.392 190.866,170.411 188.854,175.173 L95.999,72 z" fill="#3399FF"/>
    <path d="M95.999,72 L188.854,175.173 C185.603,182.567 178.577,188.289 170.92,190.651 C166.843,191.909 165.626,191.817 161.999,192 L29.999,192 C22.985,191.954 16.384,189.529 10.916,185.149 C9.805,184.259 8.903,183.136 7.896,182.129 z" fill="#FF610D"/>
    <path d="M10.937,6.836 L95.999,72 L7.896,182.129 C2.393,176.671 0.378,169.517 -0.001,162 L-0.001,30 C0.085,23.039 2.4,16.314 6.85,10.917 C8.069,9.438 9.561,8.206 10.916,6.851 z" fill="#8DC213"/>
  </g>
  <g id="Layer 3">
    <path d="M46.5,12 L145.5,12 C157.926,12 168,22.074 168,34.5 L168,133.5 C168,145.926 157.926,156 145.5,156 L46.5,156 C34.074,156 24,145.926 24,133.5 L24,34.5 C24,22.074 34.074,12 46.5,12 z" fill="#FFFFFF"/>
    <g>
      <path d="M41.66,48.557 L56.13,48.557 L60.077,29.694 L68.956,29.694 L65.01,48.557 L81.688,48.557 L85.541,29.694 L94.42,29.694 L90.568,48.557 L98.555,48.557 L98.555,57.865 L88.876,57.865 L85.917,72.789 L98.555,72.789 L98.555,82.097 L84.225,82.097 L80.373,100.812 L71.446,100.812 L75.346,82.097 L58.479,82.097 L54.815,100.812 L45.841,100.812 L49.647,82.097 L41.66,82.097 L41.66,72.789 L51.479,72.789 L54.439,57.865 L41.66,57.865 z M63.318,57.865 L60.358,72.739 L77.084,72.739 L79.997,57.865 z" fill="#737373"/>
      <path d="M41.66,48.557 L56.13,48.557 L60.077,29.694 L68.956,29.694 L65.01,48.557 L81.688,48.557 L85.541,29.694 L94.42,29.694 L90.568,48.557 L98.555,48.557 L98.555,57.865 L88.876,57.865 L85.917,72.789 L98.555,72.789 L98.555,82.097 L84.225,82.097 L80.373,100.812 L71.446,100.812 L75.346,82.097 L58.479,82.097 L54.815,100.812 L45.841,100.812 L49.647,82.097 L41.66,82.097 L41.66,72.789 L51.479,72.789 L54.439,57.865 L41.66,57.865 z M63.318,57.865 L60.358,72.739 L77.084,72.739 L79.997,57.865 z" fill-opacity="0" stroke="#737373" stroke-width="2"/>
    </g>
  </g>
  <defs/>
</svg>
