<?xml version="1.0" encoding="UTF-8" standalone="no"?>
<!-- Created with Inkscape (http://www.inkscape.org/) -->

<svg
   xmlns:dc="http://purl.org/dc/elements/1.1/"
   xmlns:cc="http://creativecommons.org/ns#"
   xmlns:rdf="http://www.w3.org/1999/02/22-rdf-syntax-ns#"
   xmlns:svg="http://www.w3.org/2000/svg"
   xmlns="http://www.w3.org/2000/svg"
   xmlns:sodipodi="http://sodipodi.sourceforge.net/DTD/sodipodi-0.dtd"
   xmlns:inkscape="http://www.inkscape.org/namespaces/inkscape"
   width="32"
   height="32"
   id="svg2"
   version="1.1"
   inkscape:version="0.48.4 r9939"
   sodipodi:docname="stackedit-half.svg"
   inkscape:export-filename="C:\Documents and Settings\g550003\Mes documents\Mes images\stackedit-96.png"
   inkscape:export-xdpi="270"
   inkscape:export-ydpi="270">
  <defs
     id="defs4" />
  <sodipodi:namedview
     id="base"
     pagecolor="#ffffff"
     bordercolor="#666666"
     borderopacity="1.0"
     inkscape:pageopacity="0"
     inkscape:pageshadow="2"
     inkscape:zoom="13.984375"
     inkscape:cx="38.091753"
     inkscape:cy="18.637995"
     inkscape:document-units="px"
     inkscape:current-layer="layer1"
     showgrid="true"
     inkscape:window-width="1920"
     inkscape:window-height="1143"
     inkscape:window-x="-4"
     inkscape:window-y="-4"
     inkscape:window-maximized="1">
    <inkscape:grid
       type="xygrid"
       id="grid3000"
       empspacing="5"
       visible="true"
       enabled="true"
       snapvisiblegridlinesonly="true" />
  </sodipodi:namedview>
  <metadata
     id="metadata7">
    <rdf:RDF>
      <cc:Work
         rdf:about="">
        <dc:format>image/svg+xml</dc:format>
        <dc:type
           rdf:resource="http://purl.org/dc/dcmitype/StillImage" />
        <dc:title></dc:title>
      </cc:Work>
    </rdf:RDF>
  </metadata>
  <g
     inkscape:label="Layer 1"
     inkscape:groupmode="layer"
     id="layer1"
     transform="translate(0,-1020.3622)">
    <path
       style="fill:none;stroke:#626265;stroke-width:4;stroke-linecap:butt;stroke-linejoin:miter;stroke-miterlimit:4;stroke-opacity:1;stroke-dasharray:none"
       d="M 2,0 2,12 30,12 30,0"
       id="path3001"
       inkscape:connector-curvature="0"
       transform="translate(0,1036.3622)"
       sodipodi:nodetypes="cccc" />
    <path
       style="fill:none;stroke:#6c6c70;stroke-width:2;stroke-linecap:butt;stroke-linejoin:miter;stroke-miterlimit:4;stroke-opacity:1;stroke-dasharray:none"
       d="m 6,23 18,0"
       id="path3789"
       inkscape:connector-curvature="0"
       transform="translate(0,1020.3622)"
       sodipodi:nodetypes="cc" />
    <path
       style="fill:none;stroke:#95785b;stroke-width:2;stroke-linecap:butt;stroke-linejoin:miter;stroke-miterlimit:4;stroke-opacity:1;stroke-dasharray:none"
       d="m 6,19 16,0"
       id="path3791"
       inkscape:connector-curvature="0"
       transform="translate(0,1020.3622)"
       sodipodi:nodetypes="cc" />
    <path
       style="fill:none;stroke:#bc8e48;stroke-width:2;stroke-linecap:butt;stroke-linejoin:miter;stroke-miterlimit:4;stroke-opacity:1;stroke-dasharray:none"
       d="m 6,15 8,0"
       id="path3793"
       inkscape:connector-curvature="0"
       transform="translate(0,1020.3622)"
       sodipodi:nodetypes="cc" />
    <path
       style="fill:none;stroke:#d38b28;stroke-width:2;stroke-linecap:butt;stroke-linejoin:miter;stroke-miterlimit:4;stroke-opacity:1;stroke-dasharray:none"
       d="m 6,11 20,0"
       id="path3795"
       inkscape:connector-curvature="0"
       transform="translate(0,1020.3622)"
       sodipodi:nodetypes="cc" />
    <path
       style="fill:none;stroke:#fd8a07;stroke-width:2;stroke-linecap:butt;stroke-linejoin:miter;stroke-miterlimit:4;stroke-opacity:1;stroke-dasharray:none"
       d="M 6,7 20,7"
       id="path3797"
       inkscape:connector-curvature="0"
       transform="translate(0,1020.3622)"
       sodipodi:nodetypes="cc" />
    <path
       style="fill:none;stroke:#fe7a15;stroke-width:2;stroke-linecap:butt;stroke-linejoin:miter;stroke-opacity:1;stroke-miterlimit:4;stroke-dasharray:none"
       d="M 6,3 26,3"
       inkscape:connector-curvature="0"
       id="path3799"
       transform="translate(0,1020.3622)" />
    <path
       style="fill:#ffffff;fill-opacity:0.09803922;stroke:none"
       d="M 6 2 L 6 4 L 13.3125 4 L 12.84375 2 L 6 2 z M 6 6 L 6 8 L 14.28125 8 L 13.8125 6 L 6 6 z M 6 10 L 6 12 L 15.25 12 L 14.75 10 L 6 10 z M 6 14 L 6 16 L 14 16 L 14 14 L 6 14 z M 0 16 L 0 28 L 0 30 L 2 30 L 19.53125 30 L 18.5625 26 L 4 26 L 4 16 L 0 16 z M 6 18 L 6 20 L 17.125 20 L 16.65625 18 L 6 18 z M 6 22 L 6 24 L 18.09375 24 L 17.625 22 L 6 22 z "
       transform="translate(0,1020.3622)"
       id="path2990" />
  </g>
</svg>
